<svg width="24" height="25" viewBox="0 0 24 25" fill="none" xmlns="http://www.w3.org/2000/svg">
<path d="M16.2924 14.683C16.2924 15.062 16.0328 15.381 15.7359 15.549L14.1979 16.419L14.8804 18.312C15.0121 18.679 14.8932 19.09 14.5864 19.325C14.2727 19.565 13.84 19.562 13.5293 19.318L11.9992 18.115L10.4691 19.318C10.1584 19.562 9.72575 19.565 9.41206 19.325C9.10526 19.09 8.98628 18.679 9.11805 18.312L9.80048 16.419L8.26255 15.549C7.96558 15.381 7.70598 15.062 7.70598 14.683C7.70598 14.362 7.98033 14.007 8.4248 14.007H10.6343L11.2204 11.724C11.3128 11.362 11.6324 11.11 11.9992 11.103C12.366 11.11 12.6856 11.362 12.778 11.724L13.3641 14.007H15.5736C16.0181 14.007 16.2924 14.361 16.2924 14.683ZM18.3919 2.5H17.9002V2C17.9002 1.171 17.2404 0.5 16.4252 0.5C15.61 0.5 14.9502 1.171 14.9502 2V2.5H9.0502V2C9.0502 1.171 8.39038 0.5 7.5752 0.5C6.76001 0.5 6.1002 1.171 6.1002 2V2.5H5.60853C2.62608 2.5 0.200195 4.967 0.200195 8V19C0.200195 22.033 2.62608 24.5 5.60853 24.5H18.3919C21.3743 24.5 23.8002 22.033 23.8002 19V8C23.8002 4.967 21.3743 2.5 18.3919 2.5ZM18.3919 21.5H5.60853C4.2535 21.5 3.1502 20.378 3.1502 19V9.5H20.8502V19C20.8502 20.378 19.7469 21.5 18.3919 21.5Z" fill="#7828C8"/>
</svg>
