<svg width="79" height="73" viewBox="0 0 79 73" fill="none" xmlns="http://www.w3.org/2000/svg">
<path d="M69.4998 33C69.4998 49.5685 56.0683 63 39.4998 63C22.9312 63 9.49976 49.5685 9.49976 33C9.49976 16.4315 22.9312 3 39.4998 3C56.0683 3 69.4998 16.4315 69.4998 33Z" fill="#5ACAEE"/>
<path fill-rule="evenodd" clip-rule="evenodd" d="M71.722 33.0001C71.722 50.7959 57.2957 65.2223 39.4998 65.2223C21.704 65.2223 7.27759 50.7959 7.27759 33.0001C7.27759 15.2042 21.704 0.777832 39.4998 0.777832C57.2957 0.777832 71.722 15.2042 71.722 33.0001ZM39.4998 63C56.0684 63 69.4998 49.5686 69.4998 33.0001C69.4998 16.4315 56.0684 3.00005 39.4998 3.00005C22.9313 3.00005 9.49981 16.4315 9.49981 33.0001C9.49981 49.5686 22.9313 63 39.4998 63Z" fill="#34ABD1"/>
<path fill-rule="evenodd" clip-rule="evenodd" d="M11.722 34.1111C11.1083 34.1111 10.6108 33.6136 10.6108 33C10.6108 17.0451 23.5448 4.11108 39.4997 4.11108C40.1134 4.11108 40.6108 4.60855 40.6108 5.22219C40.6108 5.83584 40.1134 6.33331 39.4997 6.33331C24.7721 6.3333 12.8331 18.2724 12.8331 33C12.8331 33.6136 12.3356 34.1111 11.722 34.1111Z" fill="#2AB5E0"/>
<path fill-rule="evenodd" clip-rule="evenodd" d="M67.2776 31.8889C67.8912 31.8889 68.3887 32.3864 68.3887 33C68.3887 48.9549 55.4547 61.8889 39.4998 61.8889C38.8861 61.8889 38.3887 61.3915 38.3887 60.7778C38.3887 60.1642 38.8861 59.6667 39.4998 59.6667C54.2274 59.6667 66.1665 47.7276 66.1665 33C66.1665 32.3864 66.6639 31.8889 67.2776 31.8889Z" fill="#47BBDF"/>
<path d="M61.722 33.0001C61.722 45.273 51.7728 55.2223 39.4998 55.2223C27.2268 55.2223 17.2776 45.273 17.2776 33.0001C17.2776 20.7271 27.2268 10.7778 39.4998 10.7778C51.7728 10.7778 61.722 20.7271 61.722 33.0001Z" fill="#76D6F4"/>
<path fill-rule="evenodd" clip-rule="evenodd" d="M63.9443 33.0001C63.9443 46.5004 53.0002 57.4445 39.4999 57.4445C25.9996 57.4445 15.0554 46.5004 15.0554 33.0001C15.0554 19.4998 25.9996 8.55566 39.4999 8.55566C53.0002 8.55566 63.9443 19.4998 63.9443 33.0001ZM39.4999 55.2223C51.7729 55.2223 61.7221 45.2731 61.7221 33.0001C61.7221 20.7271 51.7729 10.7779 39.4999 10.7779C27.2269 10.7779 17.2776 20.7271 17.2776 33.0001C17.2776 45.2731 27.2269 55.2223 39.4999 55.2223Z" fill="#34ABD1"/>
<path fill-rule="evenodd" clip-rule="evenodd" d="M39.4997 51.8889C49.9318 51.8889 58.3886 43.432 58.3886 33C58.3886 32.3863 58.8861 31.8889 59.4997 31.8889C60.1134 31.8889 60.6108 32.3863 60.6108 33C60.6108 44.6593 51.1591 54.1111 39.4997 54.1111C38.8861 54.1111 38.3886 53.6136 38.3886 53C38.3886 52.3863 38.8861 51.8889 39.4997 51.8889Z" fill="#51C5E9"/>
<path fill-rule="evenodd" clip-rule="evenodd" d="M39.4998 14.1111C29.0677 14.1111 20.6109 22.568 20.6109 33C20.6109 33.6137 20.1134 34.1111 19.4998 34.1111C18.8861 34.1111 18.3887 33.6137 18.3887 33C18.3887 21.3407 27.8404 11.8889 39.4998 11.8889C40.1134 11.8889 40.6109 12.3864 40.6109 13C40.6109 13.6137 40.1134 14.1111 39.4998 14.1111Z" fill="#AFECFF"/>
<path d="M5.54044 62.5807L2.67846 56.8568C2.36679 56.2334 2.82006 55.5 3.51698 55.5L16.0626 55.5C16.5803 55.5 17.0001 55.9197 17.0001 56.4375L17.0001 69.5625C17.0001 70.0803 16.5803 70.5 16.0626 70.5L3.51698 70.5C2.82006 70.5 2.36679 69.7666 2.67846 69.1432L5.54044 63.4193C5.67242 63.1553 5.67242 62.8447 5.54044 62.5807Z" fill="#C52229"/>
<path d="M73.4597 62.5807L76.3217 56.8568C76.6334 56.2334 76.1801 55.5 75.4832 55.5L62.9376 55.5C62.4198 55.5 62.0001 55.9197 62.0001 56.4375L62.0001 69.5625C62.0001 70.0803 62.4198 70.5 62.9376 70.5L75.4832 70.5C76.1801 70.5 76.6334 69.7666 76.3217 69.1432L73.4597 63.4193C73.3277 63.1553 73.3277 62.8447 73.4597 62.5807Z" fill="#C52229"/>
<path fill-rule="evenodd" clip-rule="evenodd" d="M3.65379 63L1.00143 57.6953C0.0664214 55.8253 1.42623 53.625 3.51701 53.625L16.0626 53.625C17.6159 53.625 18.8751 54.8842 18.8751 56.4375L18.8751 69.5625C18.8751 71.1158 17.6159 72.375 16.0626 72.375L3.51701 72.375C1.42623 72.375 0.0664208 70.1747 1.00143 68.3047L3.65379 63ZM3.86288 63.4182C3.86307 63.4185 3.86324 63.4189 3.86343 63.4193L4.70196 63L3.86341 63.4193L3.86288 63.4182ZM75.3464 63L77.9988 57.6953C78.9338 55.8253 77.5739 53.625 75.4832 53.625L62.9376 53.625C61.3843 53.625 60.1251 54.8842 60.1251 56.4375L60.1251 69.5625C60.1251 71.1158 61.3843 72.375 62.9376 72.375L75.4832 72.375C77.5739 72.375 78.9338 70.1747 77.9988 68.3047L75.3464 63ZM76.3217 56.8568L73.4597 62.5807C73.3278 62.8447 73.3278 63.1553 73.4597 63.4193L76.3217 69.1432C76.6334 69.7666 76.1801 70.5 75.4832 70.5L62.9376 70.5C62.4198 70.5 62.0001 70.0803 62.0001 69.5625L62.0001 56.4375C62.0001 55.9197 62.4198 55.5 62.9376 55.5L75.4832 55.5C76.1801 55.5 76.6334 56.2334 76.3217 56.8568ZM2.67849 56.8568L5.54047 62.5807C5.67244 62.8447 5.67244 63.1553 5.54047 63.4193L2.67849 69.1432C2.36681 69.7666 2.82008 70.5 3.51701 70.5L16.0626 70.5C16.5804 70.5 17.0001 70.0803 17.0001 69.5625L17.0001 56.4375C17.0001 55.9197 16.5804 55.5 16.0626 55.5L3.51701 55.5C2.82008 55.5 2.36681 56.2334 2.67849 56.8568Z" fill="#9B0F15"/>
<path fill-rule="evenodd" clip-rule="evenodd" d="M4.01937 56.3478C4.19105 56.0754 4.49051 55.9102 4.8125 55.9102H8.79688C9.31464 55.9102 9.73438 56.3299 9.73438 56.8477C9.73438 57.3654 9.31464 57.7852 8.79688 57.7852H6.30007L8.23638 61.8338C8.45977 62.3009 8.26221 62.8606 7.79512 63.084C7.32802 63.3074 6.76827 63.1099 6.54488 62.6428L3.96675 57.2521C3.82783 56.9617 3.84769 56.6202 4.01937 56.3478Z" fill="#DF3840"/>
<path d="M65.75 65.8125L65.75 52.6875C65.75 52.1697 65.3303 51.75 64.8125 51.75L14.1875 51.75C13.6697 51.75 13.25 52.1697 13.25 52.6875L13.25 65.8125C13.25 66.3303 13.6697 66.75 14.1875 66.75L64.8125 66.75C65.3303 66.75 65.75 66.3303 65.75 65.8125Z" fill="#F1333B"/>
<path fill-rule="evenodd" clip-rule="evenodd" d="M67.625 52.6875L67.625 65.8125C67.625 67.3658 66.3658 68.625 64.8125 68.625L14.1875 68.625C12.6342 68.625 11.375 67.3658 11.375 65.8125L11.375 52.6875C11.375 51.1342 12.6342 49.875 14.1875 49.875L64.8125 49.875C66.3658 49.875 67.625 51.1342 67.625 52.6875ZM65.75 52.6875L65.75 65.8125C65.75 66.3303 65.3303 66.75 64.8125 66.75L14.1875 66.75C13.6697 66.75 13.25 66.3303 13.25 65.8125L13.25 52.6875C13.25 52.1697 13.6697 51.75 14.1875 51.75L64.8125 51.75C65.3303 51.75 65.75 52.1697 65.75 52.6875Z" fill="#9B0F15"/>
<path d="M63.1601 59.606C62.6292 59.606 62.1989 59.1862 62.1989 58.6683C62.1989 58.1503 62.6292 57.7305 63.1601 57.7305C63.691 57.7305 64.1213 58.1503 64.1213 58.6683C64.1213 59.1862 63.691 59.606 63.1601 59.606Z" fill="#DB1B24"/>
<path d="M59.5028 59.2307C58.8425 59.2307 58.3071 58.7085 58.3071 58.0642C58.3071 57.42 58.8425 56.8977 59.5028 56.8977C60.1632 56.8977 60.6985 57.42 60.6985 58.0642C60.6985 58.7085 60.1632 59.2307 59.5028 59.2307Z" fill="#DB1B24"/>
<path d="M61.1321 61.898C60.802 61.898 60.5343 61.6368 60.5343 61.3147C60.5343 60.9926 60.802 60.7314 61.1321 60.7314C61.4623 60.7314 61.73 60.9926 61.73 61.3147C61.73 61.6368 61.4623 61.898 61.1321 61.898Z" fill="#DB1B24"/>
<path d="M60.1007 55.729C59.7705 55.729 59.5028 55.4679 59.5028 55.1458C59.5028 54.8236 59.7705 54.5625 60.1007 54.5625C60.4308 54.5625 60.6985 54.8236 60.6985 55.1458C60.6985 55.4679 60.4308 55.729 60.1007 55.729Z" fill="#DB1B24"/>
<path d="M56.959 61.3147C56.6289 61.3147 56.3612 61.0536 56.3612 60.7314C56.3612 60.4093 56.6289 60.1482 56.959 60.1482C57.2892 60.1482 57.5569 60.4093 57.5569 60.7314C57.5569 61.0536 57.2892 61.3147 56.959 61.3147Z" fill="#DB1B24"/>
<path d="M56.3611 58.3137C56.031 58.3137 55.7633 58.0526 55.7633 57.7305C55.7633 57.4083 56.031 57.1472 56.3611 57.1472C56.6913 57.1472 56.959 57.4083 56.959 57.7305C56.959 58.0526 56.6913 58.3137 56.3611 58.3137Z" fill="#DB1B24"/>
<path d="M52.2855 65.0794C51.9553 65.0794 51.6876 64.8182 51.6876 64.4961C51.6876 64.174 51.9553 63.9128 52.2855 63.9128C52.6156 63.9128 52.8833 64.174 52.8833 64.4961C52.8833 64.8182 52.6156 65.0794 52.2855 65.0794Z" fill="#DB1B24"/>
<path d="M64.18 62.8528C63.8498 62.8528 63.5822 62.5917 63.5822 62.2695C63.5822 61.9474 63.8498 61.6863 64.18 61.6863C64.5102 61.6863 64.7778 61.9474 64.7778 62.2695C64.7778 62.5917 64.5102 62.8528 64.18 62.8528Z" fill="#DB1B24"/>
<path d="M58.5297 64.1301C57.9924 64.1301 57.5568 63.7051 57.5568 63.1809C57.5568 62.6567 57.9924 62.2317 58.5297 62.2317C59.0671 62.2317 59.5027 62.6567 59.5027 63.1809C59.5027 63.7051 59.0671 64.1301 58.5297 64.1301Z" fill="#DB1B24"/>
<path d="M62.7028 65.0793C62.1655 65.0793 61.7299 64.6544 61.7299 64.1301C61.7299 63.6059 62.1655 63.1809 62.7028 63.1809C63.2402 63.1809 63.6758 63.6059 63.6758 64.1301C63.6758 64.6544 63.2402 65.0793 62.7028 65.0793Z" fill="#DB1B24"/>
<path d="M54.1926 63.2131C53.6552 63.2131 53.2196 62.7882 53.2196 62.2639C53.2196 61.7397 53.6552 61.3147 54.1926 61.3147C54.7299 61.3147 55.1655 61.7397 55.1655 62.2639C55.1655 62.7882 54.7299 63.2131 54.1926 63.2131Z" fill="#DB1B24"/>
<path d="M55.7632 65.3677C55.4331 65.3677 55.1654 65.1066 55.1654 64.7844C55.1654 64.4623 55.4331 64.2012 55.7632 64.2012C56.0934 64.2012 56.3611 64.4623 56.3611 64.7844C56.3611 65.1066 56.0934 65.3677 55.7632 65.3677Z" fill="#DB1B24"/>
<path fill-rule="evenodd" clip-rule="evenodd" d="M13.8359 53.0977C13.8359 52.5799 14.2557 52.1602 14.7734 52.1602H49.9297C50.4475 52.1602 50.8672 52.5799 50.8672 53.0977C50.8672 53.6154 50.4475 54.0352 49.9297 54.0352H15.7109V60.5977C15.7109 61.1154 15.2912 61.5352 14.7734 61.5352C14.2557 61.5352 13.8359 61.1154 13.8359 60.5977V53.0977Z" fill="#FE666D"/>
<path d="M28.0024 29.9741C28.0313 30.3247 28.1383 30.3954 28.4234 30.7449C31.3047 34.278 37.298 41.5754 38.22 42.5004C38.5407 42.8221 38.7888 42.962 38.9883 42.9931M28.0024 29.9741C27.9789 29.689 28.131 29.4016 28.4234 29.0105C28.9997 28.2397 30.6644 25.8629 31.3047 24.7709C31.3822 24.6153 31.563 24.3656 31.83 24.1927M28.0024 29.9741H34.0313M49.999 29.9741C49.9864 29.6041 49.8537 29.2278 49.7454 29.0105L47.0562 24.7709C46.9185 24.4945 46.6727 24.3111 46.4089 24.1927M49.999 29.9741C50.0088 30.2605 49.9466 30.5431 49.7454 30.7449C49.2844 31.2075 42.8942 38.7746 39.7567 42.5004C39.566 42.7268 39.3626 43.0514 38.9883 42.9931M49.999 29.9741H44.127M31.83 24.1927C32.004 24.08 32.2147 24 32.4573 24C32.8136 24 35.7688 24 38.9883 24M31.83 24.1927L34.0313 29.9741M38.9883 42.9931L34.0313 29.9741M38.9883 42.9931L44.127 29.9741M46.4089 24.1927C46.0839 24.047 45.7315 24 45.5194 24C43.7969 24 41.3231 24 38.9883 24M46.4089 24.1927L44.127 29.9741M34.0313 29.9741L38.9883 24M34.0313 29.9741H44.127M38.9883 24L44.127 29.9741" stroke="#34ABD1" stroke-width="2"/>
</svg>
