<svg width="22" height="25" viewBox="0 0 22 25" fill="none" xmlns="http://www.w3.org/2000/svg">
<path d="M16.4081 0.5H5.59144C2.61194 0.5 0.183105 2.97 0.183105 6V20C0.183105 22.48 2.16944 24.5 4.60811 24.5H16.4081C19.3876 24.5 21.8164 22.03 21.8164 19V6C21.8164 2.97 19.3876 0.5 16.4081 0.5ZM18.8664 6V15.5H9.03311V3.5H16.4081C17.7651 3.5 18.8664 4.62 18.8664 6ZM5.59144 3.5H6.08311V15.5H4.60811C4.08694 15.5 3.59527 15.59 3.13311 15.76V6C3.13311 4.62 4.23444 3.5 5.59144 3.5ZM16.4081 21.5H4.60811C3.79194 21.5 3.13311 20.83 3.13311 20C3.13311 19.17 3.79194 18.5 4.60811 18.5H18.8664V19C18.8664 20.38 17.7651 21.5 16.4081 21.5ZM11.1473 14C11.5603 14 11.9339 13.73 12.0814 13.33L12.3764 12.5H15.5428L15.8378 13.33C15.9754 13.73 16.3491 14 16.7719 14C17.4603 14 17.9323 13.31 17.7061 12.66L15.3559 6C15.1396 5.4 14.5988 5.01 13.9694 5.01C13.3401 5.01 12.7993 5.4 12.5829 6.01L10.2328 12.67C10.0066 13.32 10.4786 14.01 11.1669 14.01L11.1473 14ZM14.8348 10.5H13.0746L13.9596 7.99L14.8446 10.5H14.8348Z" fill="#12A150"/>
</svg>
