<svg width="79" height="73" viewBox="0 0 79 73" fill="none" xmlns="http://www.w3.org/2000/svg">
<path d="M69.8996 33.1778C69.8996 49.8446 56.3885 63.3556 39.7218 63.3556C23.055 63.3556 9.54395 49.8446 9.54395 33.1778C9.54395 16.5111 23.055 3 39.7218 3C56.3885 3 69.8996 16.5111 69.8996 33.1778Z" fill="#FFBB0D"/>
<path fill-rule="evenodd" clip-rule="evenodd" d="M72.135 33.1779C72.135 51.0792 57.6231 65.5911 39.7218 65.5911C21.8205 65.5911 7.30859 51.0792 7.30859 33.1779C7.30859 15.2765 21.8205 0.764648 39.7218 0.764648C57.6231 0.764648 72.135 15.2765 72.135 33.1779ZM39.7218 63.3557C56.3886 63.3557 69.8996 49.8446 69.8996 33.1779C69.8996 16.5111 56.3886 3.00004 39.7218 3.00004C23.0551 3.00004 9.54399 16.5111 9.54399 33.1779C9.54399 49.8446 23.0551 63.3557 39.7218 63.3557Z" fill="#E89B05"/>
<path fill-rule="evenodd" clip-rule="evenodd" d="M11.7795 34.2957C11.1622 34.2957 10.6618 33.7952 10.6618 33.178C10.6618 17.1285 23.6724 4.11784 39.7219 4.11784C40.3392 4.11784 40.8396 4.61825 40.8396 5.23553C40.8396 5.85282 40.3392 6.35323 39.7219 6.35323C24.907 6.35323 12.8972 18.3631 12.8972 33.178C12.8972 33.7952 12.3968 34.2957 11.7795 34.2957Z" fill="#E8AA0A"/>
<path fill-rule="evenodd" clip-rule="evenodd" d="M67.6641 32.0601C68.2814 32.0601 68.7818 32.5605 68.7818 33.1778C68.7818 49.2272 55.7712 62.2379 39.7217 62.2379C39.1044 62.2379 38.604 61.7375 38.604 61.1202C38.604 60.5029 39.1044 60.0025 39.7217 60.0025C54.5366 60.0025 66.5464 47.9926 66.5464 33.1778C66.5464 32.5605 67.0468 32.0601 67.6641 32.0601Z" fill="#E8AA0A"/>
<path d="M62.0758 33.1779C62.0758 45.5237 52.0676 55.5318 39.7219 55.5318C27.3761 55.5318 17.3679 45.5237 17.3679 33.1779C17.3679 20.8322 27.3761 10.824 39.7219 10.824C52.0676 10.824 62.0758 20.8322 62.0758 33.1779Z" fill="#FFDD28"/>
<path fill-rule="evenodd" clip-rule="evenodd" d="M64.3112 33.178C64.3112 46.7583 53.3022 57.7673 39.7219 57.7673C26.1416 57.7673 15.1326 46.7583 15.1326 33.178C15.1326 19.5976 26.1416 8.58862 39.7219 8.58862C53.3022 8.58862 64.3112 19.5976 64.3112 33.178ZM39.7219 55.5319C52.0676 55.5319 62.0758 45.5237 62.0758 33.178C62.0758 20.8322 52.0676 10.824 39.7219 10.824C27.3762 10.824 17.368 20.8322 17.368 33.178C17.368 45.5237 27.3762 55.5319 39.7219 55.5319Z" fill="#E89B05"/>
<path fill-rule="evenodd" clip-rule="evenodd" d="M39.7218 52.1787C50.2156 52.1787 58.7226 43.6717 58.7226 33.1778C58.7226 32.5605 59.223 32.0601 59.8403 32.0601C60.4576 32.0601 60.958 32.5605 60.958 33.1778C60.958 44.9063 51.4502 54.4141 39.7218 54.4141C39.1045 54.4141 38.6041 53.9137 38.6041 53.2964C38.6041 52.6791 39.1045 52.1787 39.7218 52.1787Z" fill="#ECC704"/>
<path fill-rule="evenodd" clip-rule="evenodd" d="M39.7218 14.177C29.228 14.177 20.721 22.684 20.721 33.1779C20.721 33.7952 20.2206 34.2956 19.6033 34.2956C18.986 34.2956 18.4856 33.7952 18.4856 33.1779C18.4856 21.4494 27.9934 11.9417 39.7218 11.9417C40.3391 11.9417 40.8395 12.4421 40.8395 13.0593C40.8395 13.6766 40.3391 14.177 39.7218 14.177Z" fill="#FFEF9C"/>
<path d="M5.56123 62.9325L2.68229 57.1746C2.36877 56.5476 2.82473 55.8098 3.52579 55.8098L16.1457 55.8098C16.6666 55.8098 17.0888 56.232 17.0888 56.7529L17.0888 69.9557C17.0888 70.4765 16.6666 70.8987 16.1457 70.8987L3.52579 70.8987C2.82473 70.8987 2.36877 70.161 2.68229 69.5339L5.56123 63.776C5.69399 63.5105 5.69399 63.198 5.56123 62.9325Z" fill="#C52229"/>
<path d="M73.8831 62.9325L76.762 57.1746C77.0755 56.5476 76.6196 55.8098 75.9185 55.8098L63.2986 55.8098C62.7777 55.8098 62.3555 56.232 62.3555 56.7529L62.3555 69.9557C62.3555 70.4765 62.7777 70.8987 63.2986 70.8987L75.9185 70.8987C76.6196 70.8987 77.0755 70.161 76.762 69.5339L73.8831 63.776C73.7503 63.5105 73.7503 63.198 73.8831 62.9325Z" fill="#C52229"/>
<path fill-rule="evenodd" clip-rule="evenodd" d="M3.66349 63.3544L0.995415 58.0182C0.0548629 56.1371 1.42273 53.9238 3.5259 53.9238L16.1459 53.9238C17.7084 53.9238 18.975 55.1905 18.975 56.753L18.975 69.9558C18.975 71.5183 17.7084 72.785 16.1459 72.785L3.5259 72.785C1.42273 72.785 0.0548622 70.5717 0.995414 68.6905L3.66349 63.3544ZM3.87382 63.7751C3.87401 63.7754 3.87419 63.7758 3.87437 63.7762L4.71787 63.3544L3.87436 63.7761L3.87382 63.7751ZM75.7811 63.3544L78.4491 58.0182C79.3897 56.1371 78.0218 53.9238 75.9186 53.9238L63.2987 53.9238C61.7362 53.9238 60.4695 55.1905 60.4695 56.753L60.4695 69.9558C60.4695 71.5183 61.7362 72.785 63.2987 72.785L75.9186 72.785C78.0218 72.785 79.3897 70.5717 78.4491 68.6905L75.7811 63.3544ZM76.7621 57.1747L73.8832 62.9326C73.7504 63.1981 73.7504 63.5106 73.8832 63.7761L76.7621 69.534C77.0757 70.1611 76.6197 70.8988 75.9186 70.8988L63.2987 70.8988C62.7779 70.8988 62.3556 70.4766 62.3556 69.9558L62.3556 56.753C62.3556 56.2322 62.7779 55.8099 63.2987 55.8099L75.9186 55.8099C76.6197 55.8099 77.0757 56.5477 76.7621 57.1747ZM2.68241 57.1747L5.56136 62.9326C5.69411 63.1981 5.69411 63.5106 5.56136 63.7761L2.68241 69.534C2.36889 70.1611 2.82484 70.8988 3.5259 70.8988L16.1459 70.8988C16.6667 70.8988 17.0889 70.4766 17.0889 69.9558L17.0889 56.753C17.0889 56.2322 16.6667 55.8099 16.1459 55.8099L3.5259 55.8099C2.82484 55.8099 2.36889 56.5477 2.68241 57.1747Z" fill="#9B0F15"/>
<path fill-rule="evenodd" clip-rule="evenodd" d="M4.03146 56.6627C4.20415 56.3886 4.50539 56.2224 4.82929 56.2224H8.83728C9.35812 56.2224 9.78034 56.6446 9.78034 57.1655C9.78034 57.6863 9.35812 58.1085 8.83728 58.1085H6.32568L8.27346 62.1812C8.49818 62.651 8.29945 63.2141 7.82958 63.4388C7.35972 63.6635 6.79665 63.4648 6.57193 62.9949L3.97853 57.5724C3.83878 57.2802 3.85876 56.9367 4.03146 56.6627Z" fill="#DF3840"/>
<path d="M66.1279 66.1834L66.1279 52.9807C66.1279 52.4598 65.7057 52.0376 65.1849 52.0376L14.2598 52.0376C13.739 52.0376 13.3168 52.4598 13.3168 52.9807L13.3168 66.1834C13.3168 66.7043 13.739 67.1265 14.2598 67.1265L65.1849 67.1265C65.7057 67.1265 66.1279 66.7043 66.1279 66.1834Z" fill="#F1333B"/>
<path fill-rule="evenodd" clip-rule="evenodd" d="M68.0139 52.9805L68.0139 66.1833C68.0139 67.7458 66.7472 69.0125 65.1847 69.0125L14.2597 69.0125C12.6972 69.0125 11.4305 67.7458 11.4305 66.1833L11.4305 52.9805C11.4305 51.418 12.6972 50.1514 14.2597 50.1514L65.1847 50.1514C66.7473 50.1514 68.0139 51.418 68.0139 52.9805ZM66.1278 52.9805L66.1278 66.1833C66.1278 66.7042 65.7056 67.1264 65.1847 67.1264L14.2597 67.1264C13.7388 67.1264 13.3166 66.7042 13.3166 66.1833L13.3166 52.9805C13.3166 52.4597 13.7388 52.0375 14.2597 52.0375L65.1847 52.0375C65.7056 52.0375 66.1278 52.4597 66.1278 52.9805Z" fill="#9B0F15"/>
<path d="M63.5226 59.9401C62.9886 59.9401 62.5557 59.5178 62.5557 58.9968C62.5557 58.4758 62.9886 58.0535 63.5226 58.0535C64.0566 58.0535 64.4895 58.4758 64.4895 58.9968C64.4895 59.5178 64.0566 59.9401 63.5226 59.9401Z" fill="#DB1B24"/>
<path d="M59.8436 59.5627C59.1794 59.5627 58.6409 59.0373 58.6409 58.3892C58.6409 57.7412 59.1794 57.2158 59.8436 57.2158C60.5079 57.2158 61.0464 57.7412 61.0464 58.3892C61.0464 59.0373 60.5079 59.5627 59.8436 59.5627Z" fill="#DB1B24"/>
<path d="M61.4826 62.2454C61.1505 62.2454 60.8812 61.9828 60.8812 61.6587C60.8812 61.3347 61.1505 61.072 61.4826 61.072C61.8147 61.072 62.084 61.3347 62.084 61.6587C62.084 61.9828 61.8147 62.2454 61.4826 62.2454Z" fill="#DB1B24"/>
<path d="M60.445 56.0401C60.1129 56.0401 59.8436 55.7774 59.8436 55.4534C59.8436 55.1294 60.1129 54.8667 60.445 54.8667C60.7771 54.8667 61.0464 55.1294 61.0464 55.4534C61.0464 55.7774 60.7771 56.0401 60.445 56.0401Z" fill="#DB1B24"/>
<path d="M57.2848 61.6588C56.9527 61.6588 56.6835 61.3961 56.6835 61.0721C56.6835 60.748 56.9527 60.4854 57.2848 60.4854C57.617 60.4854 57.8862 60.748 57.8862 61.0721C57.8862 61.3961 57.617 61.6588 57.2848 61.6588Z" fill="#DB1B24"/>
<path d="M56.6833 58.6402C56.3512 58.6402 56.0819 58.3775 56.0819 58.0535C56.0819 57.7295 56.3512 57.4668 56.6833 57.4668C57.0154 57.4668 57.2847 57.7295 57.2847 58.0535C57.2847 58.3775 57.0154 58.6402 56.6833 58.6402Z" fill="#DB1B24"/>
<path d="M52.5834 65.4459C52.2513 65.4459 51.9821 65.1832 51.9821 64.8592C51.9821 64.5351 52.2513 64.2725 52.5834 64.2725C52.9156 64.2725 53.1848 64.5351 53.1848 64.8592C53.1848 65.1832 52.9156 65.4459 52.5834 65.4459Z" fill="#DB1B24"/>
<path d="M64.5485 63.2061C64.2164 63.2061 63.9471 62.9435 63.9471 62.6194C63.9471 62.2954 64.2164 62.0327 64.5485 62.0327C64.8807 62.0327 65.1499 62.2954 65.1499 62.6194C65.1499 62.9435 64.8807 63.2061 64.5485 63.2061Z" fill="#DB1B24"/>
<path d="M58.8648 64.4912C58.3243 64.4912 57.8861 64.0637 57.8861 63.5364C57.8861 63.009 58.3243 62.5815 58.8648 62.5815C59.4053 62.5815 59.8435 63.009 59.8435 63.5364C59.8435 64.0637 59.4053 64.4912 58.8648 64.4912Z" fill="#DB1B24"/>
<path d="M63.0628 65.4461C62.5223 65.4461 62.0841 65.0186 62.0841 64.4912C62.0841 63.9639 62.5223 63.5364 63.0628 63.5364C63.6033 63.5364 64.0415 63.9639 64.0415 64.4912C64.0415 65.0186 63.6033 65.4461 63.0628 65.4461Z" fill="#DB1B24"/>
<path d="M54.502 63.5686C53.9615 63.5686 53.5233 63.1411 53.5233 62.6138C53.5233 62.0864 53.9615 61.6589 54.502 61.6589C55.0425 61.6589 55.4807 62.0864 55.4807 62.6138C55.4807 63.1411 55.0425 63.5686 54.502 63.5686Z" fill="#DB1B24"/>
<path d="M56.082 65.7359C55.7498 65.7359 55.4806 65.4732 55.4806 65.1492C55.4806 64.8252 55.7498 64.5625 56.082 64.5625C56.4141 64.5625 56.6833 64.8252 56.6833 65.1492C56.6833 65.4732 56.4141 65.7359 56.082 65.7359Z" fill="#DB1B24"/>
<path fill-rule="evenodd" clip-rule="evenodd" d="M13.906 53.3933C13.906 52.8724 14.3282 52.4502 14.8491 52.4502H50.2137C50.7345 52.4502 51.1567 52.8724 51.1567 53.3933C51.1567 53.9141 50.7345 54.3363 50.2137 54.3363H15.7921V60.9377C15.7921 61.4585 15.3699 61.8808 14.8491 61.8808C14.3282 61.8808 13.906 61.4585 13.906 60.9377V53.3933Z" fill="#FE666D"/>
<path d="M42.1394 41.2814H38.7089V28.0582L34.6138 29.3283V26.5388L41.7714 23.9749H42.1394V41.2814Z" fill="#FFEF9C"/>
<path fill-rule="evenodd" clip-rule="evenodd" d="M44.1652 41.2814C44.1652 42.4002 43.2582 43.3072 42.1393 43.3072H38.7089C37.5901 43.3072 36.6831 42.4002 36.6831 41.2814V30.8074L35.2138 31.2631C34.599 31.4538 33.9302 31.3409 33.412 30.9591C32.8938 30.5773 32.5879 29.9719 32.5879 29.3282V26.5387C32.5879 25.6833 33.1252 24.9201 33.9306 24.6316L41.0882 22.0676C41.3074 21.9891 41.5385 21.949 41.7714 21.949H42.1393C43.2582 21.949 44.1652 22.856 44.1652 23.9748V41.2814ZM38.7089 28.0581V41.2814H42.1393V23.9748H41.7714L34.6137 26.5387V29.3282L38.7089 28.0581Z" fill="#E89B05"/>
</svg>
