<svg viewBox="0 0 1209 261" fill="none" xmlns="http://www.w3.org/2000/svg">
<g clip-path="url(#clip0_3723_2612)">
<path fill-rule="evenodd" clip-rule="evenodd" d="M20.0206 49.1734L91.056 13.5781C92.595 12.8073 94.405 12.8073 95.944 13.5781L166.979 49.1734C171.007 51.1915 171.007 56.9514 166.979 58.9695L142.679 71.1464V100.619C142.679 116.302 119.816 128 93.5 128C67.1844 128 44.3214 116.302 44.3214 100.619V71.1464L20.0206 58.9695C15.9931 56.9514 15.9931 51.1915 20.0206 49.1734ZM55.25 76.6226V100.619C55.25 108.255 72.4351 117.048 93.5 117.048C114.565 117.048 131.75 108.255 131.75 100.619V76.6226L95.944 94.5647C94.405 95.336 92.595 95.336 91.056 94.5647L55.25 76.6226ZM153.607 78.7143V106.095C153.607 109.12 156.054 111.571 159.071 111.571C162.089 111.571 164.536 109.12 164.536 106.095V78.7143C164.536 75.6899 162.089 73.2381 159.071 73.2381C156.054 73.2381 153.607 75.6899 153.607 78.7143ZM93.5 24.5988L152.317 54.0714L93.5 83.5441L34.6828 54.0714L93.5 24.5988Z" fill="#338EF7" stroke="#338EF7" stroke-width="2"/>
<path fill-rule="evenodd" clip-rule="evenodd" d="M210.977 160.267C201.151 140.614 181.559 131 162.42 131C147.958 131 136.266 138.429 126.955 144.689C124.25 146.508 121.092 147.476 117.868 147.476H88.2806C76.9067 147.476 67.6863 156.696 67.6863 168.07C67.6863 179.444 76.9067 188.664 88.2806 188.664H121.232C125.781 188.664 129.469 184.976 129.469 180.427C129.469 175.877 125.781 172.189 121.232 172.189H88.2806C86.0058 172.189 84.1618 170.345 84.1618 168.07C84.1618 165.795 86.0058 163.951 88.2806 163.951H117.868C124.402 163.951 130.755 161.988 136.148 158.362C145.633 151.984 153.522 147.476 162.42 147.476C176.233 147.476 189.592 154.337 196.241 167.635C200.924 177 184 233.5 206.499 214.5C211.362 210.394 213.012 164.336 210.977 160.267Z" fill="#338EF7"/>
<path d="M17.6108 158.428C19.4945 155.602 23.1871 154.621 26.2246 156.14L72.0679 179.062C76.1374 181.096 81.0853 179.447 83.12 175.378C85.1548 171.308 83.5055 166.36 79.436 164.326L33.5927 141.404C23.1232 136.169 10.3952 139.55 3.9023 149.289C-3.69673 160.687 0.177872 176.152 12.2536 182.621L91.719 225.192C107.314 233.546 125.61 235.279 142.496 230.003L167.301 222.251C177.455 219.078 188.064 218.573 198.864 218.508C200.705 218.497 202.308 217.243 202.748 215.456L204.993 206.332C205.522 204.184 204.207 202.015 202.058 201.49L198.467 200.614C198.156 200.538 197.835 200.5 197.516 200.501C184.434 200.55 174.959 202.597 162.387 206.526L137.582 214.277C124.918 218.234 111.195 216.934 99.4991 210.669L20.0336 168.098C16.5302 166.221 15.4061 161.735 17.6108 158.428Z" fill="#338EF7"/>
<path d="M336.816 76.8359C336.816 80.9609 335.728 84.5417 333.551 87.5781C331.402 90.6146 328.309 92.9779 324.27 94.668C320.259 96.3294 315.719 97.1602 310.648 97.1602C305.635 97.1602 301.066 96.7591 296.941 95.957C292.845 95.1549 288.935 93.8802 285.211 92.1328V79.8867H286.758C289.966 82.3789 293.69 84.3125 297.93 85.6875C302.198 87.0625 306.466 87.75 310.734 87.75C315.003 87.75 318.24 86.9909 320.445 85.4727C322.651 83.9258 323.754 81.7487 323.754 78.9414C323.754 77.4518 323.339 76.2344 322.508 75.2891C321.677 74.3151 320.302 73.4271 318.383 72.625C316.492 71.8229 312.281 70.6055 305.75 68.9727C300.479 67.6549 296.44 66.194 293.633 64.5898C290.826 62.9857 288.706 61.0234 287.273 58.7031C285.87 56.3542 285.168 53.5469 285.168 50.2812C285.168 46.6432 286.257 43.3346 288.434 40.3555C290.639 37.3477 293.676 35.013 297.543 33.3516C301.41 31.6901 305.621 30.8594 310.176 30.8594C318.311 30.8594 326.103 32.3203 333.551 35.2422V46.7148H332.09C329.598 44.8242 326.518 43.2773 322.852 42.0742C319.185 40.8711 315.06 40.2695 310.477 40.2695C306.81 40.2695 303.859 41.0143 301.625 42.5039C299.419 43.9935 298.316 45.9987 298.316 48.5195C298.316 50.1523 298.76 51.5273 299.648 52.6445C300.565 53.7617 301.94 54.7214 303.773 55.5234C305.607 56.2969 308.557 57.099 312.625 57.9297C317.581 58.9609 321.09 59.8203 323.152 60.5078C325.215 61.1953 327.091 61.9974 328.781 62.9141C330.471 63.8307 331.904 64.9336 333.078 66.2227C334.253 67.5117 335.169 69.0299 335.828 70.7773C336.487 72.4961 336.816 74.5156 336.816 76.8359ZM343.262 57.0273V47.875H348.676V34.082H361.137V47.875H376.52V57.0273H361.266V75.2461C361.266 78.8841 361.495 81.5339 361.953 83.1953C362.44 84.8281 363.228 86.0026 364.316 86.7188C365.434 87.4062 367.023 87.75 369.086 87.75C370.003 87.75 371.163 87.5924 372.566 87.2773C373.999 86.9336 375.059 86.5898 375.746 86.2461H376.691V95.3984C372.624 96.4297 368.986 96.9453 365.777 96.9453C359.79 96.9453 355.436 95.6419 352.715 93.0352C350.022 90.4284 348.676 86.3607 348.676 80.832V57.0273H343.262ZM430.188 96H417.684V90.1562C413.616 94.8542 408.316 97.2031 401.785 97.2031C396.457 97.2031 392.375 95.7135 389.539 92.7344C386.703 89.7266 385.285 85.3724 385.285 79.6719V47.875H397.832V75.6328C397.832 79.4714 398.52 82.3073 399.895 84.1406C401.298 85.9453 403.389 86.8477 406.168 86.8477C408.173 86.8477 410.236 86.4323 412.355 85.6016C414.475 84.7708 416.223 83.6393 417.598 82.207V47.875H430.188V96ZM488.066 96H475.52V90.2852C472.454 92.9206 469.848 94.6966 467.699 95.6133C465.551 96.5013 463.159 96.9453 460.523 96.9453C454.594 96.9453 449.924 94.7396 446.516 90.3281C443.135 85.888 441.445 79.8867 441.445 72.3242C441.445 67.4831 442.362 63.0859 444.195 59.1328C446.029 55.1797 448.578 52.1146 451.844 49.9375C455.109 47.7604 458.747 46.6719 462.758 46.6719C465.021 46.6719 467.069 46.9154 468.902 47.4023C470.764 47.8893 472.97 48.8203 475.52 50.1953V29.1406H488.066V96ZM475.262 58.3594C472.626 56.7266 469.776 55.9102 466.711 55.9102C462.672 55.9102 459.535 57.3711 457.301 60.293C455.095 63.1862 453.992 67.1536 453.992 72.1953C453.992 77.2083 454.852 81.0182 456.57 83.625C458.289 86.2318 461.039 87.5352 464.82 87.5352C466.854 87.5352 468.688 87.1771 470.32 86.4609C471.953 85.7448 473.6 84.7422 475.262 83.4531V58.3594ZM509.852 47.875C511.484 52.0286 513.547 57.5716 516.039 64.5039C518.503 71.4648 520.551 77.0221 522.184 81.1758L535.418 47.875H548.008C546.089 52.2865 538.913 69.7747 526.48 100.34L520.895 113.703H506.328L515.137 93.8086L496.746 47.875H509.852ZM570.523 40.8281H556.602V30.3867H570.523V40.8281ZM570.051 96H557.074V47.875H570.051V96ZM629.219 96H616.586V69.3594C616.586 64.9479 615.913 61.8255 614.566 59.9922C613.22 58.1589 611.072 57.2422 608.121 57.2422C606.173 57.2422 604.139 57.6576 602.02 58.4883C599.9 59.2904 598.195 60.3216 596.906 61.582V96H584.316V47.875H596.906V53.5039C598.826 51.4701 601.26 49.8086 604.211 48.5195C607.161 47.2018 610.04 46.543 612.848 46.543C618.09 46.543 622.129 48.0612 624.965 51.0977C627.801 54.1341 629.219 58.4596 629.219 64.0742V96ZM687.012 90.0703C687.012 98.2057 684.949 104.25 680.824 108.203C676.728 112.185 670.469 114.176 662.047 114.176C656.461 114.176 650.961 113.46 645.547 112.027V102.23H647.094C648.727 102.975 650.932 103.634 653.711 104.207C656.49 104.78 659.669 105.066 663.25 105.066C670.927 105.066 674.766 100.884 674.766 92.5195V89.5117C672.273 91.5742 669.753 93.0495 667.203 93.9375C664.682 94.7969 662.018 95.2266 659.211 95.2266C653.31 95.2266 648.698 93.1641 645.375 89.0391C642.052 84.8854 640.391 79.0703 640.391 71.5938C640.391 66.7526 641.307 62.4271 643.141 58.6172C644.974 54.7786 647.523 51.7852 650.789 49.6367C654.055 47.4883 657.635 46.4141 661.531 46.4141C664.109 46.4141 666.43 46.7148 668.492 47.3164C670.555 47.8893 672.66 48.849 674.809 50.1953L675.367 47.875H687.012V90.0703ZM674.422 58.4883C672.044 56.9128 669.108 56.125 665.613 56.125C661.746 56.125 658.695 57.4857 656.461 60.207C654.227 62.8997 653.109 66.6953 653.109 71.5938C653.109 81.362 656.547 86.2461 663.422 86.2461C667.146 86.2461 670.812 84.6849 674.422 81.5625V58.4883ZM767.02 51.1836C767.02 45.0534 762.422 41.9883 753.227 41.9883H745.621V62.0977H752.539C757.609 62.0977 761.29 61.2096 763.582 59.4336C765.874 57.6576 767.02 54.9076 767.02 51.1836ZM790.309 96H774.023L754.258 71.293H745.707V96H732.516V32.0195H756.965C764.499 32.0195 770.271 33.5234 774.281 36.5312C778.292 39.5104 780.297 43.7357 780.297 49.207C780.297 53.7331 779.194 57.6146 776.988 60.8516C774.811 64.0599 771.56 66.5521 767.234 68.3281L790.309 96ZM839.336 96H826.832V90.1562C822.764 94.8542 817.465 97.2031 810.934 97.2031C805.605 97.2031 801.523 95.7135 798.688 92.7344C795.852 89.7266 794.434 85.3724 794.434 79.6719V47.875H806.98V75.6328C806.98 79.4714 807.668 82.3073 809.043 84.1406C810.447 85.9453 812.538 86.8477 815.316 86.8477C817.322 86.8477 819.384 86.4323 821.504 85.6016C823.624 84.7708 825.371 83.6393 826.746 82.207V47.875H839.336V96ZM891.371 81.4336C891.371 86.2747 889.438 90.1133 885.57 92.9492C881.703 95.7852 876.475 97.2031 869.887 97.2031C866.363 97.2031 862.84 96.8594 859.316 96.1719C855.793 95.513 852.742 94.5534 850.164 93.293V82.7656H851.152C853.129 84.7135 855.779 86.2747 859.102 87.4492C862.453 88.5951 865.819 89.168 869.199 89.168C872.751 89.168 875.329 88.6237 876.934 87.5352C878.566 86.418 879.383 84.9427 879.383 83.1094C879.383 82.0208 879.168 81.1615 878.738 80.5312C878.309 79.8724 877.635 79.3424 876.719 78.9414C875.802 78.5117 874.613 78.1536 873.152 77.8672C871.691 77.5521 869.93 77.1797 867.867 76.75C863.312 75.862 859.846 74.8164 857.469 73.6133C855.12 72.3815 853.315 70.8346 852.055 68.9727C850.794 67.082 850.164 64.8047 850.164 62.1406C850.164 59.2474 851.038 56.6263 852.785 54.2773C854.561 51.8997 857.053 50.0521 860.262 48.7344C863.47 47.388 867.108 46.7148 871.176 46.7148C874.241 46.7148 877.435 47.0299 880.758 47.6602C884.081 48.2617 886.888 49.0924 889.18 50.1523V60.5938H888.148C885.656 58.7891 882.935 57.4141 879.984 56.4688C877.034 55.4948 874.04 55.0078 871.004 55.0078C868.368 55.0078 866.234 55.5234 864.602 56.5547C862.997 57.5573 862.195 58.875 862.195 60.5078C862.195 61.8255 862.496 62.8424 863.098 63.5586C863.699 64.2461 864.773 64.862 866.32 65.4062C867.867 65.9505 870.56 66.5951 874.398 67.3398C880.328 68.457 884.639 70.1185 887.332 72.3242C890.025 74.5013 891.371 77.5378 891.371 81.4336ZM940.785 81.4336C940.785 86.2747 938.852 90.1133 934.984 92.9492C931.117 95.7852 925.889 97.2031 919.301 97.2031C915.777 97.2031 912.254 96.8594 908.73 96.1719C905.207 95.513 902.156 94.5534 899.578 93.293V82.7656H900.566C902.543 84.7135 905.193 86.2747 908.516 87.4492C911.867 88.5951 915.233 89.168 918.613 89.168C922.165 89.168 924.743 88.6237 926.348 87.5352C927.98 86.418 928.797 84.9427 928.797 83.1094C928.797 82.0208 928.582 81.1615 928.152 80.5312C927.723 79.8724 927.049 79.3424 926.133 78.9414C925.216 78.5117 924.027 78.1536 922.566 77.8672C921.105 77.5521 919.344 77.1797 917.281 76.75C912.727 75.862 909.26 74.8164 906.883 73.6133C904.534 72.3815 902.729 70.8346 901.469 68.9727C900.208 67.082 899.578 64.8047 899.578 62.1406C899.578 59.2474 900.452 56.6263 902.199 54.2773C903.975 51.8997 906.467 50.0521 909.676 48.7344C912.884 47.388 916.522 46.7148 920.59 46.7148C923.655 46.7148 926.849 47.0299 930.172 47.6602C933.495 48.2617 936.302 49.0924 938.594 50.1523V60.5938H937.562C935.07 58.7891 932.349 57.4141 929.398 56.4688C926.448 55.4948 923.454 55.0078 920.418 55.0078C917.783 55.0078 915.648 55.5234 914.016 56.5547C912.411 57.5573 911.609 58.875 911.609 60.5078C911.609 61.8255 911.91 62.8424 912.512 63.5586C913.113 64.2461 914.188 64.862 915.734 65.4062C917.281 65.9505 919.974 66.5951 923.812 67.3398C929.742 68.457 934.053 70.1185 936.746 72.3242C939.439 74.5013 940.785 77.5378 940.785 81.4336ZM965.836 40.8281H951.914V30.3867H965.836V40.8281ZM965.363 96H952.387V47.875H965.363V96ZM1009.75 90.8867C1005.34 94.9831 999.767 97.0312 993.035 97.0312C988.194 97.0312 984.198 95.6849 981.047 92.9922C977.896 90.2995 976.32 86.7331 976.32 82.293C976.32 79.457 976.908 76.9935 978.082 74.9023C979.257 72.8112 981.004 71.0924 983.324 69.7461C985.673 68.3711 988.71 67.2969 992.434 66.5234C996.158 65.7214 1001.94 65.1484 1009.79 64.8047V63.043C1009.79 60.5794 1008.73 58.6745 1006.61 57.3281C1004.52 55.9531 1001.51 55.2656 997.59 55.2656C995.212 55.2656 992.964 55.4661 990.844 55.8672C988.724 56.2682 985.73 57.1133 981.863 58.4023H980.746V48.9492C983.496 48.1758 986.475 47.5742 989.684 47.1445C992.921 46.7148 995.943 46.5 998.75 46.5C1006.94 46.5 1012.9 47.832 1016.62 50.4961C1020.35 53.1602 1022.21 57.4284 1022.21 63.3008V96H1009.75V90.8867ZM1009.75 71.8945C1004.11 72.2096 999.853 72.6966 996.988 73.3555C994.124 74.0143 992.061 74.9596 990.801 76.1914C989.569 77.4232 988.953 79.1276 988.953 81.3047C988.953 83.5964 989.641 85.4154 991.016 86.7617C992.391 88.0794 994.382 88.7383 996.988 88.7383C1001.8 88.7383 1006.05 87.2773 1009.75 84.3555V71.8945ZM1080.82 96H1068.19V69.3594C1068.19 64.9479 1067.51 61.8255 1066.17 59.9922C1064.82 58.1589 1062.67 57.2422 1059.72 57.2422C1057.77 57.2422 1055.74 57.6576 1053.62 58.4883C1051.5 59.2904 1049.8 60.3216 1048.51 61.582V96H1035.92V47.875H1048.51V53.5039C1050.43 51.4701 1052.86 49.8086 1055.81 48.5195C1058.76 47.2018 1061.64 46.543 1064.45 46.543C1069.69 46.543 1073.73 48.0612 1076.57 51.0977C1079.4 54.1341 1080.82 58.4596 1080.82 64.0742V96ZM336.816 199.836C336.816 203.961 335.728 207.542 333.551 210.578C331.402 213.615 328.309 215.978 324.27 217.668C320.259 219.329 315.719 220.16 310.648 220.16C305.635 220.16 301.066 219.759 296.941 218.957C292.845 218.155 288.935 216.88 285.211 215.133V202.887H286.758C289.966 205.379 293.69 207.312 297.93 208.688C302.198 210.062 306.466 210.75 310.734 210.75C315.003 210.75 318.24 209.991 320.445 208.473C322.651 206.926 323.754 204.749 323.754 201.941C323.754 200.452 323.339 199.234 322.508 198.289C321.677 197.315 320.302 196.427 318.383 195.625C316.492 194.823 312.281 193.605 305.75 191.973C300.479 190.655 296.44 189.194 293.633 187.59C290.826 185.986 288.706 184.023 287.273 181.703C285.87 179.354 285.168 176.547 285.168 173.281C285.168 169.643 286.257 166.335 288.434 163.355C290.639 160.348 293.676 158.013 297.543 156.352C301.41 154.69 305.621 153.859 310.176 153.859C318.311 153.859 326.103 155.32 333.551 158.242V169.715H332.09C329.598 167.824 326.518 166.277 322.852 165.074C319.185 163.871 315.06 163.27 310.477 163.27C306.81 163.27 303.859 164.014 301.625 165.504C299.419 166.993 298.316 168.999 298.316 171.52C298.316 173.152 298.76 174.527 299.648 175.645C300.565 176.762 301.94 177.721 303.773 178.523C305.607 179.297 308.557 180.099 312.625 180.93C317.581 181.961 321.09 182.82 323.152 183.508C325.215 184.195 327.091 184.997 328.781 185.914C330.471 186.831 331.904 187.934 333.078 189.223C334.253 190.512 335.169 192.03 335.828 193.777C336.487 195.496 336.816 197.516 336.816 199.836ZM361.609 163.828H347.688V153.387H361.609V163.828ZM361.137 219H348.16V170.875H361.137V219ZM419.66 213.07C419.66 221.206 417.598 227.25 413.473 231.203C409.376 235.185 403.117 237.176 394.695 237.176C389.109 237.176 383.609 236.46 378.195 235.027V225.23H379.742C381.375 225.975 383.581 226.634 386.359 227.207C389.138 227.78 392.318 228.066 395.898 228.066C403.576 228.066 407.414 223.884 407.414 215.52V212.512C404.922 214.574 402.401 216.049 399.852 216.938C397.331 217.797 394.667 218.227 391.859 218.227C385.958 218.227 381.346 216.164 378.023 212.039C374.701 207.885 373.039 202.07 373.039 194.594C373.039 189.753 373.956 185.427 375.789 181.617C377.622 177.779 380.172 174.785 383.438 172.637C386.703 170.488 390.284 169.414 394.18 169.414C396.758 169.414 399.078 169.715 401.141 170.316C403.203 170.889 405.309 171.849 407.457 173.195L408.016 170.875H419.66V213.07ZM407.07 181.488C404.693 179.913 401.757 179.125 398.262 179.125C394.395 179.125 391.344 180.486 389.109 183.207C386.875 185.9 385.758 189.695 385.758 194.594C385.758 204.362 389.195 209.246 396.07 209.246C399.794 209.246 403.461 207.685 407.07 204.562V181.488ZM478.227 219H465.594V192.359C465.594 187.948 464.921 184.826 463.574 182.992C462.228 181.159 460.079 180.242 457.129 180.242C455.181 180.242 453.147 180.658 451.027 181.488C448.908 182.29 447.203 183.322 445.914 184.582V219H433.324V170.875H445.914V176.504C447.833 174.47 450.268 172.809 453.219 171.52C456.169 170.202 459.048 169.543 461.855 169.543C467.098 169.543 471.137 171.061 473.973 174.098C476.809 177.134 478.227 181.46 478.227 187.074V219ZM567.129 219H523.602V155.02H536.879V208.473H567.129V219ZM606.703 213.887C602.292 217.983 596.72 220.031 589.988 220.031C585.147 220.031 581.151 218.685 578 215.992C574.849 213.299 573.273 209.733 573.273 205.293C573.273 202.457 573.861 199.993 575.035 197.902C576.21 195.811 577.957 194.092 580.277 192.746C582.626 191.371 585.663 190.297 589.387 189.523C593.111 188.721 598.897 188.148 606.746 187.805V186.043C606.746 183.579 605.686 181.674 603.566 180.328C601.475 178.953 598.467 178.266 594.543 178.266C592.165 178.266 589.917 178.466 587.797 178.867C585.677 179.268 582.684 180.113 578.816 181.402H577.699V171.949C580.449 171.176 583.428 170.574 586.637 170.145C589.874 169.715 592.896 169.5 595.703 169.5C603.896 169.5 609.854 170.832 613.578 173.496C617.302 176.16 619.164 180.428 619.164 186.301V219H606.703V213.887ZM606.703 194.895C601.06 195.21 596.806 195.697 593.941 196.355C591.077 197.014 589.014 197.96 587.754 199.191C586.522 200.423 585.906 202.128 585.906 204.305C585.906 206.596 586.594 208.415 587.969 209.762C589.344 211.079 591.335 211.738 593.941 211.738C598.754 211.738 603.008 210.277 606.703 207.355V194.895ZM677.773 219H665.141V192.359C665.141 187.948 664.467 184.826 663.121 182.992C661.775 181.159 659.626 180.242 656.676 180.242C654.728 180.242 652.694 180.658 650.574 181.488C648.454 182.29 646.75 183.322 645.461 184.582V219H632.871V170.875H645.461V176.504C647.38 174.47 649.815 172.809 652.766 171.52C655.716 170.202 658.595 169.543 661.402 169.543C666.645 169.543 670.684 171.061 673.52 174.098C676.355 177.134 677.773 181.46 677.773 187.074V219ZM735.566 213.07C735.566 221.206 733.504 227.25 729.379 231.203C725.283 235.185 719.023 237.176 710.602 237.176C705.016 237.176 699.516 236.46 694.102 235.027V225.23H695.648C697.281 225.975 699.487 226.634 702.266 227.207C705.044 227.78 708.224 228.066 711.805 228.066C719.482 228.066 723.32 223.884 723.32 215.52V212.512C720.828 214.574 718.307 216.049 715.758 216.938C713.237 217.797 710.573 218.227 707.766 218.227C701.865 218.227 697.253 216.164 693.93 212.039C690.607 207.885 688.945 202.07 688.945 194.594C688.945 189.753 689.862 185.427 691.695 181.617C693.529 177.779 696.078 174.785 699.344 172.637C702.609 170.488 706.19 169.414 710.086 169.414C712.664 169.414 714.984 169.715 717.047 170.316C719.109 170.889 721.215 171.849 723.363 173.195L723.922 170.875H735.566V213.07ZM722.977 181.488C720.599 179.913 717.663 179.125 714.168 179.125C710.301 179.125 707.25 180.486 705.016 183.207C702.781 185.9 701.664 189.695 701.664 194.594C701.664 204.362 705.102 209.246 711.977 209.246C715.701 209.246 719.367 207.685 722.977 204.562V181.488ZM794.047 219H781.543V213.156C777.475 217.854 772.176 220.203 765.645 220.203C760.316 220.203 756.234 218.714 753.398 215.734C750.562 212.727 749.145 208.372 749.145 202.672V170.875H761.691V198.633C761.691 202.471 762.379 205.307 763.754 207.141C765.158 208.945 767.249 209.848 770.027 209.848C772.033 209.848 774.095 209.432 776.215 208.602C778.335 207.771 780.082 206.639 781.457 205.207V170.875H794.047V219ZM837.789 213.887C833.378 217.983 827.806 220.031 821.074 220.031C816.233 220.031 812.237 218.685 809.086 215.992C805.935 213.299 804.359 209.733 804.359 205.293C804.359 202.457 804.947 199.993 806.121 197.902C807.296 195.811 809.043 194.092 811.363 192.746C813.712 191.371 816.749 190.297 820.473 189.523C824.197 188.721 829.983 188.148 837.832 187.805V186.043C837.832 183.579 836.772 181.674 834.652 180.328C832.561 178.953 829.553 178.266 825.629 178.266C823.251 178.266 821.003 178.466 818.883 178.867C816.763 179.268 813.77 180.113 809.902 181.402H808.785V171.949C811.535 171.176 814.514 170.574 817.723 170.145C820.96 169.715 823.982 169.5 826.789 169.5C834.982 169.5 840.94 170.832 844.664 173.496C848.388 176.16 850.25 180.428 850.25 186.301V219H837.789V213.887ZM837.789 194.895C832.146 195.21 827.892 195.697 825.027 196.355C822.163 197.014 820.1 197.96 818.84 199.191C817.608 200.423 816.992 202.128 816.992 204.305C816.992 206.596 817.68 208.415 819.055 209.762C820.43 211.079 822.421 211.738 825.027 211.738C829.84 211.738 834.094 210.277 837.789 207.355V194.895ZM908.215 213.07C908.215 221.206 906.152 227.25 902.027 231.203C897.931 235.185 891.672 237.176 883.25 237.176C877.664 237.176 872.164 236.46 866.75 235.027V225.23H868.297C869.93 225.975 872.135 226.634 874.914 227.207C877.693 227.78 880.872 228.066 884.453 228.066C892.13 228.066 895.969 223.884 895.969 215.52V212.512C893.477 214.574 890.956 216.049 888.406 216.938C885.885 217.797 883.221 218.227 880.414 218.227C874.513 218.227 869.901 216.164 866.578 212.039C863.255 207.885 861.594 202.07 861.594 194.594C861.594 189.753 862.51 185.427 864.344 181.617C866.177 177.779 868.727 174.785 871.992 172.637C875.258 170.488 878.839 169.414 882.734 169.414C885.312 169.414 887.633 169.715 889.695 170.316C891.758 170.889 893.863 171.849 896.012 173.195L896.57 170.875H908.215V213.07ZM895.625 181.488C893.247 179.913 890.311 179.125 886.816 179.125C882.949 179.125 879.898 180.486 877.664 183.207C875.43 185.9 874.312 189.695 874.312 194.594C874.312 204.362 877.75 209.246 884.625 209.246C888.349 209.246 892.016 207.685 895.625 204.562V181.488ZM931.762 196.957C931.876 201.569 933.366 205.207 936.23 207.871C939.095 210.507 942.977 211.824 947.875 211.824C950.51 211.824 953.389 211.337 956.512 210.363C959.663 209.389 962.255 208.129 964.289 206.582H965.621V216.164C962.212 217.625 958.947 218.656 955.824 219.258C952.73 219.859 949.436 220.16 945.941 220.16C937.634 220.16 931.103 217.954 926.348 213.543C921.621 209.132 919.258 203.03 919.258 195.238C919.258 187.361 921.549 181.102 926.133 176.461C930.745 171.82 936.904 169.5 944.609 169.5C951.628 169.5 957.042 171.462 960.852 175.387C964.661 179.283 966.566 184.783 966.566 191.887V196.957H931.762ZM954.191 189.523C954.134 185.771 953.203 182.892 951.398 180.887C949.594 178.853 947.059 177.836 943.793 177.836C940.27 177.836 937.448 178.91 935.328 181.059C933.237 183.207 932.077 186.029 931.848 189.523H954.191Z" fill="#338EF7"/>
</g>
<defs>
<clipPath id="clip0_3723_2612">
<rect width="1209" height="261" fill="white"/>
</clipPath>
</defs>
</svg>
