<svg width="100" height="115" viewBox="0 0 100 115" fill="none" xmlns="http://www.w3.org/2000/svg">
<g clip-path="url(#clip0_3623_2590)">
<path fill-rule="evenodd" clip-rule="evenodd" d="M7.03902 19.5532L45.4364 0.312486C46.2683 -0.104162 47.2467 -0.104162 48.0786 0.312486L86.4759 19.5532C88.6532 20.6441 88.6532 23.7575 86.4759 24.8484L73.3408 31.4305V47.3616C73.3408 55.8389 60.9824 62.1622 46.7575 62.1622C32.533 62.1622 20.1746 55.8389 20.1746 47.3616V31.4305L7.03902 24.8484C4.86199 23.7575 4.86199 20.6441 7.03902 19.5532ZM26.0819 34.3906V47.3616C26.0819 51.4892 35.3712 56.2422 46.7575 56.2422C58.144 56.2422 67.4332 51.4892 67.4332 47.3616V34.3906L48.0786 44.089C47.2467 44.5059 46.2683 44.5059 45.4364 44.089L26.0819 34.3906ZM79.2478 35.5212V50.3216C79.2478 51.9568 80.5705 53.2816 82.2013 53.2816C83.8327 53.2816 85.1554 51.9568 85.1554 50.3216V35.5212C85.1554 33.8864 83.8327 32.5611 82.2013 32.5611C80.5705 32.5611 79.2478 33.8864 79.2478 35.5212ZM46.7575 6.26962L78.5505 22.2008L46.7575 38.1319L14.9645 22.2008L46.7575 6.26962Z" fill="#338EF7" stroke="#338EF7"/>
<path fill-rule="evenodd" clip-rule="evenodd" d="M99.5977 80.2899C94.9734 71.0223 85.7529 66.4883 76.7453 66.4883C69.9388 66.4883 64.4361 69.9915 60.0539 72.944C58.7815 73.8018 57.295 74.258 55.7772 74.258H41.8526C36.4996 74.258 32.1602 78.6061 32.1602 83.9699C32.1602 89.3337 36.4996 93.6818 41.8526 93.6818H57.3604C59.5015 93.6818 61.2377 91.9423 61.2377 89.7969C61.2377 87.6515 59.5015 85.9121 57.3604 85.9121H41.8526C40.782 85.9121 39.9141 85.0423 39.9141 83.9699C39.9141 82.8969 40.782 82.0272 41.8526 82.0272H55.7772C58.8523 82.0272 61.842 81.1018 64.3804 79.3915C68.8447 76.384 72.5577 74.258 76.7453 74.258C83.2458 74.258 89.5334 77.4937 92.6626 83.7645C94.8664 88.1813 86.9015 114.826 97.4907 105.866C99.7788 103.929 100.556 82.2094 99.5977 80.2899Z" fill="#338EF7"/>
<path d="M8.29335 79.6654C9.18043 78.3367 10.9193 77.8757 12.3497 78.5897L33.9378 89.367C35.8542 90.3238 38.1842 89.5481 39.1424 87.6351C40.1006 85.7216 39.3239 83.3951 37.4075 82.4384L15.8194 71.6611C10.8892 69.2 4.89545 70.7892 1.83789 75.3681C-1.7406 80.7275 0.0839945 87.9989 5.77059 91.0405L43.1917 111.056C50.5357 114.984 59.1513 115.799 67.1032 113.318L78.7843 109.674C83.4978 108.203 88.4189 107.951 93.4297 107.916C94.4249 107.909 95.2913 107.231 95.5292 106.265L96.4659 102.464C96.7524 101.303 96.0411 100.129 94.8789 99.8459L93.4924 99.5086C93.3249 99.4676 93.1519 99.4465 92.9794 99.4475C86.8362 99.474 82.3794 100.436 76.4697 102.28L64.7892 105.924C58.8254 107.785 52.3632 107.174 46.8557 104.228L9.43432 84.2124C7.78448 83.3297 7.25513 81.22 8.29335 79.6654Z" fill="#338EF7"/>
</g>
<defs>
<clipPath id="clip0_3623_2590">
<rect width="100" height="114.595" fill="white"/>
</clipPath>
</defs>
</svg>
