<svg width="500" height="105" viewBox="0 0 500 105" fill="none" xmlns="http://www.w3.org/2000/svg">
<path d="M74.2199 42.4038V10.6907H81.302V29.4075C82.3988 27.76 83.5714 26.0515 84.8204 24.2821C86.0693 22.4821 87.3181 20.7583 88.5671 19.1109C89.8466 17.433 91.0954 15.8618 92.3139 14.3974C93.5322 12.933 94.6441 11.6975 95.6494 10.6907H101.452V42.4038H94.4157V21.6278C91.7351 24.7701 89.2068 28.1107 86.8308 31.6498C84.4548 35.1887 82.2464 38.7735 80.2054 42.4038H74.2199ZM107.157 19.1109C108.223 18.7143 109.457 18.394 110.858 18.1499C112.259 17.9059 113.783 17.7838 115.427 17.7838C116.676 17.7838 117.895 17.9059 119.083 18.1499C120.271 18.3635 121.322 18.7448 122.235 19.294C123.18 19.8126 123.926 20.5144 124.474 21.399C125.053 22.2533 125.343 23.3363 125.343 24.6481C125.343 25.8379 125.069 26.86 124.52 27.7141C123.972 28.538 123.195 29.2243 122.19 29.7736C123.53 30.3531 124.52 31.1159 125.16 32.0615C125.8 33.0074 126.119 34.2124 126.119 35.6768C126.119 37.0497 125.83 38.2089 125.251 39.1547C124.672 40.07 123.896 40.8173 122.921 41.3971C121.946 41.9768 120.834 42.3885 119.585 42.6326C118.336 42.9072 117.042 43.0445 115.702 43.0445C114.91 43.0445 114.087 42.9987 113.234 42.9072C112.381 42.8463 111.544 42.7394 110.721 42.587C109.929 42.4648 109.168 42.297 108.437 42.0836C107.706 41.87 107.051 41.6412 106.472 41.3971L107.706 36.0887C108.345 36.3328 109.32 36.6226 110.63 36.9582C111.97 37.2938 113.478 37.4616 115.153 37.4616C117.895 37.4616 119.266 36.6989 119.266 35.1734C119.266 34.6548 119.159 34.2429 118.946 33.9378C118.732 33.6022 118.443 33.343 118.078 33.1598C117.743 32.9769 117.347 32.8549 116.89 32.7937C116.433 32.7327 115.976 32.7023 115.519 32.7023H110.173V27.8515H115.565C116.661 27.8515 117.423 27.638 117.849 27.2108C118.306 26.7532 118.534 26.2347 118.534 25.6549C118.534 25.0752 118.276 24.5567 117.758 24.0989C117.27 23.6109 116.356 23.3667 115.016 23.3667C113.676 23.3667 112.412 23.4889 111.224 23.7328C110.036 23.977 109.076 24.2057 108.345 24.4194L107.157 19.1109ZM152.26 18.333C150.89 22.9702 149.458 27.3176 147.965 31.3752C146.473 35.4327 144.843 39.3683 143.076 43.1819C142.437 44.5547 141.797 45.714 141.157 46.6598C140.518 47.6361 139.817 48.4292 139.055 49.0394C138.294 49.6799 137.426 50.1377 136.451 50.4123C135.507 50.7172 134.395 50.8699 133.116 50.8699C132.049 50.8699 131.059 50.7631 130.146 50.5494C129.262 50.3665 128.531 50.1528 127.952 49.9089L129.14 44.4631C129.841 44.7072 130.466 44.875 131.014 44.9664C131.562 45.0581 132.141 45.1038 132.75 45.1038C133.969 45.1038 134.898 44.7682 135.537 44.097C136.207 43.4565 136.771 42.5563 137.228 41.3971C135.674 38.3462 134.121 34.9295 132.567 31.1464C131.014 27.3329 129.552 23.0616 128.181 18.333H135.4C135.705 19.5228 136.055 20.8193 136.451 22.2228C136.878 23.5955 137.319 24.9989 137.776 26.4329C138.233 27.8363 138.69 29.2092 139.147 30.5514C139.634 31.8937 140.091 33.1142 140.518 34.2124C140.914 33.1142 141.325 31.8937 141.751 30.5514C142.178 29.2092 142.589 27.8363 142.985 26.4329C143.411 24.9989 143.807 23.5955 144.173 22.2228C144.569 20.8193 144.919 19.5228 145.224 18.333H152.26ZM161.576 18.333V26.1125C161.576 27.2719 161.941 28.0802 162.672 28.538C163.434 28.9955 164.485 29.2243 165.825 29.2243C166.099 29.2243 166.526 29.2092 167.105 29.1785C167.683 29.1175 168.201 29.0565 168.658 28.9955V18.333H175.466V42.4038H168.658V34.487C168.049 34.5785 167.379 34.6548 166.648 34.7158C165.947 34.7768 165.414 34.8073 165.048 34.8073C163.495 34.8073 162.078 34.67 160.799 34.3954C159.55 34.0905 158.469 33.6176 157.555 32.9769C156.672 32.3057 155.986 31.4208 155.499 30.3226C155.011 29.1938 154.768 27.8058 154.768 26.1583V18.333H161.576ZM180.737 30.5514C180.737 28.4158 181.057 26.5549 181.697 24.9684C182.367 23.3516 183.235 22.0092 184.301 20.9414C185.367 19.8736 186.586 19.0652 187.956 18.516C189.358 17.9669 190.789 17.6923 192.252 17.6923C195.663 17.6923 198.359 18.7448 200.339 20.85C202.319 22.9245 203.308 25.9905 203.308 30.048C203.308 30.4447 203.294 30.887 203.264 31.3752C203.232 31.8328 203.202 32.2447 203.171 32.6108H187.728C187.88 34.0141 188.535 35.1278 189.693 35.9514C190.85 36.775 192.404 37.187 194.353 37.187C195.602 37.187 196.821 37.0801 198.009 36.8667C199.227 36.6226 200.217 36.3328 200.979 35.9972L201.893 41.5344C201.527 41.7175 201.04 41.9005 200.43 42.0836C199.821 42.2665 199.136 42.4192 198.374 42.5412C197.643 42.6936 196.851 42.8158 195.998 42.9072C195.145 42.9987 194.292 43.0445 193.44 43.0445C191.277 43.0445 189.388 42.7241 187.774 42.0836C186.19 41.4429 184.865 40.5734 183.799 39.4752C182.763 38.3462 181.986 37.0192 181.468 35.4938C180.981 33.9683 180.737 32.321 180.737 30.5514ZM196.729 27.9429C196.699 27.3634 196.592 26.799 196.409 26.2498C196.257 25.7006 195.998 25.2125 195.633 24.7855C195.298 24.3584 194.856 24.0074 194.308 23.7328C193.79 23.4584 193.135 23.3211 192.343 23.3211C191.581 23.3211 190.926 23.4584 190.378 23.7328C189.83 23.977 189.373 24.3125 189.007 24.7396C188.642 25.1667 188.352 25.6701 188.139 26.2498C187.956 26.799 187.819 27.3634 187.728 27.9429H196.729ZM229.262 42.4038H222.454V32.8854H215.371V42.4038H208.562V18.333H215.371V27.3024H222.454V18.333H229.262V42.4038ZM257.534 18.333V42.4038H250.679C250.679 40.8785 250.696 39.3683 250.726 37.8733C250.756 36.348 250.786 34.9446 250.817 33.6632C250.849 32.382 250.879 31.2684 250.909 30.3226C250.97 29.3463 251 28.6295 251 28.1719C250.117 29.4226 249.234 30.6887 248.351 31.9701C247.466 33.2515 246.613 34.5175 245.79 35.7683C245 36.9887 244.238 38.1633 243.506 39.292C242.806 40.4208 242.181 41.458 241.633 42.4038H235.647V18.333H242.456C242.456 19.8584 242.442 21.3227 242.409 22.726C242.409 24.0989 242.395 25.3498 242.365 26.4786C242.335 27.6073 242.304 28.599 242.272 29.4531C242.242 30.277 242.228 30.9175 242.228 31.3752C244.054 28.6904 245.73 26.2803 247.254 24.1448C248.806 22.0092 250.314 20.0719 251.776 18.333H257.534ZM262.794 30.5514C262.794 28.4158 263.115 26.5549 263.754 24.9684C264.425 23.3516 265.292 22.0092 266.359 20.9414C267.425 19.8736 268.643 19.0652 270.014 18.516C271.415 17.9669 272.847 17.6923 274.308 17.6923C277.722 17.6923 280.417 18.7448 282.397 20.85C284.377 22.9245 285.367 25.9905 285.367 30.048C285.367 30.4447 285.351 30.887 285.321 31.3752C285.29 31.8328 285.26 32.2447 285.23 32.6108H269.786C269.937 34.0141 270.593 35.1278 271.75 35.9514C272.907 36.775 274.462 37.187 276.411 37.187C277.659 37.187 278.879 37.0801 280.067 36.8667C281.284 36.6226 282.274 36.3328 283.036 35.9972L283.95 41.5344C283.585 41.7175 283.097 41.9005 282.488 42.0836C281.879 42.2665 281.194 42.4192 280.431 42.5412C279.702 42.6936 278.909 42.8158 278.056 42.9072C277.204 42.9987 276.351 43.0445 275.498 43.0445C273.335 43.0445 271.446 42.7241 269.831 42.0836C268.248 41.4429 266.923 40.5734 265.857 39.4752C264.821 38.3462 264.044 37.0192 263.526 35.4938C263.038 33.9683 262.794 32.321 262.794 30.5514ZM278.786 27.9429C278.756 27.3634 278.649 26.799 278.468 26.2498C278.314 25.7006 278.056 25.2125 277.692 24.7855C277.355 24.3584 276.913 24.0074 276.365 23.7328C275.847 23.4584 275.194 23.3211 274.401 23.3211C273.639 23.3211 272.984 23.4584 272.435 23.7328C271.887 23.977 271.431 24.3125 271.064 24.7396C270.7 25.1667 270.411 25.6701 270.198 26.2498C270.014 26.799 269.877 27.3634 269.786 27.9429H278.786ZM316.996 30.5514C316.996 28.4463 316.524 26.7685 315.579 25.5176C314.635 24.2362 313.234 23.5955 311.375 23.5955C310.766 23.5955 310.204 23.6262 309.685 23.6872C309.167 23.7177 308.74 23.7633 308.405 23.8245V36.1343C308.833 36.409 309.381 36.6377 310.05 36.8209C310.752 37.0038 311.452 37.0955 312.153 37.0955C315.381 37.0955 316.996 34.9141 316.996 30.5514ZM323.942 30.3684C323.942 32.2293 323.712 33.9227 323.256 35.448C322.798 36.9733 322.129 38.2852 321.244 39.3835C320.361 40.4817 319.264 41.3361 317.956 41.9463C316.645 42.5563 315.137 42.8614 313.431 42.8614C312.488 42.8614 311.605 42.7699 310.782 42.587C309.96 42.4038 309.167 42.1446 308.405 41.809V50.8699H301.597V19.1567C302.208 18.9736 302.907 18.8058 303.7 18.6533C304.492 18.4702 305.314 18.3177 306.167 18.1957C307.05 18.0737 307.933 17.9821 308.817 17.9211C309.73 17.8296 310.599 17.7838 311.421 17.7838C313.401 17.7838 315.167 18.0889 316.722 18.6991C318.274 19.2787 319.585 20.1177 320.651 21.2161C321.718 22.2838 322.524 23.5955 323.073 25.1515C323.651 26.7074 323.942 28.4463 323.942 30.3684ZM350.512 18.333C349.141 22.9702 347.71 27.3176 346.216 31.3752C344.724 35.4327 343.095 39.3683 341.327 43.1819C340.688 44.5547 340.048 45.714 339.407 46.6598C338.768 47.6361 338.069 48.4292 337.306 49.0394C336.544 49.6799 335.677 50.1377 334.702 50.4123C333.758 50.7172 332.645 50.8699 331.367 50.8699C330.3 50.8699 329.31 50.7631 328.397 50.5494C327.512 50.3665 326.782 50.1528 326.204 49.9089L327.391 44.4631C328.093 44.7072 328.716 44.875 329.264 44.9664C329.812 45.0581 330.391 45.1038 331 45.1038C332.22 45.1038 333.149 44.7682 333.788 44.097C334.458 43.4565 335.022 42.5563 335.478 41.3971C333.925 38.3462 332.371 34.9295 330.819 31.1464C329.264 27.3329 327.802 23.0616 326.431 18.333H333.651C333.956 19.5228 334.306 20.8193 334.702 22.2228C335.129 23.5955 335.571 24.9989 336.026 26.4329C336.484 27.8363 336.942 29.2092 337.397 30.5514C337.885 31.8937 338.343 33.1142 338.768 34.2124C339.165 33.1142 339.577 31.8937 340.002 30.5514C340.429 29.2092 340.841 27.8363 341.236 26.4329C341.661 24.9989 342.058 23.5955 342.423 22.2228C342.821 20.8193 343.169 19.5228 343.474 18.333H350.512ZM353.018 30.3684C353.018 28.6295 353.292 26.9973 353.841 25.4718C354.419 23.916 355.242 22.5736 356.308 21.4448C357.375 20.2854 358.669 19.3702 360.192 18.6991C361.716 18.0279 363.452 17.6923 365.401 17.6923C366.681 17.6923 367.853 17.8143 368.919 18.0584C369.986 18.2719 371.022 18.5923 372.026 19.0194L370.611 24.465C369.97 24.2211 369.27 24.0074 368.508 23.8245C367.746 23.6414 366.893 23.5499 365.95 23.5499C363.939 23.5499 362.431 24.1752 361.425 25.4262C360.452 26.6769 359.964 28.3244 359.964 30.3684C359.964 32.5345 360.421 34.2124 361.335 35.4022C362.278 36.5921 363.909 37.187 366.224 37.187C367.046 37.187 367.929 37.1106 368.873 36.9582C369.819 36.8055 370.685 36.5616 371.478 36.226L372.438 41.809C371.645 42.1446 370.655 42.4343 369.468 42.6785C368.28 42.9224 366.97 43.0445 365.538 43.0445C363.345 43.0445 361.456 42.7241 359.873 42.0836C358.288 41.4124 356.978 40.5124 355.944 39.3835C354.938 38.2547 354.191 36.9277 353.704 35.4022C353.248 33.8463 353.018 32.1684 353.018 30.3684ZM375.865 30.3684C375.865 28.6295 376.139 26.9973 376.688 25.4718C377.266 23.916 378.089 22.5736 379.155 21.4448C380.22 20.2854 381.514 19.3702 383.038 18.6991C384.56 18.0279 386.298 17.6923 388.248 17.6923C389.526 17.6923 390.7 17.8143 391.766 18.0584C392.831 18.2719 393.867 18.5923 394.873 19.0194L393.456 24.465C392.817 24.2211 392.115 24.0074 391.355 23.8245C390.593 23.6414 389.74 23.5499 388.794 23.5499C386.784 23.5499 385.276 24.1752 384.272 25.4262C383.296 26.6769 382.81 28.3244 382.81 30.3684C382.81 32.5345 383.266 34.2124 384.181 35.4022C385.125 36.5921 386.754 37.187 389.069 37.187C389.891 37.187 390.776 37.1106 391.72 36.9582C392.663 36.8055 393.532 36.5616 394.325 36.226L395.284 41.809C394.492 42.1446 393.502 42.4343 392.314 42.6785C391.125 42.9224 389.817 43.0445 388.385 43.0445C386.192 43.0445 384.302 42.7241 382.718 42.0836C381.135 41.4124 379.825 40.5124 378.788 39.3835C377.784 38.2547 377.036 36.9277 376.55 35.4022C376.093 33.8463 375.865 32.1684 375.865 30.3684ZM406.661 26.7532C407.331 26.1125 408.032 25.4108 408.762 24.6481C409.524 23.8855 410.256 23.138 410.956 22.4058C411.657 21.6431 412.327 20.911 412.966 20.2093C413.607 19.5075 414.169 18.8821 414.657 18.333H422.927C422.319 18.9736 421.556 19.7668 420.643 20.7127C419.76 21.6583 418.814 22.6499 417.81 23.6872C416.804 24.694 415.784 25.7006 414.748 26.7074C413.744 27.7141 412.784 28.6141 411.869 29.4075C412.784 30.1092 413.758 30.9786 414.794 32.0159C415.831 33.0532 416.835 34.1666 417.81 35.3565C418.814 36.5463 419.76 37.7513 420.643 38.9718C421.556 40.192 422.333 41.3361 422.974 42.4038H415.206C414.657 41.5802 414.032 40.7259 413.333 39.8412C412.631 38.9259 411.899 38.0411 411.139 37.187C410.377 36.3021 409.601 35.4785 408.808 34.7158C408.046 33.9532 407.331 33.2971 406.661 32.7481V42.4038H399.853V18.333H406.661V26.7532ZM447.456 30.3226C447.456 32.2142 447.181 33.9532 446.633 35.5395C446.085 37.0955 445.292 38.4379 444.256 39.5666C443.22 40.6649 441.972 41.519 440.51 42.1292C439.079 42.7394 437.464 43.0445 435.665 43.0445C433.899 43.0445 432.284 42.7394 430.823 42.1292C429.391 41.519 428.157 40.6649 427.121 39.5666C426.087 38.4379 425.278 37.0955 424.7 35.5395C424.121 33.9532 423.833 32.2142 423.833 30.3226C423.833 28.4312 424.121 26.7074 424.7 25.1515C425.308 23.5955 426.131 22.2685 427.167 21.1702C428.234 20.0719 429.482 19.2177 430.913 18.6075C432.377 17.9974 433.96 17.6923 435.665 17.6923C437.403 17.6923 438.986 17.9974 440.417 18.6075C441.881 19.2177 443.129 20.0719 444.165 21.1702C445.2 22.2685 446.008 23.5955 446.587 25.1515C447.165 26.7074 447.456 28.4312 447.456 30.3226ZM440.51 30.3226C440.51 28.2175 440.083 26.57 439.23 25.3803C438.407 24.1601 437.22 23.5499 435.665 23.5499C434.113 23.5499 432.909 24.1601 432.056 25.3803C431.204 26.57 430.776 28.2175 430.776 30.3226C430.776 32.4276 431.204 34.1056 432.056 35.3565C432.909 36.5767 434.113 37.187 435.665 37.187C437.22 37.187 438.407 36.5767 439.23 35.3565C440.083 34.1056 440.51 32.4276 440.51 30.3226ZM469.772 23.916H459.536V42.4038H452.728V18.333H469.772V23.916ZM495.913 30.3226C495.913 32.2142 495.639 33.9532 495.091 35.5395C494.542 37.0955 493.75 38.4379 492.714 39.5666C491.679 40.6649 490.429 41.519 488.968 42.1292C487.536 42.7394 485.921 43.0445 484.125 43.0445C482.357 43.0445 480.744 42.7394 479.28 42.1292C477.849 41.519 476.615 40.6649 475.581 39.5666C474.544 38.4379 473.738 37.0955 473.159 35.5395C472.581 33.9532 472.29 32.2142 472.29 30.3226C472.29 28.4312 472.581 26.7074 473.159 25.1515C473.768 23.5955 474.591 22.2685 475.625 21.1702C476.692 20.0719 477.941 19.2177 479.373 18.6075C480.835 17.9974 482.419 17.6923 484.125 17.6923C485.861 17.6923 487.446 17.9974 488.877 18.6075C490.339 19.2177 491.587 20.0719 492.623 21.1702C493.659 22.2685 494.466 23.5955 495.044 25.1515C495.623 26.7074 495.913 28.4312 495.913 30.3226ZM488.968 30.3226C488.968 28.2175 488.542 26.57 487.688 25.3803C486.867 24.1601 485.677 23.5499 484.125 23.5499C482.571 23.5499 481.367 24.1601 480.514 25.3803C479.661 26.57 479.236 28.2175 479.236 30.3226C479.236 32.4276 479.661 34.1056 480.514 35.3565C481.367 36.5767 482.571 37.187 484.125 37.187C485.677 37.187 486.867 36.5767 487.688 35.3565C488.542 34.1056 488.968 32.4276 488.968 30.3226ZM71.0214 94.9038C72.5445 92.4327 74.1133 90.1599 75.7276 88.0853C77.3421 86.0107 79.0631 83.9972 80.8909 82.0448C78.9718 80.0617 77.2203 78.1244 75.6363 76.2328C74.0828 74.3109 72.6968 72.511 71.4784 70.833H79.4288C80.2208 71.9618 81.1651 73.2736 82.2617 74.7685C83.3887 76.2328 84.8508 78.0939 86.648 80.3514V70.833H93.2734V80.3514C95.1314 78.1244 96.6089 76.2633 97.7054 74.7685C98.802 73.2431 99.7464 71.9313 100.538 70.833H108.397C107.27 72.572 105.945 74.3719 104.422 76.2328C102.899 78.0635 101.117 79.9854 99.0762 81.9989C100.173 83.1582 101.148 84.2564 102 85.2937C102.884 86.3005 103.706 87.3073 104.468 88.3141C105.26 89.3209 106.006 90.3733 106.707 91.4718C107.407 92.5395 108.139 93.6834 108.9 94.9038H101.315C99.0304 91.4564 96.35 87.826 93.2734 84.0125V94.9038H86.648V84.0125C85.0946 86.0871 83.6171 88.0395 82.2159 89.8701C80.8147 91.7005 79.6115 93.3785 78.6062 94.9038H71.0214ZM110.772 83.0514C110.772 80.9158 111.091 79.0549 111.731 77.4684C112.401 75.8516 113.269 74.5092 114.335 73.4414C115.402 72.3737 116.62 71.5652 117.991 71.0159C119.392 70.4669 120.824 70.1923 122.286 70.1923C125.698 70.1923 128.393 71.2449 130.373 73.35C132.353 75.4245 133.343 78.4905 133.343 82.548C133.343 82.9447 133.328 83.387 133.298 83.8752C133.267 84.3328 133.237 84.7447 133.206 85.1108H117.762C117.915 86.5141 118.57 87.6277 119.727 88.4514C120.885 89.275 122.438 89.687 124.388 89.687C125.637 89.687 126.855 89.5801 128.043 89.3667C129.261 89.1226 130.251 88.8328 131.013 88.4972L131.927 94.0344C131.561 94.2175 131.074 94.4004 130.465 94.5836C129.855 94.7665 129.17 94.9192 128.409 95.0411C127.678 95.1936 126.885 95.3158 126.033 95.4072C125.18 95.4987 124.327 95.5445 123.474 95.5445C121.311 95.5445 119.423 95.2241 117.808 94.5836C116.224 93.9429 114.899 93.0734 113.833 91.9751C112.797 90.8462 112.02 89.5192 111.503 87.9938C111.015 86.4683 110.772 84.821 110.772 83.0514ZM126.764 80.4429C126.733 79.8634 126.627 79.299 126.444 78.7498C126.292 78.2006 126.033 77.7125 125.667 77.2854C125.332 76.8584 124.89 76.5074 124.342 76.2328C123.824 75.9584 123.169 75.8211 122.377 75.8211C121.616 75.8211 120.961 75.9584 120.412 76.2328C119.864 76.4769 119.407 76.8125 119.042 77.2396C118.676 77.6667 118.387 78.1701 118.174 78.7498C117.991 79.299 117.854 79.8634 117.762 80.4429H126.764ZM137.455 82.8684C137.455 81.1295 137.729 79.4973 138.277 77.9718C138.856 76.416 139.679 75.0736 140.745 73.9448C141.811 72.7854 143.105 71.8703 144.628 71.1991C146.152 70.5279 147.888 70.1923 149.837 70.1923C151.117 70.1923 152.29 70.3143 153.356 70.5584C154.422 70.772 155.457 71.0923 156.463 71.5193L155.046 76.965C154.406 76.7211 153.706 76.5074 152.944 76.3245C152.183 76.1413 151.33 76.0499 150.386 76.0499C148.375 76.0499 146.867 76.6752 145.862 77.9261C144.887 79.1769 144.4 80.8243 144.4 82.8684C144.4 85.0344 144.857 86.7124 145.771 87.9022C146.715 89.0921 148.345 89.687 150.66 89.687C151.482 89.687 152.366 89.6106 153.31 89.4582C154.254 89.3055 155.122 89.0616 155.914 88.726L156.874 94.309C156.082 94.6446 155.092 94.9343 153.904 95.1785C152.716 95.4224 151.406 95.5445 149.974 95.5445C147.781 95.5445 145.893 95.2241 144.309 94.5836C142.725 93.9124 141.415 93.0124 140.379 91.8835C139.374 90.7547 138.628 89.4277 138.14 87.9022C137.683 86.3463 137.455 84.6684 137.455 82.8684ZM181.319 76.416H173.643V94.9038H166.835V76.416H159.158V70.833H181.319V76.416ZM207.929 82.8226C207.929 84.7142 207.655 86.4532 207.107 88.0395C206.558 89.5955 205.766 90.9379 204.732 92.0666C203.696 93.1649 202.446 94.019 200.984 94.6292C199.553 95.2394 197.938 95.5445 196.141 95.5445C194.374 95.5445 192.76 95.2394 191.298 94.6292C189.866 94.019 188.632 93.1649 187.597 92.0666C186.561 90.9379 185.754 89.5955 185.175 88.0395C184.596 86.4532 184.307 84.7142 184.307 82.8226C184.307 80.9312 184.596 79.2074 185.175 77.6515C185.784 76.0955 186.607 74.7685 187.642 73.6702C188.708 72.572 189.957 71.7176 191.389 71.1076C192.851 70.4974 194.435 70.1923 196.141 70.1923C197.877 70.1923 199.461 70.4974 200.893 71.1076C202.355 71.7176 203.605 72.572 204.639 73.6702C205.675 74.7685 206.482 76.0955 207.06 77.6515C207.641 79.2074 207.929 80.9312 207.929 82.8226ZM200.984 82.8226C200.984 80.7175 200.558 79.07 199.705 77.8803C198.882 76.6601 197.695 76.0499 196.141 76.0499C194.587 76.0499 193.384 76.6601 192.531 77.8803C191.678 79.07 191.252 80.7175 191.252 82.8226C191.252 84.9276 191.678 86.6056 192.531 87.8565C193.384 89.0767 194.587 89.687 196.141 89.687C197.695 89.687 198.882 89.0767 199.705 87.8565C200.558 86.6056 200.984 84.9276 200.984 82.8226ZM220.012 89.8701C220.437 89.9311 221.002 89.9921 221.702 90.053C222.433 90.0835 223.103 90.0989 223.712 90.0989C225.236 90.0989 226.423 89.9157 227.276 89.5496C228.129 89.1531 228.556 88.4514 228.556 87.4446C228.556 86.4683 228.159 85.7971 227.367 85.431C226.607 85.0344 225.48 84.8362 223.986 84.8362H220.012V89.8701ZM223.849 80.26C224.976 80.26 225.891 80.1227 226.591 79.8481C227.292 79.5429 227.641 78.9024 227.641 77.9261C227.641 77.0108 227.246 76.3855 226.454 76.0499C225.661 75.7143 224.627 75.5465 223.347 75.5465C222.921 75.5465 222.357 75.577 221.657 75.638C220.986 75.6684 220.437 75.7143 220.012 75.7753V80.26H223.849ZM223.621 95.3614C222.768 95.3614 221.855 95.3309 220.879 95.2699C219.905 95.2089 218.946 95.1175 218 94.9953C217.056 94.9038 216.157 94.797 215.304 94.6751C214.482 94.5224 213.782 94.3853 213.204 94.2631V71.1991C213.782 71.0771 214.482 70.9703 215.304 70.8786C216.157 70.7567 217.056 70.6499 218 70.5584C218.946 70.4669 219.905 70.4059 220.879 70.3754C221.855 70.3143 222.768 70.2838 223.621 70.2838C225.601 70.2838 227.262 70.4821 228.601 70.8786C229.972 71.2754 231.069 71.7939 231.891 72.4346C232.744 73.0753 233.353 73.7922 233.72 74.5855C234.085 75.3787 234.268 76.1718 234.268 76.965C234.268 78.033 234.008 79.0091 233.49 79.8939C232.972 80.7785 232.319 81.4192 231.526 81.8158C231.952 81.9989 232.379 82.2582 232.804 82.5938C233.262 82.9294 233.673 83.3413 234.038 83.8294C234.405 84.2869 234.694 84.8515 234.907 85.5227C235.151 86.1632 235.272 86.9107 235.272 87.7648C235.272 88.7411 235.075 89.687 234.679 90.6023C234.312 91.5174 233.673 92.3259 232.76 93.0276C231.845 93.7293 230.643 94.2936 229.149 94.7207C227.657 95.148 225.814 95.3614 223.621 95.3614ZM262.992 82.8226C262.992 84.7142 262.718 86.4532 262.169 88.0395C261.621 89.5955 260.829 90.9379 259.792 92.0666C258.758 93.1649 257.508 94.019 256.046 94.6292C254.615 95.2394 253 95.5445 251.204 95.5445C249.437 95.5445 247.823 95.2394 246.361 94.6292C244.927 94.019 243.696 93.1649 242.659 92.0666C241.623 90.9379 240.817 89.5955 240.238 88.0395C239.659 86.4532 239.369 84.7142 239.369 82.8226C239.369 80.9312 239.659 79.2074 240.238 77.6515C240.847 76.0955 241.669 74.7685 242.704 73.6702C243.77 72.572 245.02 71.7176 246.452 71.1076C247.913 70.4974 249.498 70.1923 251.204 70.1923C252.939 70.1923 254.524 70.4974 255.956 71.1076C257.417 71.7176 258.665 72.572 259.702 73.6702C260.738 74.7685 261.544 76.0955 262.123 77.6515C262.702 79.2074 262.992 80.9312 262.992 82.8226ZM256.046 82.8226C256.046 80.7175 255.621 79.07 254.768 77.8803C253.946 76.6601 252.756 76.0499 251.204 76.0499C249.649 76.0499 248.446 76.6601 247.593 77.8803C246.74 79.07 246.314 80.7175 246.314 82.8226C246.314 84.9276 246.74 86.6056 247.593 87.8565C248.446 89.0767 249.649 89.687 251.204 89.687C252.756 89.687 253.946 89.0767 254.768 87.8565C255.621 86.6056 256.046 84.9276 256.046 82.8226ZM285.308 76.416H275.075V94.9038H268.266V70.833H285.308V76.416ZM311.45 82.8226C311.45 84.7142 311.175 86.4532 310.627 88.0395C310.079 89.5955 309.288 90.9379 308.252 92.0666C307.216 93.1649 305.968 94.019 304.504 94.6292C303.073 95.2394 301.46 95.5445 299.661 95.5445C297.895 95.5445 296.28 95.2394 294.819 94.6292C293.387 94.019 292.153 93.1649 291.117 92.0666C290.081 90.9379 289.274 89.5955 288.696 88.0395C288.117 86.4532 287.827 84.7142 287.827 82.8226C287.827 80.9312 288.117 79.2074 288.696 77.6515C289.304 76.0955 290.127 74.7685 291.163 73.6702C292.23 72.572 293.478 71.7176 294.909 71.1076C296.371 70.4974 297.956 70.1923 299.661 70.1923C301.397 70.1923 302.982 70.4974 304.413 71.1076C305.875 71.7176 307.125 72.572 308.159 73.6702C309.196 74.7685 310.004 76.0955 310.583 77.6515C311.161 79.2074 311.45 80.9312 311.45 82.8226ZM304.504 82.8226C304.504 80.7175 304.079 79.07 303.226 77.8803C302.403 76.6601 301.216 76.0499 299.661 76.0499C298.109 76.0499 296.905 76.6601 296.052 77.8803C295.2 79.07 294.772 80.7175 294.772 82.8226C294.772 84.9276 295.2 86.6056 296.052 87.8565C296.905 89.0767 298.109 89.687 299.661 89.687C301.216 89.687 302.403 89.0767 303.226 87.8565C304.079 86.6056 304.504 84.9276 304.504 82.8226ZM337.661 86.3463C336.687 87.7802 335.819 89.2294 335.056 90.6937C334.296 92.1276 333.565 93.531 332.863 94.9038H325.873C326.756 92.9208 327.655 91.1057 328.569 89.4582C329.482 87.8107 330.367 86.3922 331.22 85.2022C329.94 84.5311 328.919 83.6769 328.157 82.6396C327.395 81.5719 327.016 80.2446 327.016 78.6583C327.016 75.9736 327.976 73.9143 329.893 72.4805C331.843 71.0464 334.524 70.3296 337.935 70.3296C338.698 70.3296 339.534 70.3601 340.45 70.4211C341.393 70.4821 342.323 70.5737 343.236 70.6957C344.149 70.8176 345.018 70.955 345.841 71.1076C346.694 71.2296 347.409 71.3669 347.988 71.5193V94.9038H341.179V86.3463H337.661ZM341.179 75.7294C340.875 75.6989 340.403 75.6684 339.764 75.638C339.123 75.577 338.575 75.5465 338.119 75.5465C336.444 75.5465 335.3 75.8362 334.691 76.416C334.083 76.965 333.778 77.682 333.778 78.5668C333.778 79.1159 333.899 79.5888 334.143 79.9854C334.387 80.3514 334.708 80.6566 335.103 80.9007C335.498 81.1141 335.939 81.2668 336.427 81.3582C336.915 81.4497 337.403 81.4955 337.889 81.4955H341.179V75.7294ZM353.242 71.611C354.308 71.2142 355.542 70.894 356.944 70.6498C358.345 70.4059 359.867 70.2838 361.512 70.2838C362.76 70.2838 363.98 70.4059 365.167 70.6498C366.355 70.8635 367.405 71.2449 368.321 71.7939C369.264 72.3127 370.01 73.0144 370.558 73.899C371.137 74.7533 371.427 75.8362 371.427 77.1481C371.427 78.3379 371.153 79.36 370.605 80.2141C370.056 81.038 369.28 81.7243 368.274 82.2735C369.615 82.8531 370.605 83.6159 371.244 84.5615C371.883 85.5073 372.204 86.7124 372.204 88.1768C372.204 89.5496 371.915 90.7089 371.335 91.6547C370.756 92.57 369.98 93.3173 369.006 93.897C368.03 94.4768 366.919 94.8885 365.669 95.1326C364.421 95.4072 363.127 95.5445 361.786 95.5445C360.994 95.5445 360.171 95.4987 359.319 95.4072C358.466 95.3462 357.629 95.2394 356.806 95.087C356.014 94.9648 355.252 94.797 354.52 94.5836C353.79 94.3699 353.135 94.1412 352.556 93.897L353.79 88.5887C354.429 88.8328 355.405 89.1226 356.714 89.4582C358.054 89.7938 359.562 89.9616 361.238 89.9616C363.98 89.9616 365.351 89.1989 365.351 87.6734C365.351 87.1548 365.244 86.7429 365.03 86.4378C364.817 86.1022 364.528 85.8429 364.161 85.6598C363.827 85.4769 363.431 85.3549 362.974 85.2937C362.518 85.2327 362.06 85.2022 361.603 85.2022H356.258V80.3514H361.649C362.746 80.3514 363.508 80.138 363.933 79.7107C364.391 79.2532 364.619 78.7346 364.619 78.1549C364.619 77.5752 364.361 77.0567 363.843 76.5989C363.355 76.1109 362.441 75.8667 361.101 75.8667C359.76 75.8667 358.496 75.9889 357.308 76.2328C356.121 76.4769 355.161 76.7057 354.429 76.9194L353.242 71.611ZM408.26 94.9038H401.452V70.833H408.26V94.9038ZM387.196 90.1445C388.446 90.1445 389.419 89.9157 390.121 89.4582C390.851 88.9699 391.218 88.1921 391.218 87.1244C391.218 86.5751 391.095 86.1176 390.851 85.7515C390.607 85.3549 390.272 85.0498 389.847 84.8362C389.419 84.592 388.917 84.4242 388.339 84.3328C387.79 84.2413 387.196 84.1955 386.556 84.1955C386.099 84.1955 385.597 84.2259 385.048 84.2869C384.5 84.3481 384.089 84.4091 383.814 84.4701V89.9616C384.181 90.0225 384.667 90.0684 385.276 90.0989C385.887 90.1294 386.526 90.1445 387.196 90.1445ZM383.814 79.3905C384.242 79.2685 384.79 79.1769 385.46 79.1159C386.161 79.0244 386.952 78.9786 387.837 78.9786C389.238 78.9786 390.546 79.1464 391.766 79.482C393.014 79.8176 394.095 80.3363 395.01 81.038C395.923 81.7092 396.639 82.5787 397.157 83.6464C397.706 84.6837 397.98 85.9039 397.98 87.3073C397.98 88.7107 397.736 89.9311 397.248 90.9684C396.76 91.9751 396.06 92.8139 395.147 93.4851C394.232 94.1258 393.135 94.5987 391.857 94.9038C390.607 95.2394 389.206 95.4072 387.653 95.4072C385.643 95.4072 383.8 95.3004 382.125 95.087C380.45 94.9038 378.744 94.5987 377.006 94.1717V70.833H383.814V79.3905ZM421.476 79.2532C422.145 78.6125 422.845 77.9108 423.577 77.1481C424.339 76.3855 425.069 75.638 425.77 74.9058C426.47 74.1431 427.141 73.4109 427.78 72.7093C428.419 72.0076 428.984 71.382 429.472 70.833H437.742C437.131 71.4737 436.371 72.2669 435.458 73.2127C434.573 74.1583 433.629 75.1499 432.623 76.1872C431.619 77.194 430.599 78.2006 429.562 79.2074C428.556 80.2141 427.597 81.1141 426.683 81.9075C427.597 82.6091 428.573 83.4786 429.609 84.5159C430.643 85.5532 431.649 86.6666 432.623 87.8565C433.629 89.0462 434.573 90.2513 435.458 91.4718C436.371 92.692 437.147 93.8361 437.786 94.9038H430.02C429.472 94.0802 428.847 93.2259 428.145 92.3412C427.446 91.4259 426.714 90.5411 425.954 89.687C425.191 88.8021 424.415 87.9785 423.623 87.2158C422.861 86.4532 422.145 85.7971 421.476 85.2481V94.9038H414.667V70.833H421.476V79.2532ZM450.177 90.1445C450.847 90.1445 451.488 90.1294 452.097 90.0989C452.706 90.0684 453.194 90.0225 453.558 89.9616V84.7903C453.284 84.7293 452.873 84.6684 452.325 84.6074C451.776 84.5464 451.274 84.5159 450.816 84.5159C450.177 84.5159 449.569 84.5615 448.99 84.6532C448.442 84.7142 447.954 84.8515 447.526 85.0649C447.101 85.2786 446.766 85.5683 446.522 85.9344C446.278 86.3005 446.157 86.7583 446.157 87.3073C446.157 88.3751 446.506 89.1226 447.208 89.5496C447.938 89.9462 448.927 90.1445 450.177 90.1445ZM449.629 70.1923C451.639 70.1923 453.315 70.4211 454.655 70.8786C455.996 71.3364 457.062 71.9922 457.853 72.8466C458.675 73.7007 459.254 74.738 459.591 75.9584C459.925 77.1786 460.093 78.5362 460.093 80.0312V94.2175C459.117 94.4309 457.762 94.6751 456.026 94.9497C454.29 95.2548 452.188 95.4072 449.72 95.4072C448.167 95.4072 446.75 95.2699 445.472 94.9953C444.222 94.7207 443.141 94.2785 442.228 93.6683C441.312 93.0276 440.613 92.2039 440.125 91.1971C439.637 90.1903 439.393 88.9548 439.393 87.4904C439.393 86.0871 439.667 84.8971 440.216 83.9208C440.794 82.9447 441.556 82.1667 442.502 81.587C443.446 81.0075 444.526 80.5956 445.746 80.3514C446.964 80.0768 448.228 79.9395 449.538 79.9395C450.421 79.9395 451.198 79.9854 451.867 80.0768C452.569 80.138 453.131 80.2295 453.558 80.3514V79.7107C453.558 78.5515 453.208 77.621 452.508 76.9194C451.806 76.2177 450.589 75.8667 448.853 75.8667C447.696 75.8667 446.552 75.9584 445.425 76.1413C444.298 76.294 443.323 76.5228 442.502 76.8279L441.633 71.3364C442.028 71.2142 442.516 71.0923 443.095 70.9703C443.704 70.8177 444.359 70.6957 445.06 70.6042C445.76 70.4821 446.492 70.3906 447.252 70.3296C448.044 70.2381 448.837 70.1923 449.629 70.1923Z" fill="#338EF7"/>
<path d="M20.5387 10.3142C18.783 10.8752 17.2542 12.4366 16.7698 14.18C15.6648 18.1216 18.8889 23.079 24.2018 25.5653C25.867 26.3536 26.5936 26.3839 28.1375 25.7167C30.8317 24.595 33.6774 22.0631 34.8278 19.7741C36.0236 17.3788 36.1901 15.1957 35.3274 13.3614C34.7522 12.1031 33.8742 11.2238 32.6028 10.6326C31.7097 10.2081 31.4373 10.1475 30.302 10.1475C28.8186 10.1475 27.9254 10.4355 26.8811 11.2238L26.2 11.7393L25.6399 11.2996C24.3079 10.2233 22.1434 9.7988 20.5387 10.3142ZM22.9002 13.4069C23.5813 13.604 24.1111 14.1649 24.6256 15.2564C24.9133 15.878 25.1706 16.1811 25.5339 16.3479C26.1545 16.6511 26.2756 16.6511 26.8962 16.3479C27.2746 16.1811 27.5168 15.878 27.8498 15.1654C28.092 14.65 28.5159 14.0436 28.7732 13.8313C29.7268 13.0127 31.301 13.1491 32.1032 14.1042C32.6633 14.8016 32.7845 15.4686 32.5724 16.5602C32.1184 18.7735 30.2111 21.0323 27.6984 22.3513L26.3968 23.0334L25.4432 22.5786C24.1716 21.9723 22.3704 20.623 21.4772 19.6073C19.7063 17.591 19.2522 15.1048 20.4329 13.9678C21.1139 13.3159 21.9164 13.134 22.9002 13.4069Z" fill="#338EF7" stroke="#338EF7"/>
<path d="M11.911 30.4934C9.62531 30.8421 7.67267 32.4036 6.82503 34.5412C6.53743 35.2537 6.47688 35.7085 6.47688 36.9366C6.46174 38.2856 6.52228 38.5586 6.91583 39.4378C7.29426 40.3172 7.77863 40.8478 11.0633 44.1678C13.0916 46.2295 14.7415 47.9426 14.6961 47.988C14.6658 48.0185 14.242 48.2307 13.7728 48.443C11.0027 49.7466 9.47394 52.9152 10.2308 55.8107C10.3519 56.2655 10.4881 56.7505 10.5487 56.887C10.6243 57.0689 10.4881 57.1751 9.94317 57.3266C9.01984 57.5844 7.62726 58.4939 7.0218 59.2368C6.74934 59.5552 6.31037 60.2678 6.03791 60.8134C5.58382 61.7382 5.55353 61.8898 5.55353 63.4664C5.55353 64.9825 5.59896 65.225 5.97736 66.0436C6.20442 66.5439 6.50714 67.0595 6.62825 67.1958C6.82503 67.4231 6.74934 67.499 5.75031 67.9689C2.25374 69.6517 0.967121 73.8814 2.95003 77.1558C3.64632 78.3231 16.2552 90.8302 17.7386 91.8459C23.9294 96.0453 31.7248 96.1362 37.8552 92.0884C39.4597 91.0273 45.7566 84.8572 47.0129 83.1138C51.4328 76.9436 51.5389 69.0908 47.2855 62.5568C46.8464 61.8898 45.2268 60.1161 42.8504 57.7056L39.1117 53.9157L39.2478 52.248C39.5506 48.5338 40.6101 44.7288 41.6091 43.8191C42.4417 43.046 43.3195 41.6664 43.6375 40.6356C43.9099 39.7562 43.9401 39.2864 43.9099 37.7249C43.8494 35.9966 43.8191 35.7995 43.3649 34.8899C42.7141 33.5861 42.0784 32.8434 41.0187 32.1611C39.157 30.9483 36.6746 30.7513 34.8127 31.6761C33.6623 32.2368 32.8449 33.01 31.6341 34.6474C30.0901 36.7242 28.5613 40.1504 28.2587 42.2274L28.1375 42.9551L22.5974 37.4216C19.555 34.3744 16.7244 31.6759 16.3006 31.4182C15.0594 30.6299 13.3489 30.266 11.911 30.4934ZM14.3025 33.9954C15.0594 34.3744 43.0472 62.2688 44.2429 63.8454C45.2722 65.1947 46.2712 67.2868 46.7405 69.0908C47.3157 71.2586 47.3157 74.048 46.7405 76.1856C46.2712 77.9898 45.2722 80.0819 44.2429 81.4309C43.8343 81.9767 42.0482 83.8566 40.2619 85.6152C37.7341 88.1166 36.7653 88.9806 35.7512 89.587C33.2992 91.103 30.9074 91.7702 28.0314 91.7853C26.2151 91.7853 25.1405 91.6337 23.4905 91.103C22.2343 90.7089 20.3572 89.7387 19.2674 88.9352C18.117 88.0863 6.37091 76.4283 5.81085 75.5943C5.23567 74.7152 5.09944 73.8509 5.40216 72.8504C5.82599 71.3951 7.43049 70.349 8.85333 70.5766C9.73126 70.728 10.2913 71.0616 11.4114 72.1229C12.3196 73.002 12.471 73.0931 13.0462 73.0931C13.576 73.0931 13.7728 73.0021 14.2117 72.5625C14.6961 72.0772 14.7415 71.9561 14.6658 71.3952C14.5901 70.8342 14.3328 70.5309 11.8655 68.0297C9.70099 65.8465 9.09553 65.1341 8.88361 64.5732C7.94513 62.0566 10.5032 59.4946 13.0008 60.4344C13.5609 60.6468 14.2269 61.2075 15.9373 62.8904C18.0564 64.9673 18.1775 65.0582 18.7679 65.0582C19.9637 65.0582 20.781 63.8454 20.2663 62.8449C20.1302 62.6024 18.6619 61.0409 16.9817 59.3733C15.3016 57.7056 13.7879 56.0684 13.6214 55.7348C13.1673 54.8708 13.1824 53.6427 13.6668 52.7787C14.1966 51.8084 15.1048 51.2172 16.2098 51.1415C17.7537 51.0352 17.9808 51.1869 21.0839 54.2341C23.7933 56.9173 23.9294 57.0235 24.5046 57.0235C25.6097 57.0235 26.427 55.947 26.0637 54.9616C25.973 54.7191 22.431 51.0352 17.9051 46.4873C10.0794 38.6192 9.89777 38.4373 9.71613 37.6641C9.35285 36.0572 10.1854 34.4503 11.6839 33.8439C12.3499 33.5861 13.6214 33.6468 14.3025 33.9954ZM39.1873 34.8293C40.2619 35.4963 40.7464 36.5119 40.7464 38.1342C40.7464 39.6349 40.4891 40.2717 39.3841 41.4845C37.9915 43.0157 36.9621 45.6839 36.4022 49.1402C36.2508 50.0499 36.0994 50.8079 36.054 50.8079C36.0087 50.8079 34.8583 49.686 33.4808 48.3065L30.9984 45.8202L31.1951 44.2739C31.6038 41.0146 33.0568 37.7097 35.0246 35.5417C36.281 34.1924 37.7341 33.9348 39.1873 34.8293Z" fill="#338EF7" stroke="#338EF7"/>
</svg>
