<svg width="28" height="28" viewBox="0 0 28 28" fill="none" xmlns="http://www.w3.org/2000/svg">
<path d="M14 4.66667C14 3.19391 15.1939 2 16.6667 2C18.1394 2 19.3333 3.19391 19.3333 4.66667V6C19.3333 6.73638 19.9303 7.33333 20.6667 7.33333H24.6667C25.403 7.33333 26 7.93029 26 8.66667V12.6667C26 13.403 25.403 14 24.6667 14H23.3333C21.8606 14 20.6667 15.1939 20.6667 16.6667C20.6667 18.1394 21.8606 19.3333 23.3333 19.3333H24.6667C25.403 19.3333 26 19.9303 26 20.6667V24.6667C26 25.403 25.403 26 24.6667 26H20.6667C19.9303 26 19.3333 25.403 19.3333 24.6667V23.3333C19.3333 21.8606 18.1394 20.6667 16.6667 20.6667C15.1939 20.6667 14 21.8606 14 23.3333V24.6667C14 25.403 13.403 26 12.6667 26H8.66667C7.93029 26 7.33333 25.403 7.33333 24.6667V20.6667C7.33333 19.9303 6.73638 19.3333 6 19.3333H4.66667C3.19391 19.3333 2 18.1394 2 16.6667C2 15.1939 3.19391 14 4.66667 14H6C6.73638 14 7.33333 13.403 7.33333 12.6667V8.66667C7.33333 7.93029 7.93029 7.33333 8.66667 7.33333H12.6667C13.403 7.33333 14 6.73638 14 6V4.66667Z" stroke="#111827" stroke-width="3" stroke-linecap="round" stroke-linejoin="round"/>
</svg>
