<svg width="369" height="368" viewBox="0 0 369 368" fill="none" xmlns="http://www.w3.org/2000/svg">
<path d="M290.861 185.213C290.861 185.213 285.016 184.792 285.554 197.899C286.093 211.006 287.429 217.994 287.429 217.994C287.429 217.994 287.252 220.895 285.001 220.327C282.75 219.758 278.514 216.932 276.425 219.042C274.337 221.153 275.031 224.6 277.901 228.563C280.772 232.526 286.757 241.433 287.296 242.245C287.835 243.057 288.034 244.526 286.44 244.378C284.846 244.23 274.079 240.585 272.647 245.802C271.215 251.02 281.053 260.739 282.108 261.824C283.163 262.909 283.215 263.588 282.787 264.245C282.359 264.902 278.861 263.33 275.754 262.422C272.647 261.514 268.883 260.99 268.315 264.068C267.747 267.145 272.071 276.156 288.285 285.617L296.086 289.514L303.466 284.806C318.654 273.736 322.056 264.37 321.178 261.367C320.3 258.363 316.602 259.249 313.65 260.466C310.698 261.684 307.318 263.596 306.824 262.99C306.329 262.385 306.322 261.691 307.266 260.511C308.211 259.33 317.015 248.703 315.074 243.625C313.134 238.548 302.779 243.286 301.207 243.588C299.636 243.891 299.695 242.393 300.137 241.551C300.58 240.71 305.658 231.219 308.123 226.998C310.587 222.777 311.023 219.338 308.646 217.404C306.27 215.471 302.418 218.747 300.241 219.544C298.064 220.341 297.591 217.456 297.591 217.456C297.591 217.456 298.226 210.378 297.451 197.279C296.676 184.179 290.772 185.213 290.772 185.213" fill="#EBEBEB"/>
<path d="M291.318 196.954C291.318 196.954 291.318 197.043 291.318 197.227C291.318 197.412 291.355 197.685 291.385 198.032C291.429 198.77 291.503 199.795 291.591 201.124C291.769 203.817 292.005 207.707 292.27 212.519C292.802 222.113 293.429 235.433 294.071 250.12C294.713 264.806 295.304 278.112 295.783 287.758C296.027 292.562 296.226 296.451 296.359 299.152C296.425 300.488 296.477 301.529 296.514 302.252C296.514 302.599 296.514 302.864 296.551 303.064C296.556 303.155 296.556 303.246 296.551 303.337C296.551 303.337 296.551 303.241 296.551 303.064C296.551 302.887 296.514 302.599 296.484 302.259C296.44 301.521 296.366 300.495 296.278 299.16C296.093 296.473 295.864 292.584 295.599 287.772C295.067 278.178 294.44 264.85 293.798 250.134C293.156 235.419 292.566 222.149 292.086 212.496C291.842 207.699 291.643 203.81 291.503 201.102C291.444 199.766 291.385 198.725 291.355 198.002C291.355 197.663 291.355 197.39 291.318 197.198C291.314 197.116 291.314 197.035 291.318 196.954Z" fill="#E0E0E0"/>
<path d="M282.189 223.242C282.368 223.354 282.532 223.488 282.677 223.641C282.979 223.914 283.415 224.327 283.916 224.829C284.942 225.855 286.33 227.301 287.828 228.925L291.643 233.094L292.802 234.356C292.956 234.5 293.092 234.661 293.208 234.836C293.029 234.724 292.866 234.59 292.721 234.438C292.418 234.165 291.983 233.759 291.488 233.242C290.47 232.209 289.105 230.748 287.606 229.124L283.761 224.976L282.595 223.722C282.442 223.579 282.305 223.418 282.189 223.242Z" fill="#E0E0E0"/>
<path d="M293.982 234.577C293.923 234.518 296.772 231.536 300.351 227.935C303.931 224.334 306.875 221.418 306.934 221.477C306.993 221.536 304.145 224.518 300.565 228.119C296.986 231.721 294.041 234.636 293.982 234.577Z" fill="#E0E0E0"/>
<path d="M293.946 257.183C294.115 257.048 294.298 256.931 294.492 256.836L296.02 255.98C297.304 255.242 299.083 254.253 301.002 253.072C302.92 251.891 304.625 250.777 305.85 249.95L307.326 248.983C307.499 248.854 307.684 248.743 307.88 248.651C307.88 248.651 307.717 248.821 307.393 249.079C307.068 249.338 306.596 249.692 305.99 250.127C304.795 250.998 303.105 252.149 301.179 253.33C299.253 254.511 297.489 255.493 296.138 256.164C295.481 256.504 294.943 256.769 294.566 256.939C294.373 257.051 294.164 257.133 293.946 257.183Z" fill="#E0E0E0"/>
<path d="M281.023 249.271C281.216 249.332 281.4 249.419 281.57 249.529C281.902 249.706 282.389 249.972 282.979 250.311C284.167 250.983 285.798 251.935 287.592 252.997C289.385 254.06 290.994 255.042 292.152 255.765C292.735 256.127 293.2 256.422 293.518 256.636C293.692 256.73 293.853 256.847 293.997 256.983C293.806 256.928 293.624 256.843 293.459 256.732C293.119 256.555 292.64 256.282 292.042 255.949C290.861 255.27 289.23 254.326 287.437 253.256C285.643 252.186 284.034 251.211 282.876 250.496C282.293 250.134 281.828 249.839 281.511 249.625C281.332 249.531 281.168 249.412 281.023 249.271Z" fill="#E0E0E0"/>
<path d="M278.463 269.227C278.705 269.306 278.936 269.418 279.149 269.559L280.965 270.555C282.492 271.411 284.588 272.614 286.869 273.957C289.149 275.3 291.26 276.533 292.773 277.433L294.544 278.518C294.767 278.642 294.977 278.788 295.171 278.953C294.932 278.866 294.702 278.754 294.485 278.621L292.669 277.618C291.142 276.762 289.038 275.559 286.765 274.215C284.492 272.872 282.374 271.64 280.861 270.739L279.09 269.655C278.868 269.531 278.658 269.388 278.463 269.227Z" fill="#E0E0E0"/>
<path d="M294.847 278.606C295.061 278.437 295.288 278.284 295.526 278.149L297.422 276.998C299.024 276.023 301.23 274.665 303.622 273.108C306.013 271.551 308.153 270.082 309.688 269.012L311.511 267.743C311.728 267.577 311.96 267.431 312.204 267.308C312.01 267.502 311.801 267.68 311.577 267.839C311.171 268.164 310.566 268.621 309.813 269.182C308.337 270.297 306.19 271.795 303.784 273.359C301.378 274.924 299.157 276.252 297.533 277.182C296.714 277.64 296.057 278.009 295.585 278.252C295.35 278.392 295.103 278.511 294.847 278.606Z" fill="#E0E0E0"/>
<path d="M306.573 292.067H284.994L292.035 345.381H299.525L306.573 292.067Z" fill="#E0E0E0"/>
<path d="M286.108 298.628C286.108 298.628 286.108 298.702 286.226 298.82C286.37 298.983 286.549 299.109 286.75 299.189C287.125 299.32 287.526 299.363 287.92 299.314C288.314 299.265 288.691 299.127 289.024 298.909C289.902 298.429 290.654 297.485 291.828 297.071C293.12 296.654 294.515 296.68 295.791 297.145C297.089 297.592 298.328 298.194 299.481 298.938C300.446 299.539 301.45 300.076 302.485 300.547C303.189 300.865 303.934 301.081 304.699 301.189C304.906 301.222 305.116 301.237 305.326 301.234C305.474 301.234 305.547 301.234 305.547 301.234C304.527 301.077 303.533 300.779 302.595 300.348C301.579 299.851 300.594 299.294 299.643 298.68C298.472 297.908 297.207 297.288 295.88 296.835C294.53 296.345 293.054 296.33 291.695 296.791C291.117 297.024 290.583 297.353 290.116 297.765C289.727 298.11 289.315 298.428 288.883 298.717C288.58 298.926 288.235 299.068 287.872 299.131C287.509 299.195 287.136 299.179 286.78 299.086C286.531 298.974 286.304 298.819 286.108 298.628Z" fill="#F5F5F5"/>
<path d="M286.898 308.444C286.898 308.444 287.068 308.222 287.408 307.868C287.899 307.386 288.488 307.013 289.135 306.776C290.093 306.428 291.112 306.274 292.131 306.326C293.392 306.416 294.647 306.586 295.887 306.835C297.154 307.077 298.45 307.132 299.732 306.997C300.778 306.858 301.797 306.567 302.758 306.134C303.402 305.842 304.011 305.478 304.574 305.049C304.791 304.908 304.985 304.733 305.149 304.532C304.353 305.051 303.519 305.51 302.655 305.905C301.709 306.284 300.716 306.532 299.703 306.643C298.451 306.758 297.188 306.696 295.954 306.458C294.699 306.211 293.429 306.048 292.153 305.971C291.09 305.933 290.032 306.12 289.046 306.517C288.379 306.786 287.784 307.208 287.312 307.75C287.19 307.897 287.081 308.055 286.987 308.222C286.944 308.29 286.914 308.365 286.898 308.444Z" fill="#F5F5F5"/>
<path d="M304.13 313.698C303.952 313.558 303.75 313.453 303.532 313.388C302.959 313.173 302.358 313.044 301.747 313.005C300.841 312.948 299.931 313 299.038 313.159C298.034 313.322 296.957 313.602 295.82 313.838C294.769 314.089 293.691 314.211 292.61 314.2C291.732 314.178 290.866 313.993 290.057 313.654C289.321 313.31 288.663 312.821 288.123 312.215C288.203 312.425 288.326 312.616 288.485 312.776C288.898 313.238 289.4 313.612 289.961 313.875C290.788 314.268 291.687 314.489 292.603 314.525C293.712 314.556 294.822 314.442 295.902 314.185C297.045 313.942 298.116 313.654 299.104 313.447C299.972 313.28 300.856 313.206 301.739 313.226C302.553 313.283 303.356 313.441 304.13 313.698Z" fill="#F5F5F5"/>
<path d="M288.81 321.093C289.466 320.806 290.197 320.731 290.898 320.879C291.665 321.066 292.408 321.341 293.112 321.699C294.374 322.298 295.765 322.573 297.161 322.501C298.556 322.429 299.911 322.011 301.105 321.285C301.57 321.004 302.003 320.672 302.396 320.296C302.542 320.162 302.669 320.008 302.773 319.839C302.203 320.286 301.607 320.698 300.987 321.071C299.456 321.907 297.714 322.276 295.976 322.134C293.931 322.016 292.367 320.798 290.95 320.658C290.399 320.549 289.828 320.587 289.297 320.769C288.95 320.916 288.795 321.079 288.81 321.093Z" fill="#F5F5F5"/>
<path d="M290.034 331.322C290.654 331.342 291.269 331.221 291.835 330.968C292.92 330.606 294.263 329.772 295.835 329.152C296.561 328.852 297.337 328.689 298.123 328.672C298.762 328.669 299.393 328.813 299.968 329.093C300.488 329.377 300.943 329.767 301.303 330.237C301.272 330.072 301.201 329.918 301.097 329.787C300.837 329.406 300.491 329.092 300.086 328.872C299.486 328.541 298.815 328.361 298.13 328.348C297.3 328.347 296.478 328.507 295.709 328.82C294.078 329.469 292.757 330.296 291.746 330.731C290.735 331.167 290.034 331.27 290.034 331.322Z" fill="#F5F5F5"/>
<path d="M291.067 336.082C291.497 336.3 291.958 336.452 292.433 336.532C293.557 336.801 294.699 336.994 295.85 337.108C297 337.219 298.156 337.251 299.311 337.204C299.791 337.214 300.271 337.157 300.735 337.034C300.735 336.931 298.521 337.034 295.879 336.754C293.237 336.473 291.09 335.979 291.067 336.082Z" fill="#F5F5F5"/>
<path d="M117.153 97.8467L53.8545 112.892L75.9405 205.815L139.239 190.77L117.153 97.8467Z" fill="#E0E0E0"/>
<path d="M112.225 95.1046L48.9268 110.149L71.0128 203.073L134.312 188.028L112.225 95.1046Z" fill="#EBEBEB"/>
<path d="M107.142 94.2764L43.8438 109.321L65.5083 200.471L128.807 185.426L107.142 94.2764Z" fill="#F5F5F5"/>
<path d="M106.354 190.769C106.354 190.769 121.114 180.711 124.737 169.006C123.176 170.756 121.277 172.172 119.153 173.168C117.03 174.164 114.727 174.719 112.383 174.799C112.383 174.799 110.811 187.316 106.354 190.769Z" fill="#EBEBEB"/>
<path d="M106.694 118.556C106.694 118.659 95.4833 121.412 81.6015 124.711C67.7197 128.01 56.4431 130.615 56.4209 130.497C56.3988 130.379 67.6312 127.641 81.5129 124.342C95.3947 121.043 106.671 118.445 106.694 118.556Z" fill="#E0E0E0"/>
<path d="M108.265 125.199C108.265 125.302 97.0546 128.062 83.1728 131.354C69.291 134.645 58.0144 137.258 57.9922 137.14C57.9701 137.021 69.2024 134.283 83.0842 130.985C96.966 127.686 108.235 125.059 108.265 125.199Z" fill="#E0E0E0"/>
<path d="M109.837 131.774C109.837 131.878 98.6268 134.638 84.745 137.937C70.8633 141.236 59.5866 143.841 59.5645 143.723C59.5423 143.605 70.7673 140.859 84.6565 137.56C98.5456 134.262 109.808 131.671 109.837 131.774Z" fill="#E0E0E0"/>
<path d="M111.439 138.387C111.439 138.49 100.228 141.25 86.3466 144.549C72.4648 147.848 61.1882 150.453 61.166 150.335C61.1439 150.217 72.3689 147.472 86.258 144.173C100.147 140.874 111.38 138.283 111.439 138.387Z" fill="#E0E0E0"/>
<path d="M112.981 144.999C112.981 145.102 101.771 147.863 87.8889 151.161C74.0071 154.46 62.7305 157.051 62.7305 156.933C62.7305 156.814 73.9333 154.069 87.8225 150.77C101.712 147.471 112.951 144.896 112.981 144.999Z" fill="#E0E0E0"/>
<path d="M114.553 151.611C114.553 151.715 103.343 154.475 89.4613 157.774C75.5795 161.073 64.3103 163.678 64.2881 163.56C64.266 163.442 75.491 160.696 89.3801 157.397C103.269 154.098 114.524 151.508 114.553 151.611Z" fill="#E0E0E0"/>
<path d="M116.125 158.224C116.125 158.327 104.914 161.087 91.0326 164.386C77.1508 167.685 65.8815 170.29 65.8594 170.172C65.8373 170.054 77.0622 167.308 90.9514 164.01C104.841 160.711 116.095 158.12 116.125 158.224Z" fill="#E0E0E0"/>
<path d="M117.697 164.844C117.697 164.947 106.487 167.7 92.6049 170.999C78.7231 174.298 67.4538 176.903 67.4317 176.785C67.4095 176.667 78.6345 173.921 92.5237 170.622C106.413 167.323 117.667 164.74 117.697 164.844Z" fill="#E0E0E0"/>
<path d="M350.741 345.314C350.741 345.417 275.731 345.506 183.215 345.506C90.6998 345.506 15.6895 345.417 15.6895 345.314C15.6895 345.211 90.6924 345.122 183.215 345.122C275.738 345.122 350.741 345.203 350.741 345.314Z" fill="#263238"/>
<path d="M159.711 319.521L157.992 338.48L152.302 353.085C152.204 353.334 152.159 353.6 152.169 353.867C152.179 354.134 152.244 354.396 152.36 354.637C152.475 354.878 152.639 355.092 152.841 355.267C153.043 355.442 153.279 355.573 153.534 355.653C153.831 355.748 154.146 355.771 154.453 355.718C154.76 355.665 155.05 355.539 155.298 355.35C158.501 352.908 170.235 343.875 170.287 342.48C170.346 340.863 173.43 322.591 173.43 322.591L159.711 319.521Z" fill="#5285F2"/>
<g opacity="0.6">
<path d="M153.505 355.661L170.405 341.211L170.309 342.008C170.235 342.703 169.913 343.347 169.401 343.823C168.043 345.1 164.235 348.539 155.328 355.366C155.072 355.562 154.772 355.692 154.454 355.743C154.135 355.795 153.809 355.766 153.505 355.661Z" fill="white"/>
</g>
<g opacity="0.6">
<path d="M167.246 334.664C166.999 334.809 166.812 335.038 166.721 335.309C166.63 335.581 166.641 335.876 166.752 336.14C166.885 336.399 167.113 336.596 167.388 336.691C167.663 336.786 167.963 336.771 168.228 336.65C168.495 336.496 168.695 336.248 168.79 335.955C168.886 335.662 168.869 335.345 168.744 335.063C168.577 334.808 168.317 334.629 168.019 334.563C167.722 334.497 167.41 334.549 167.15 334.709" fill="white"/>
</g>
<path d="M158.803 347.889C158.422 347.246 157.921 346.682 157.327 346.229C156.665 345.873 155.941 345.648 155.194 345.564C155.194 345.513 155.438 345.395 155.888 345.38C156.48 345.381 157.059 345.553 157.556 345.874C158.053 346.191 158.448 346.645 158.692 347.181C158.855 347.594 158.855 347.874 158.803 347.889Z" fill="#263238"/>
<path d="M157.194 350.287C157.098 350.361 156.559 349.675 155.615 349.284C155.016 349.101 154.407 348.95 153.792 348.834C154.104 348.686 154.447 348.615 154.793 348.626C155.138 348.638 155.476 348.732 155.777 348.9C156.825 349.328 157.268 350.228 157.194 350.287Z" fill="#263238"/>
<path d="M161.681 344.922C160.946 344.293 160.164 343.721 159.342 343.21C158.458 342.816 157.545 342.491 156.611 342.236C157.625 342.154 158.64 342.364 159.538 342.84C160.436 343.316 161.18 344.038 161.681 344.922Z" fill="#263238"/>
<path d="M162.685 339.218C162.626 339.328 161.63 338.768 160.272 338.568C158.914 338.369 157.807 338.568 157.777 338.443C158.589 338.118 159.474 338.019 160.338 338.155C161.202 338.292 162.013 338.659 162.685 339.218Z" fill="#263238"/>
<path d="M163.334 333.654C162.541 333.292 161.702 333.044 160.84 332.916C159.967 332.915 159.098 333.031 158.257 333.262C158.257 333.218 158.463 333.004 158.928 332.805C159.544 332.553 160.209 332.449 160.872 332.502C161.535 332.554 162.176 332.762 162.744 333.107C163.172 333.366 163.371 333.609 163.334 333.654Z" fill="#263238"/>
<path d="M160.995 331.838C160.96 331.591 160.98 331.339 161.054 331.1C161.19 330.451 161.456 329.836 161.836 329.292C162.079 328.87 162.452 328.539 162.899 328.347C163.052 328.299 163.217 328.3 163.37 328.349C163.523 328.397 163.658 328.492 163.755 328.62C163.93 328.883 164.004 329.2 163.962 329.513C163.844 330.143 163.511 330.713 163.019 331.125C162.528 331.537 161.909 331.765 161.268 331.771C160.631 331.768 160.01 331.574 159.484 331.215C158.958 330.856 158.551 330.348 158.316 329.757C158.257 329.607 158.231 329.447 158.24 329.286C158.249 329.126 158.292 328.969 158.368 328.827C158.454 328.69 158.584 328.585 158.736 328.529C158.888 328.473 159.054 328.469 159.209 328.517C159.663 328.671 160.068 328.944 160.382 329.307C160.852 329.773 161.235 330.321 161.512 330.923C161.627 331.135 161.7 331.369 161.726 331.609C161.313 330.844 160.793 330.14 160.183 329.521C159.895 329.218 159.538 328.99 159.143 328.856C159.057 328.829 158.965 328.831 158.881 328.862C158.797 328.893 158.726 328.951 158.678 329.026C158.637 329.122 158.616 329.225 158.616 329.329C158.616 329.433 158.637 329.536 158.678 329.631C158.896 330.134 159.254 330.564 159.709 330.868C160.164 331.173 160.698 331.341 161.246 331.351C161.787 331.344 162.309 331.154 162.728 330.812C163.148 330.47 163.439 329.997 163.556 329.469C163.594 329.252 163.552 329.03 163.438 328.842C163.386 328.769 163.312 328.714 163.228 328.684C163.143 328.655 163.051 328.653 162.965 328.679C162.588 328.845 162.269 329.12 162.05 329.469C161.563 330.191 161.206 330.993 160.995 331.838Z" fill="#263238"/>
<path d="M233.784 135.331C233.803 135.413 233.803 135.499 233.784 135.581C233.466 136.74 231.474 141.589 230.795 141.567C230.116 141.544 228.522 140.504 228.662 139.81C228.802 139.116 231.348 133.788 231.348 133.788C231.348 133.788 231.806 132.976 233.341 133.338C233.525 133.39 233.739 135.53 233.784 135.331Z" fill="#EB996E"/>
<path d="M231.26 132.438C231.26 132.438 231.26 132.541 231.223 132.681C230.898 133.847 228.913 138.696 228.234 138.667C227.555 138.637 225.961 137.604 226.101 136.918C226.242 136.231 228.788 130.895 228.788 130.895C228.788 130.895 229.245 130.076 230.78 130.438C231.732 130.659 231.26 132.438 231.26 132.438Z" fill="#EB996E"/>
<path d="M229.032 130.43C229.032 130.43 229.032 130.533 229.032 130.674C228.714 131.84 226.722 136.688 226.043 136.659C225.364 136.629 223.77 135.596 223.91 134.91C224.05 134.223 226.567 128.888 226.567 128.888C226.471 129.057 226.345 127.913 228.559 128.43C229.519 128.651 229.032 130.43 229.032 130.43Z" fill="#EB996E"/>
<path d="M226.219 128.496C226.219 128.496 226.219 128.6 226.219 128.74C225.902 129.906 223.909 134.747 223.23 134.725C222.551 134.703 220.957 133.662 221.098 132.976C221.238 132.29 223.784 126.954 223.784 126.954C223.784 126.954 224.241 126.135 225.776 126.496C226.684 126.718 226.219 128.496 226.219 128.496Z" fill="#EB996E"/>
<path d="M229.164 138.378C229.642 137.668 230.031 136.902 230.323 136.098C230.708 135.343 230.993 134.542 231.171 133.714C230.692 134.425 230.302 135.194 230.013 136.002C229.623 136.752 229.338 137.551 229.164 138.378Z" fill="#D1734A"/>
<path d="M226.278 137.264C226.915 136.227 227.451 135.132 227.88 133.994C228.411 132.903 228.846 131.767 229.179 130.6C228.546 131.638 228.01 132.732 227.577 133.869C227.046 134.96 226.611 136.096 226.278 137.264Z" fill="#D1734A"/>
<g opacity="0.78">
<path d="M223.452 135.876C224.101 134.831 224.649 133.726 225.091 132.577C225.625 131.487 226.059 130.351 226.389 129.183C225.761 130.221 225.225 131.312 224.788 132.445C224.243 133.547 223.796 134.695 223.452 135.876Z" fill="#D1734A"/>
</g>
<path d="M230.168 145.124C230.286 144.836 232.219 139.094 232.219 139.094L221.149 133.641C220.589 134.379 218.884 142.43 218.884 142.43L219.275 145.176C219.275 145.176 227.673 150.002 227.902 150.046C228.131 150.091 230.168 145.124 230.168 145.124Z" fill="#EB996E"/>
<path d="M221.519 142.644L220.39 138.482C219.898 136.654 220.128 134.706 221.032 133.043L221.726 131.773L231.128 136.054C231.128 136.054 228.951 139.139 226.559 137.471L228.397 141.043L221.519 142.644Z" fill="#EB996E"/>
<path d="M227.584 141.382C227.533 141.382 227.584 140.895 227.452 140.076C227.224 138.948 226.591 137.942 225.673 137.249L224.802 136.607L225.85 136.895L228.271 137.574H228.219C228.746 137.643 229.282 137.561 229.764 137.338C230.246 137.114 230.655 136.759 230.942 136.312C230.986 136.243 231.021 136.168 231.046 136.09L231.186 136.386C228.477 135.286 226.02 134.26 224.337 133.434C223.481 133.013 222.795 132.651 222.337 132.393C222.084 132.278 221.85 132.123 221.644 131.936C222.609 132.281 223.555 132.677 224.477 133.124C226.212 133.862 228.655 134.858 231.37 135.958L231.577 136.039L231.503 136.253C231.469 136.358 231.425 136.459 231.37 136.555C231.048 137.124 230.54 137.564 229.931 137.803C229.378 138.012 228.786 138.095 228.197 138.046H228.145L225.739 137.308L225.917 136.954C226.888 137.719 227.521 138.835 227.68 140.061C227.767 140.502 227.733 140.958 227.584 141.382Z" fill="#D1734A"/>
<path d="M229.843 137.212C229.939 137.212 229.777 137.729 229.925 138.408C229.955 138.593 230.042 138.763 230.175 138.896C230.307 139.028 230.478 139.116 230.663 139.146C230.896 139.13 231.12 139.054 231.315 138.924C231.509 138.795 231.666 138.617 231.77 138.408C232.338 137.411 232.921 136.504 233.246 135.84C233.57 135.175 233.777 134.733 233.843 134.755C233.91 134.777 233.843 135.249 233.556 135.987C233.146 136.913 232.675 137.81 232.146 138.673C232.001 138.957 231.78 139.195 231.508 139.361C231.235 139.526 230.922 139.613 230.604 139.611C230.333 139.562 230.087 139.425 229.904 139.22C229.721 139.015 229.611 138.756 229.593 138.482C229.547 138.159 229.578 137.831 229.681 137.522C229.755 137.316 229.814 137.205 229.843 137.212Z" fill="#D1734A"/>
<path d="M191.504 88.1351L188.264 121.345C188.138 122.616 187.519 123.788 186.54 124.607C185.56 125.427 184.298 125.83 183.024 125.729L175.401 125.116C174.126 125.014 172.943 124.415 172.107 123.449C171.27 122.483 170.847 121.226 170.928 119.95C171.172 115.965 171.556 111.094 171.556 111.094C171.556 111.094 164.463 109.995 164.375 102.902C164.331 99.5077 164.81 92.5705 165.32 86.2311C165.59 82.8651 167.119 79.7246 169.602 77.4352C172.084 75.1458 175.337 73.8753 178.714 73.877H179.187C180.94 73.9798 182.656 74.4334 184.231 75.2109C185.806 75.9883 187.21 77.0739 188.358 78.4033C189.507 79.7327 190.377 81.2789 190.917 82.9505C191.457 84.6221 191.657 86.385 191.504 88.1351Z" fill="#EB996E"/>
<path d="M171.541 111.013C174.824 111.082 178.052 110.167 180.81 108.386C180.81 108.386 178.596 113.493 171.548 112.851L171.541 111.013Z" fill="#D1734A"/>
<path d="M166.855 91.4935C166.98 91.6264 167.748 91.0581 168.84 91.0655C169.932 91.0729 170.729 91.6116 170.847 91.4788C170.965 91.3459 170.773 91.1762 170.427 90.9253C169.956 90.5997 169.397 90.4271 168.825 90.4308C168.257 90.4249 167.703 90.6036 167.246 90.94C166.906 91.1983 166.788 91.4345 166.855 91.4935Z" fill="#263238"/>
<path d="M177.534 91.4935C177.659 91.6263 178.427 91.058 179.519 91.0654C180.611 91.0728 181.401 91.6115 181.526 91.4787C181.652 91.3459 181.452 91.1761 181.106 90.9252C180.632 90.6013 180.071 90.4288 179.497 90.4307C178.929 90.4265 178.376 90.605 177.917 90.94C177.585 91.1983 177.475 91.4344 177.534 91.4935Z" fill="#263238"/>
<path d="M173.614 97.811C173.04 97.6285 172.445 97.5194 171.843 97.4862C171.563 97.4862 171.305 97.4051 171.253 97.2132C171.229 96.9267 171.296 96.6399 171.445 96.394C171.703 95.715 171.976 95.0139 172.264 94.2686C173.408 91.2575 174.234 88.7705 174.116 88.7262C173.998 88.6819 172.965 91.0952 171.821 94.1136L171.031 96.239C170.86 96.576 170.811 96.9619 170.891 97.3313C170.933 97.4291 170.996 97.5166 171.075 97.588C171.154 97.6593 171.247 97.7127 171.349 97.7445C171.503 97.7838 171.662 97.8036 171.821 97.8036C172.416 97.878 173.019 97.8805 173.614 97.811Z" fill="#263238"/>
<path d="M176.826 98.5636C176.649 98.5636 176.641 99.737 175.63 100.578C174.619 101.42 173.357 101.316 173.35 101.449C173.342 101.582 173.63 101.678 174.162 101.693C174.855 101.706 175.53 101.47 176.066 101.029C176.582 100.61 176.913 100.006 176.988 99.3459C177.032 98.8514 176.907 98.5562 176.826 98.5636Z" fill="#263238"/>
<path d="M177.29 85.4563C177.394 85.7515 178.486 85.6113 179.763 85.7663C181.039 85.9213 182.073 86.2681 182.242 86.0024C182.324 85.877 182.139 85.5965 181.726 85.3087C181.169 84.9576 180.539 84.738 179.884 84.6664C179.23 84.5947 178.567 84.6731 177.947 84.8954C177.482 85.0799 177.246 85.3456 177.29 85.4563Z" fill="#263238"/>
<path d="M167.261 86.3716C167.452 86.6151 168.198 86.3716 169.106 86.3716C170.013 86.3716 170.773 86.5339 170.943 86.2756C171.024 86.1502 170.943 85.9066 170.567 85.6705C170.121 85.3934 169.603 85.254 169.077 85.2698C168.552 85.2855 168.044 85.4557 167.615 85.759C167.275 85.9952 167.172 86.2461 167.261 86.3716Z" fill="#263238"/>
<path d="M183.8 80.3572H183.844C184.974 81.2486 185.717 82.5411 185.918 83.966C185.914 84.0127 185.914 84.0596 185.918 84.1062C186.198 86.1284 186.147 88.1874 186.442 90.2095C186.632 92.2601 187.509 94.1867 188.929 95.6781C189.541 96.2463 190.626 96.6449 191.143 95.9733C191.308 95.6913 191.395 95.3702 191.394 95.0434C191.77 90.1578 193.106 85.8258 193.099 80.7188C193.099 80.035 192.937 79.3609 192.627 78.7516C192.316 78.1424 191.866 77.6152 191.313 77.2133C190.243 76.4753 188.936 75.6561 187.748 76.217C186.56 76.7779 185.018 79.0067 184.095 79.907" fill="#263238"/>
<path d="M189.113 91.3385C189.231 91.2869 193.983 89.8625 193.828 94.7481C193.673 99.6336 188.84 98.4381 188.832 98.3052C188.825 98.1724 189.113 91.3385 189.113 91.3385Z" fill="#EB996E"/>
<path d="M190.405 96.5122C190.405 96.5122 190.486 96.5712 190.626 96.645C190.83 96.7263 191.057 96.7263 191.261 96.645C191.58 96.4575 191.843 96.1884 192.023 95.8654C192.203 95.5424 192.294 95.1772 192.287 94.8074C192.311 94.3918 192.243 93.9758 192.087 93.5897C192.046 93.4369 191.969 93.2962 191.863 93.1794C191.756 93.0625 191.623 92.9729 191.475 92.9181C191.378 92.8894 191.275 92.895 191.182 92.9341C191.089 92.9731 191.013 93.0431 190.966 93.1322C190.899 93.265 190.921 93.3683 190.899 93.3757C190.877 93.3831 190.796 93.2871 190.84 93.0879C190.872 92.9702 190.942 92.8664 191.039 92.7927C191.178 92.6989 191.346 92.6594 191.512 92.682C191.711 92.7272 191.895 92.823 192.046 92.96C192.197 93.097 192.311 93.2707 192.375 93.4642C192.564 93.8907 192.648 94.3565 192.619 94.8222C192.627 95.2547 192.509 95.6803 192.278 96.0462C192.047 96.4122 191.714 96.7024 191.32 96.8812C191.193 96.9083 191.062 96.9086 190.934 96.8819C190.807 96.8552 190.687 96.8021 190.582 96.7262C190.405 96.6303 190.353 96.5196 190.405 96.5122Z" fill="#D1734A"/>
<path d="M187.924 76.9913C189.12 75.0577 185.843 72.2681 183.452 71.5153C181.061 70.7626 177.91 71.9286 175.526 72.7183C174.05 73.2127 172.53 73.9138 170.943 73.8474C169.886 73.7407 168.852 73.4771 167.873 73.0651C166.89 72.6515 165.833 72.443 164.766 72.4526C164.234 72.4634 163.716 72.6198 163.267 72.9048C162.818 73.1898 162.456 73.5924 162.22 74.0688C162.118 74.3101 162.07 74.5705 162.078 74.8321C162.086 75.0938 162.15 75.3507 162.267 75.5853C162.383 75.8199 162.548 76.0267 162.752 76.1916C162.955 76.3565 163.191 76.4757 163.445 76.5411C163.107 76.3585 162.73 76.2602 162.346 76.2546C161.962 76.2491 161.582 76.3363 161.239 76.509C160.896 76.6818 160.6 76.9348 160.376 77.2466C160.152 77.5584 160.006 77.9198 159.952 78.2999C159.897 78.6801 159.936 79.0677 160.063 79.43C160.191 79.7922 160.404 80.1182 160.685 80.3804C160.965 80.6425 161.305 80.8329 161.675 80.9354C162.045 81.0379 162.435 81.0494 162.81 80.9691C162.117 80.4451 161.061 81.3086 161.15 82.172C161.242 82.5956 161.443 82.9878 161.733 83.31C162.023 83.6322 162.391 83.8734 162.803 84.0097C164.825 84.8953 167.187 84.6148 169.275 83.9063C171.364 83.1979 173.312 82.1056 175.386 81.3529C177.46 80.6001 180.936 79.2348 183.017 79.9728C184.552 80.5115 185.622 82.3565 186.485 81.9506C186.894 81.7335 187.246 81.4233 187.512 81.0451C187.779 80.6669 187.953 80.2313 188.02 79.7735C188.136 78.8518 188.104 77.9175 187.924 77.006" fill="#263238"/>
<path d="M162.855 76.4088C162.9 76.4088 163.106 76.7704 163.63 77.3313C164.373 78.1206 165.298 78.716 166.324 79.0656C167.828 79.6132 169.488 79.5469 170.944 78.8811C172.597 78.1431 174.006 76.6671 175.63 75.2723C177.138 73.8636 179.041 72.9494 181.084 72.6524C181.928 72.5508 182.784 72.6429 183.587 72.9217C184.39 73.2004 185.119 73.6586 185.719 74.2612C186.103 74.6834 186.399 75.1787 186.588 75.7176C186.777 76.2565 186.855 76.8279 186.818 77.3977C186.787 77.7006 186.718 77.9982 186.612 78.2833C186.523 78.4752 186.464 78.5712 186.449 78.5638C186.543 78.1759 186.604 77.781 186.634 77.383C186.635 76.3038 186.217 75.2663 185.468 74.49C184.893 73.9497 184.206 73.5442 183.455 73.3029C182.705 73.0616 181.91 72.9907 181.128 73.0952C179.19 73.4082 177.391 74.2951 175.962 75.6413C174.368 76.9992 172.914 78.5195 171.15 79.287C169.85 79.8444 168.404 79.9674 167.028 79.6377C165.652 79.3079 164.419 78.5431 163.512 77.4568C163.321 77.226 163.151 76.9791 163.003 76.7188C162.885 76.49 162.841 76.4162 162.855 76.4088Z" fill="#455A64"/>
<path d="M190.345 91.1313C190.345 91.1313 190.138 90.9985 189.954 90.6074C189.711 90.0559 189.627 89.4477 189.71 88.8509C189.821 87.2937 191.186 85.6111 191.378 83.4561C191.499 82.4594 191.311 81.4497 190.839 80.5632C190.426 79.8612 189.793 79.3142 189.039 79.006C188.526 78.7923 187.966 78.716 187.415 78.7846C187.031 78.8436 186.817 78.9396 186.803 78.9027C186.788 78.8658 186.972 78.7256 187.378 78.6001C187.967 78.4532 188.586 78.4841 189.157 78.6887C190.013 78.9825 190.741 79.5641 191.216 80.3344C191.764 81.2935 191.986 82.4042 191.85 83.5004C191.728 84.5668 191.413 85.6021 190.921 86.5557C190.519 87.2922 190.226 88.0826 190.05 88.9026C189.919 89.6582 190.022 90.4358 190.345 91.1313Z" fill="#455A64"/>
<path d="M148.56 56.3867C148.302 56.1727 147.387 48.2687 147.387 48.2687L154.029 44.3721L164.361 46.7558L162.287 52.5417L151.674 58.1062L148.56 56.3867Z" fill="#EB996E"/>
<path d="M128.013 62.6378C128.013 62.6378 144.707 53.9589 155.415 52.8224C167.305 51.553 179.29 58.6304 179.29 58.6304L176.921 27.2728C176.921 27.2728 165.74 18.926 151.519 22.4758C139.46 25.4869 127.394 31.3318 127.394 31.3318L128.013 62.6378Z" fill="#FAFAFA"/>
<path d="M128.014 62.6376V62.0988L127.97 60.4826C127.933 59.0066 127.881 56.9402 127.807 54.2465C127.682 48.7927 127.497 40.9625 127.269 31.3685V31.2726L127.357 31.2283C130.553 29.7523 134.036 28.2172 137.785 26.8003C141.722 25.242 145.737 23.8896 149.814 22.7487L151.423 22.3206L153.084 21.9811C154.205 21.7532 155.338 21.593 156.479 21.5014C158.822 21.3403 161.175 21.4368 163.497 21.7893C165.884 22.1722 168.224 22.8054 170.478 23.6785C172.802 24.5628 175.014 25.717 177.069 27.1176L177.135 27.1619V27.2578C177.135 27.5604 177.187 27.8925 177.209 28.2172C178.013 38.9699 178.788 49.2502 179.489 58.6155V58.9476L179.194 58.7852C175.864 56.9514 172.342 55.4887 168.693 54.4236C165.377 53.444 161.943 52.9226 158.486 52.8738C155.419 52.893 152.369 53.335 149.423 54.1875C146.663 54.9255 144.169 55.7963 141.925 56.6302C137.453 58.3203 133.992 59.8774 131.63 60.9697L128.944 62.239L128.257 62.5711L128.014 62.6745L128.243 62.5416L128.914 62.1874C129.519 61.8774 130.39 61.4494 131.586 60.859C133.925 59.7372 137.379 58.1431 141.851 56.431C144.065 55.5823 146.589 54.7041 149.357 53.9439C152.324 53.0645 155.399 52.6049 158.493 52.5786C161.993 52.6224 165.471 53.1515 168.825 54.1506C172.508 55.2059 176.06 56.6714 179.416 58.5195L179.15 58.6893C178.412 49.324 177.674 39.0437 176.84 28.291L176.766 27.3243L176.847 27.4645C174.819 26.0886 172.637 24.9542 170.346 24.0844C168.115 23.2192 165.8 22.5909 163.438 22.2099C161.13 21.8433 158.789 21.732 156.456 21.8778C155.332 21.9686 154.213 22.1239 153.106 22.3428L151.468 22.6822L149.866 23.1029C145.804 24.2126 141.802 25.528 137.874 27.0438C134.132 28.4755 130.641 29.9958 127.46 31.4718L127.542 31.339C127.697 40.933 127.822 48.7115 127.911 54.1432C127.948 56.8516 127.977 58.9697 127.999 60.4236V62.0767C128.021 62.4678 128.014 62.6376 128.014 62.6376Z" fill="#263238"/>
<path d="M170.523 49.9881C170.412 49.9881 169.97 44.6966 169.534 38.1801C169.099 31.6635 168.826 26.3057 168.929 26.3057C169.032 26.3057 169.475 31.5897 169.918 38.1137C170.361 44.6376 170.626 49.9807 170.523 49.9881Z" fill="#E0E0E0"/>
<path d="M166.331 48.3422C166.228 48.3422 165.785 43.0507 165.35 36.5342C164.914 30.0177 164.612 24.7262 164.744 24.6819C164.877 24.6376 165.291 29.966 165.726 36.4899C166.161 43.0138 166.442 48.3348 166.331 48.3422Z" fill="#E0E0E0"/>
<path d="M162.294 47.7667C162.19 47.7667 161.748 42.4753 161.305 35.9587C160.862 29.4422 160.567 24.1064 160.707 24.1064C160.847 24.1064 161.253 29.3905 161.689 35.9144C162.124 42.4384 162.397 47.7593 162.294 47.7667Z" fill="#E0E0E0"/>
<path d="M154.007 48.9252C153.903 48.9252 153.461 43.6337 153.018 37.1172C152.575 30.6007 152.28 25.3092 152.42 25.2649C152.56 25.2206 152.966 30.549 153.401 37.0729C153.837 43.5968 154.11 48.9178 154.007 48.9252Z" fill="#E0E0E0"/>
<path d="M150.147 49.9881C150.043 49.9881 149.601 44.704 149.165 38.1801C148.73 31.6562 148.457 26.3057 148.56 26.3057C148.663 26.3057 149.106 31.5971 149.549 38.1137C149.992 44.6302 150.257 49.9807 150.147 49.9881Z" fill="#E0E0E0"/>
<path d="M146.043 51.0363C145.932 51.0363 145.497 45.7448 145.054 39.2283C144.611 32.7117 144.316 27.376 144.449 27.376C144.582 27.376 145.003 32.6601 145.438 39.184C145.873 45.7079 146.124 51.0289 146.043 51.0363Z" fill="#E0E0E0"/>
<path d="M138.228 54.2609C138.117 54.2609 137.675 48.9768 137.239 42.4529C136.804 35.929 136.501 30.608 136.634 30.6006C136.767 30.5932 137.18 35.8921 137.623 42.4086C138.066 48.9251 138.332 54.2535 138.228 54.2609Z" fill="#E0E0E0"/>
<path d="M141.962 52.5124C141.851 52.5124 141.416 47.2283 140.973 40.7044C140.53 34.1805 140.235 28.8521 140.368 28.8447C140.501 28.8374 140.921 34.1362 141.357 40.6527C141.792 47.1693 142.065 52.5124 141.962 52.5124Z" fill="#E0E0E0"/>
<path d="M133.866 55.6635C133.763 55.6635 133.32 50.372 132.885 43.8555C132.449 37.3389 132.147 32.0475 132.28 32.0032C132.412 31.9589 132.826 37.2873 133.269 43.8112C133.711 50.3351 133.977 55.6561 133.866 55.6635Z" fill="#E0E0E0"/>
<path d="M158.036 47.8849C157.933 47.8849 157.49 42.5934 157.047 36.0769C156.604 29.5604 156.309 24.232 156.449 24.2246C156.589 24.2172 156.995 29.5087 157.431 36.0326C157.866 42.5565 158.139 47.8775 158.036 47.8849Z" fill="#E0E0E0"/>
<path d="M163.593 48.1355C164.459 47.6925 165.376 47.3555 166.323 47.1319C168.05 46.5931 170.463 45.8846 173.194 45.1319L173.083 45.8182L172.006 45.1393C166.707 41.8552 161.77 40.512 161.844 40.2832C161.844 40.1873 163.128 40.4087 165.098 41.0212C167.656 41.885 170.107 43.0363 172.404 44.4529C172.788 44.6817 173.142 44.9252 173.504 45.154C173.564 45.1951 173.612 45.2525 173.641 45.3195C173.669 45.3865 173.679 45.4604 173.667 45.5324C173.655 45.6044 173.623 45.6717 173.575 45.7262C173.526 45.7808 173.463 45.8204 173.393 45.8404C170.655 46.5784 168.227 47.1835 166.456 47.5968C165.528 47.8951 164.566 48.0761 163.593 48.1355Z" fill="#5285F2"/>
<path d="M167.667 47.2946C167.46 47.2946 167.113 45.5677 166.929 43.3979C166.744 41.2282 166.707 39.4423 166.929 39.4201C167.15 39.398 167.482 41.1397 167.667 43.3168C167.851 45.4939 167.881 47.2725 167.667 47.2946Z" fill="#5285F2"/>
<path d="M173.504 45.8993C173.504 45.8993 173.593 46.0321 173.674 46.3273C173.775 46.7688 173.747 47.2299 173.593 47.6557C173.336 48.3289 172.884 48.9098 172.294 49.3236C171.944 49.5911 171.565 49.8188 171.165 50.0026C170.712 50.2037 170.236 50.3499 169.748 50.438C168.63 50.6504 167.48 50.6202 166.375 50.3494C165.761 50.2057 165.159 50.0133 164.575 49.7738C163.577 49.4106 162.66 48.854 161.877 48.136C161.095 47.4179 160.461 46.5525 160.014 45.5893C159.235 44.2019 158.973 42.5832 159.276 41.0211C159.467 40.1924 159.949 39.4594 160.634 38.9547C161.293 38.503 162.053 38.2192 162.848 38.1282C164.764 37.8782 166.713 38.1343 168.499 38.871C170.286 39.6077 171.849 40.7993 173.032 42.3274C174.015 43.6293 174.602 45.1873 174.722 46.8144C174.808 47.3981 174.793 47.9922 174.678 48.5709C174.564 48.0026 174.48 47.4286 174.427 46.8513C174.204 45.3187 173.574 43.8739 172.604 42.6669C171.152 40.8915 169.163 39.6355 166.936 39.0876C165.64 38.7574 164.291 38.6822 162.966 38.8662C162.292 38.962 161.65 39.2148 161.091 39.6042C160.552 40.0016 160.174 40.581 160.029 41.2351C159.773 42.6211 160.014 44.0527 160.708 45.2794C161.28 46.4802 162.139 47.5218 163.209 48.3126C165.093 49.6021 167.375 50.1778 169.645 49.9362C170.503 49.8172 171.322 49.4987 172.036 49.0063C172.584 48.6576 173.026 48.1648 173.313 47.5819C173.473 47.2021 173.544 46.7905 173.519 46.379C173.482 46.2218 173.477 46.0585 173.504 45.8993Z" fill="#5285F2"/>
<path d="M156.745 59.3755L160.073 56.6818C161.528 55.5069 162.473 53.8142 162.708 51.9586L162.892 50.5416L152.892 48.5195C152.892 48.5195 151.955 51.5453 155.719 52.2981C152.383 53.7741 151.136 56.7261 150.221 60.0397L156.745 59.3755Z" fill="#EB996E"/>
<path d="M152.619 54.852C152.671 54.852 152.885 54.4387 153.49 53.8852C154.321 53.1105 155.409 52.6713 156.545 52.6527H157.615L156.612 52.2763L154.28 51.3981H154.324C153.857 51.1516 153.47 50.7768 153.208 50.318C152.947 49.8591 152.822 49.3352 152.848 48.8077C152.856 48.7279 152.87 48.6488 152.892 48.5716L152.612 48.7266C155.416 49.4203 157.955 50.0033 159.815 50.3206C160.744 50.483 161.497 50.5937 162.029 50.6454C162.298 50.6991 162.574 50.714 162.848 50.6896C161.877 50.4039 160.892 50.1723 159.896 49.9959C158.065 49.5974 155.542 48.9627 152.737 48.2616L152.523 48.21L152.457 48.4166C152.424 48.5249 152.402 48.6361 152.39 48.7487C152.314 49.3877 152.466 50.0331 152.818 50.5716C153.137 51.0619 153.564 51.4732 154.066 51.7745L156.412 52.5863L156.479 52.2025C155.256 52.2537 154.103 52.7839 153.268 53.6785C152.951 54.0048 152.727 54.4099 152.619 54.852Z" fill="#D1734A"/>
<path d="M176.22 326.531L190.574 212.879L187.821 195.654H158.988L155.549 324.457C155.534 324.951 155.696 325.433 156.004 325.818C156.312 326.203 156.747 326.466 157.231 326.561L172.995 328.989C173.369 329.046 173.751 329.027 174.117 328.933C174.484 328.84 174.828 328.674 175.129 328.444C175.43 328.215 175.682 327.927 175.869 327.599C176.057 327.27 176.176 326.907 176.22 326.531Z" fill="#263238"/>
<path d="M190.161 216.71L216.271 242.54L178.707 251.669L181.379 270.584L232.219 263.669C234.37 263.376 236.439 262.648 238.301 261.531C240.162 260.413 241.776 258.928 243.046 257.167C244.966 254.502 246.019 251.31 246.062 248.025C246.106 244.74 245.138 241.522 243.289 238.806L203.688 180.688L185.976 186.452L190.161 216.71Z" fill="#263238"/>
<path d="M188.722 210.112C189.145 211.157 189.45 212.246 189.629 213.359C189.932 214.445 190.111 215.562 190.161 216.688C189.737 215.643 189.433 214.554 189.253 213.441C188.95 212.355 188.772 211.238 188.722 210.112Z" fill="#455A64"/>
<path d="M184.921 254.045C184.921 254.045 185.128 253.964 185.541 253.838L187.364 253.27L194.375 251.137L219.865 243.469L219.799 243.713L188.456 210.348L188.788 210.237C188.161 215.484 187.519 220.953 186.854 226.54C183.622 253.61 180.589 278.104 178.235 295.816C177.069 304.672 176.021 311.823 175.283 316.76C174.862 319.225 174.589 321.144 174.301 322.428L173.991 323.904C173.917 324.229 173.873 324.399 173.873 324.399C173.891 324.228 173.919 324.058 173.954 323.889C174.013 323.55 174.109 323.063 174.227 322.413C174.486 321.129 174.737 319.203 175.135 316.738C175.873 311.793 176.825 304.635 177.962 295.779C180.242 278.067 183.231 253.565 186.463 226.495C187.128 220.909 187.777 215.425 188.404 210.193L188.449 209.787L188.729 210.082L220.005 243.514L220.168 243.691L219.939 243.757L194.412 251.3L187.386 253.351L185.541 253.883L184.921 254.045Z" fill="#455A64"/>
<path d="M176.471 324.391C176.36 324.391 179.342 300.251 183.113 270.517C186.884 240.783 190.043 216.643 190.146 216.688C190.249 216.732 187.275 240.813 183.504 270.562C179.733 300.31 176.574 324.399 176.471 324.391Z" fill="#455A64"/>
<path d="M185.925 198.083C186.194 198.646 186.397 199.238 186.53 199.847C186.847 200.946 187.268 202.489 187.622 204.201C187.976 205.913 188.272 207.478 188.441 208.629C188.571 209.238 188.633 209.859 188.626 210.481C188.414 209.898 188.263 209.295 188.176 208.681C187.91 207.419 187.593 205.935 187.246 204.297L186.264 199.928C186.091 199.326 185.977 198.708 185.925 198.083Z" fill="#455A64"/>
<path d="M187.6 195.854C187.6 195.854 187.969 195.5 188.663 195.744C188.865 195.816 189.045 195.941 189.184 196.106C189.323 196.27 189.415 196.469 189.452 196.681C189.502 196.944 189.473 197.215 189.368 197.461C189.263 197.707 189.086 197.916 188.862 198.061C188.63 198.188 188.364 198.242 188.101 198.215C187.838 198.189 187.588 198.084 187.386 197.913C187.219 197.772 187.098 197.585 187.037 197.374C186.977 197.164 186.98 196.941 187.046 196.733C187.117 196.461 187.292 196.227 187.533 196.083C187.703 195.987 187.814 195.987 187.821 196.009C187.829 196.032 187.423 196.216 187.305 196.799C187.272 196.954 187.283 197.114 187.336 197.263C187.39 197.411 187.484 197.542 187.607 197.64C187.758 197.76 187.94 197.833 188.132 197.85C188.323 197.867 188.515 197.828 188.685 197.736C188.845 197.627 188.971 197.475 189.049 197.298C189.127 197.12 189.154 196.925 189.128 196.733C189.103 196.573 189.04 196.423 188.944 196.294C188.847 196.165 188.72 196.062 188.574 195.995C188.265 195.872 187.931 195.824 187.6 195.854Z" fill="#455A64"/>
<path d="M223.954 246.968C223.88 247.056 222.404 245.706 220.264 244.488C218.124 243.27 216.257 242.643 216.286 242.532C219.235 243.169 221.907 244.718 223.925 246.96L223.954 246.968Z" fill="#455A64"/>
<path d="M158.574 195.308L156.036 150.135C156.036 150.135 152.25 133.862 148.98 127.323L166.242 114.674L170.715 116.821L179.571 124.873L188.53 119.641C188.53 119.641 199.26 124.157 202.087 125.855C204.913 127.552 205.474 132.068 205.474 132.068C205.474 132.068 196.168 148.467 195.88 154.902C195.593 161.338 205.187 177.78 205.187 177.78C205.187 177.78 210.434 179.337 210.729 183.559C210.987 187.212 209.29 188.518 209.29 188.518C209.29 188.518 208.552 184.548 203.216 186.245C197.88 187.942 186.714 197.824 178.707 198.105C170.7 198.385 158.574 195.308 158.574 195.308Z" fill="#5285F2"/>
<path d="M205.002 130.143L211.806 158.039L219.54 139.589L230.507 146.231C230.507 146.231 220.175 182.991 209.932 179.375C209.932 179.375 203.555 176.15 202.773 173.862C201.991 171.574 190.168 154.902 190.168 154.902L205.002 130.143Z" fill="#5285F2"/>
<path d="M205.165 177.78C205.165 177.78 205.069 177.677 204.929 177.47L204.309 176.562C204.043 176.164 203.711 175.677 203.379 175.086C203.047 174.496 202.641 173.839 202.25 173.064C201.858 172.289 201.416 171.47 201.025 170.54C200.633 169.611 200.213 168.614 199.814 167.551C198.993 165.227 198.359 162.84 197.918 160.415C197.511 157.975 197.291 155.508 197.261 153.035C197.261 151.899 197.261 150.821 197.342 149.81C197.423 148.799 197.497 147.869 197.578 147.013C197.777 145.308 197.991 143.935 198.198 142.998C198.287 142.57 198.36 142.209 198.427 141.921C198.442 141.793 198.477 141.669 198.53 141.552C198.547 141.679 198.547 141.808 198.53 141.936C198.486 142.231 198.434 142.592 198.375 143.028C198.22 143.972 198.043 145.345 197.881 147.042C197.814 147.891 197.711 148.821 197.696 149.825C197.681 150.828 197.637 151.899 197.644 153.028C197.697 155.474 197.926 157.913 198.331 160.326C198.764 162.733 199.383 165.101 200.183 167.411C200.567 168.467 200.921 169.478 201.349 170.363C201.777 171.249 202.146 172.12 202.515 172.895C202.884 173.67 203.253 174.326 203.593 174.924C203.932 175.522 204.22 176.024 204.464 176.437L205.017 177.389C205.081 177.513 205.13 177.645 205.165 177.78Z" fill="#263238"/>
<path d="M146.021 54.1357C146.021 54.1357 128.752 83.1539 127.571 87.4343C126.331 91.8623 150.309 129.788 150.309 129.788C150.309 129.788 150.774 131.006 150.781 130.998L167.917 117.309L147.718 88.7258L158.574 60.18L146.021 54.1357Z" fill="#5285F2"/>
<path d="M148.42 89.8841C148.361 89.9284 147.999 89.4118 147.239 88.7623C146.244 87.923 145.071 87.3224 143.808 87.0064C142.546 86.6905 141.228 86.6676 139.955 86.9395C138.981 87.1535 138.412 87.4413 138.383 87.3749C138.816 87.0251 139.319 86.7734 139.859 86.6369C140.442 86.4675 141.045 86.3733 141.652 86.3564C142.398 86.3405 143.142 86.4224 143.866 86.6C144.586 86.7891 145.281 87.0668 145.933 87.4265C146.467 87.7296 146.963 88.0964 147.409 88.5188C147.841 88.8945 148.186 89.3605 148.42 89.8841Z" fill="#263238"/>
<path d="M156.264 132.135C156.191 132.135 156.227 131.124 155.954 129.537C155.787 128.605 155.54 127.689 155.216 126.799C154.447 124.609 153.236 122.599 151.659 120.895C151.016 120.207 150.318 119.573 149.571 118.998C148.279 118.024 147.357 117.582 147.408 117.522C147.638 117.584 147.859 117.676 148.065 117.796C148.319 117.911 148.565 118.041 148.803 118.187C149.123 118.37 149.434 118.569 149.733 118.784C150.529 119.337 151.271 119.965 151.947 120.659C152.757 121.518 153.476 122.458 154.095 123.463C154.697 124.477 155.192 125.55 155.571 126.666C155.875 127.579 156.092 128.518 156.22 129.471C156.271 129.835 156.303 130.202 156.316 130.57C156.338 130.848 156.338 131.127 156.316 131.404C156.338 131.649 156.321 131.896 156.264 132.135Z" fill="#263238"/>
<path d="M203.157 178.622C203.157 178.666 202.618 178.622 201.681 178.681C200.342 178.814 199.033 179.156 197.799 179.692C195.974 180.5 194.256 181.531 192.685 182.762C190.884 184.12 188.995 185.773 186.847 187.264C184.835 188.736 182.53 189.758 180.087 190.26C178.09 190.613 176.048 190.635 174.043 190.326C172.696 190.13 171.37 189.813 170.08 189.382C169.622 189.227 169.275 189.094 169.039 188.998C168.918 188.956 168.802 188.901 168.692 188.836C169.176 188.943 169.654 189.076 170.124 189.234C171.417 189.609 172.737 189.886 174.072 190.061C176.036 190.321 178.029 190.269 179.976 189.906C182.375 189.406 184.64 188.4 186.618 186.954C188.759 185.478 190.633 183.832 192.463 182.481C194.066 181.246 195.823 180.224 197.688 179.441C198.953 178.915 200.298 178.608 201.666 178.533C202.035 178.511 202.405 178.511 202.773 178.533C202.904 178.547 203.033 178.577 203.157 178.622Z" fill="#263238"/>
<path d="M211.113 170.843C210.882 170.248 210.731 169.625 210.663 168.991C210.426 167.468 210.349 165.925 210.434 164.386C210.522 162.847 210.769 161.321 211.172 159.832C211.307 159.208 211.525 158.605 211.821 158.039C211.732 158.666 211.604 159.287 211.438 159.899C211.124 161.384 210.924 162.892 210.84 164.408C210.759 165.924 210.799 167.444 210.958 168.954C211.053 169.579 211.105 170.211 211.113 170.843Z" fill="#263238"/>
<g opacity="0.3">
<path d="M169.416 188.666C169.475 186.821 171.674 185.765 173.519 185.876C175.364 185.987 177.113 186.821 178.958 186.887C182.087 187.005 184.862 184.954 187.253 182.961C189.644 180.968 192.301 178.821 195.43 178.695C195.821 178.695 196.316 178.762 196.426 179.145C196.537 179.529 196.235 179.817 195.969 180.053C192.117 183.492 188.176 186.998 183.423 189.013C178.67 191.027 172.877 191.345 168.56 188.518" fill="black"/>
</g>
<g opacity="0.3">
<path d="M198.183 143.907C197.662 152.939 200.599 161.831 206.397 168.777C207.363 169.921 208.434 171.05 208.906 172.467C209.378 173.884 209.061 175.714 207.747 176.438C207.175 176.698 206.538 176.784 205.917 176.684C205.296 176.584 204.719 176.303 204.256 175.877C203.344 175.012 202.633 173.956 202.175 172.785C197.821 163.471 195.666 152.718 198.485 142.829" fill="black"/>
</g>
<path d="M113.062 293.035C113.8 290.555 115.312 288.164 117.681 287.131C120.05 286.098 122.995 286.673 125.519 287.588C128.043 288.503 130.515 289.736 133.194 289.898C135.873 290.061 138.892 288.791 139.696 286.208C140.434 283.795 138.995 281.234 137.179 279.485C135.261 277.637 132.908 276.302 130.338 275.603C127.767 274.904 125.062 274.863 122.472 275.484C119.882 276.106 117.49 277.369 115.516 279.158C113.543 280.947 112.051 283.204 111.18 285.721" fill="#5285F2"/>
<g opacity="0.5">
<path d="M113.062 293.035C113.8 290.555 115.312 288.164 117.681 287.131C120.05 286.098 122.995 286.673 125.519 287.588C128.043 288.503 130.515 289.736 133.194 289.898C135.873 290.061 138.892 288.791 139.696 286.208C140.434 283.795 138.995 281.234 137.179 279.485C135.261 277.637 132.908 276.302 130.338 275.603C127.767 274.904 125.062 274.863 122.472 275.484C119.882 276.106 117.49 277.369 115.516 279.158C113.543 280.947 112.051 283.204 111.18 285.721" fill="black"/>
</g>
<path d="M91.8521 303.795C87.9185 300.068 88.1178 293.566 90.0735 288.518C92.0292 283.47 96.317 279.588 101.092 277.027C105.756 274.579 110.914 273.219 116.178 273.049C121.443 272.879 126.678 273.904 131.49 276.046C129.134 276.147 126.838 276.824 124.804 278.018C122.77 279.212 121.059 280.886 119.822 282.894C117.675 286.474 117.195 290.813 115.394 294.584C113.39 298.837 109.833 302.16 105.455 303.873C101.078 305.586 96.21 305.558 91.8521 303.795Z" fill="#5285F2"/>
<path d="M89.9621 281.367C85.6153 276.237 85.0322 267.994 85.6743 261.293C86.3164 254.592 87.8883 247.854 86.8108 241.212C86.1835 237.271 84.6559 233.515 84.1393 229.559C83.6227 225.603 84.3533 221.138 87.416 218.585C90.9362 215.633 96.4786 216.371 100.146 219.101C103.814 221.832 105.925 226.179 107.475 230.489C110.884 239.965 112.139 250.466 109.335 260.134C106.53 269.802 99.9694 278.451 90.3385 281.367" fill="#5285F2"/>
<path d="M87.8735 323.491C87.8573 323.295 87.8573 323.097 87.8735 322.901C87.8735 322.517 87.8735 321.942 87.8735 321.204C87.9326 319.728 88.0728 317.602 88.4049 314.99C88.7884 311.925 89.3452 308.884 90.0728 305.883C90.9772 302.197 92.3748 298.649 94.2277 295.337C96.0875 292.029 98.3699 288.978 101.017 286.259C103.173 284.042 105.561 282.063 108.139 280.355C109.224 279.617 110.272 279.034 111.18 278.503C112.087 277.972 112.914 277.617 113.578 277.3L115.143 276.643C115.321 276.558 115.506 276.489 115.696 276.437C115.528 276.539 115.353 276.63 115.172 276.71L113.637 277.448C112.988 277.787 112.161 278.186 111.276 278.702C110.39 279.219 109.349 279.831 108.279 280.591C102.609 284.452 97.9083 289.572 94.545 295.551C90.5451 302.547 89.4455 309.905 88.641 315.056C88.2794 317.661 88.0949 319.779 87.999 321.248C87.9547 321.986 87.9252 322.525 87.903 322.938C87.9071 323.123 87.8972 323.308 87.8735 323.491Z" fill="#263238"/>
<path d="M50.3614 261.116C42.3098 265.972 42.3394 270.393 43.7194 274.563C45.0995 278.732 49.9998 281.633 54.0957 280.068C56.4056 279.182 58.0883 277.175 59.52 275.153C60.9517 273.131 62.2949 270.968 64.3022 269.515C66.3096 268.061 69.2173 267.507 71.232 268.946" fill="#5285F2"/>
<g opacity="0.5">
<path d="M50.3614 261.116C42.3098 265.972 42.3394 270.393 43.7194 274.563C45.0995 278.732 49.9998 281.633 54.0957 280.068C56.4056 279.182 58.0883 277.175 59.52 275.153C60.9517 273.131 62.2949 270.968 64.3022 269.515C66.3096 268.061 69.2173 267.507 71.232 268.946" fill="black"/>
</g>
<path d="M44.3323 266.437C46.4356 263.529 51.6385 262.688 54.9152 264.141C58.1919 265.595 60.6052 268.466 62.7306 271.322C64.856 274.178 66.9741 277.226 69.9556 279.226C72.9371 281.226 77.0995 281.949 80.0736 279.964C81.0198 279.258 81.8122 278.366 82.4022 277.343C82.9923 276.321 83.3676 275.188 83.5053 274.016C83.7686 271.667 83.6087 269.29 83.033 266.997C82.295 263.625 81.1658 260.097 78.4648 257.957C75.4537 255.566 71.2766 255.455 67.439 255.581C63.011 255.721 58.583 256.053 54.4207 257.581C50.2584 259.108 46.0592 262.407 44.3027 266.437" fill="#5285F2"/>
<path d="M81.1803 317.078C81.1708 317.019 81.1708 316.96 81.1803 316.901C81.1803 316.761 81.1803 316.591 81.1803 316.384C81.1803 315.897 81.1803 315.226 81.1139 314.384C81.0622 312.621 80.9884 310.119 80.8999 307.041C80.8113 303.964 80.6785 300.244 80.4497 296.156C80.2209 292.067 79.9183 287.558 79.2984 282.872C79.0348 280.594 78.5881 278.34 77.9626 276.134C76.7179 272.231 74.8106 268.571 72.3243 265.315C71.2878 263.987 70.1504 262.741 68.9221 261.588C67.1294 259.929 65.0998 258.546 62.9 257.485C62.5089 257.3 62.162 257.123 61.8595 256.998L61.0698 256.695L60.5901 256.503L60.4277 256.422L60.6049 256.466L61.0993 256.629L61.8964 256.902C62.2137 257.012 62.5606 257.182 62.9591 257.352C65.2003 258.378 67.2711 259.742 69.0992 261.396C70.3509 262.549 71.5084 263.8 72.5605 265.138C73.7544 266.68 74.8137 268.322 75.7265 270.045C76.7433 271.947 77.5832 273.938 78.2357 275.994C78.871 278.221 79.3227 280.497 79.5862 282.798C80.2135 287.499 80.5087 292.008 80.7154 296.082C80.922 300.156 81.0253 303.875 81.0917 306.982C81.1582 310.089 81.1729 312.598 81.1877 314.362V316.34C81.1877 316.554 81.1877 316.724 81.1877 316.864C81.1947 316.935 81.1922 317.007 81.1803 317.078Z" fill="#263238"/>
<path d="M84.0804 320.688C83.6981 319.558 83.4045 318.401 83.2022 317.226C82.6416 314.023 82.5175 310.758 82.8332 307.522C83.3266 302.736 84.3539 298.02 85.8959 293.463C87.549 288.297 89.7925 282.747 91.7039 276.799C92.6489 273.908 93.4202 270.963 94.0139 267.98C94.5452 265.198 94.927 262.389 95.1578 259.566C95.5249 254.781 95.6111 249.978 95.416 245.183C95.2758 241.079 95.0544 237.766 94.9216 235.478L94.7666 232.843C94.7666 232.556 94.7666 232.327 94.7666 232.157C94.7569 232.079 94.7569 231.999 94.7666 231.921C94.7732 231.997 94.7732 232.074 94.7666 232.15C94.7666 232.327 94.8035 232.548 94.833 232.836C94.8872 233.466 94.961 234.344 95.0544 235.471C95.2316 237.758 95.4898 241.072 95.6596 245.175C95.8927 249.981 95.8336 254.797 95.4825 259.596C95.2601 262.431 94.8832 265.252 94.3533 268.046C93.7614 271.042 92.99 273.999 92.0434 276.902C90.1172 282.872 87.8663 288.4 86.2058 293.559C84.6532 298.104 83.6039 302.806 83.0767 307.581C82.7449 310.798 82.8292 314.045 83.3276 317.241C83.5269 318.37 83.7114 319.241 83.8664 319.824C83.9328 320.105 83.9918 320.326 84.0287 320.488C84.0534 320.553 84.0707 320.619 84.0804 320.688Z" fill="#263238"/>
<path d="M104.029 324.318H66.2433L65.3799 317.049H104.029V324.318Z" fill="#455A64"/>
<path d="M70.3018 323.491L75.025 345.314H95.5561L99.9767 323.491H70.3018Z" fill="#455A64"/>
<path d="M104.058 324.318C104.058 324.421 95.7553 324.48 85.5045 324.451C75.2537 324.421 66.9512 324.318 66.9512 324.215C66.9512 324.111 75.2611 324.06 85.5119 324.089C95.7627 324.119 104.058 324.222 104.058 324.318Z" fill="#455A64"/>
<path d="M97.5493 335.093C96.5212 334.324 95.4036 333.682 94.2209 333.182C92.9286 332.675 91.5571 332.4 90.1693 332.37C88.47 332.376 86.7854 332.686 85.1952 333.285C83.4757 333.868 81.8668 334.547 80.3023 334.916C78.91 335.219 77.4738 335.261 76.0661 335.042C75.1197 334.908 74.202 334.619 73.3503 334.185C73.1196 334.065 72.8998 333.924 72.6935 333.765C72.5533 333.662 72.4795 333.602 72.4868 333.588C72.4942 333.573 72.8116 333.78 73.4093 334.06C74.2659 334.438 75.1737 334.686 76.103 334.798C77.4792 334.975 78.8757 334.907 80.2285 334.599C81.7414 334.222 83.3502 333.536 85.0845 332.953C86.7143 332.34 88.4429 332.033 90.1841 332.045C91.6051 332.097 93.0052 332.404 94.3169 332.953C95.1968 333.321 96.0234 333.805 96.7744 334.392C96.9807 334.548 97.1778 334.716 97.3648 334.894C97.4903 335.012 97.5567 335.078 97.5493 335.093Z" fill="#263238"/>
<path d="M97.2611 336.547C96.2684 335.804 95.1968 335.173 94.0656 334.665C92.8248 334.159 91.5013 333.886 90.1615 333.86C88.5195 333.865 86.891 334.158 85.3498 334.724C83.6819 335.285 82.1247 335.927 80.634 336.333C79.3111 336.712 77.9341 336.866 76.5602 336.79C75.6316 336.726 74.7256 336.475 73.896 336.052C73.6738 335.935 73.4615 335.799 73.2613 335.646C73.1211 335.543 73.0547 335.484 73.0621 335.477C73.0695 335.469 73.3794 335.661 73.9551 335.927C74.7877 336.281 75.6782 336.478 76.5823 336.51C77.9207 336.553 79.257 336.376 80.538 335.986C82.014 335.58 83.5491 334.923 85.2391 334.362C86.8177 333.784 88.4876 333.494 90.1689 333.506C91.545 333.549 92.9002 333.855 94.1615 334.407C95.0082 334.778 95.8022 335.259 96.5231 335.838C96.7208 335.991 96.9082 336.156 97.084 336.333C97.2094 336.473 97.2685 336.539 97.2611 336.547Z" fill="white"/>
<path d="M97.9177 333.647C96.8593 332.847 95.7129 332.171 94.5008 331.632C93.1856 331.065 91.7827 330.728 90.3533 330.636C88.5885 330.59 86.8323 330.896 85.1873 331.536C83.5296 332.184 81.837 332.738 80.1172 333.197C78.6686 333.441 77.1894 333.441 75.7408 333.197C74.7666 333.041 73.8213 332.74 72.9365 332.304C72.6993 332.182 72.4722 332.041 72.2575 331.883C72.1099 331.772 72.0361 331.713 72.0435 331.698C72.0509 331.684 72.3756 331.898 72.9955 332.178C73.8894 332.544 74.8271 332.792 75.7851 332.916C77.2021 333.119 78.6426 333.092 80.0508 332.835C81.7513 332.363 83.4263 331.804 85.0692 331.16C86.747 330.508 88.5397 330.204 90.3385 330.267C91.802 330.376 93.2341 330.745 94.5672 331.359C95.4682 331.759 96.316 332.27 97.0912 332.879C97.3029 333.042 97.505 333.217 97.6964 333.403C97.8661 333.566 97.9251 333.632 97.9177 333.647Z" fill="white"/>
<path d="M104.368 324.355C104.368 324.451 95.8661 324.533 85.3791 324.533C74.8922 324.533 66.4199 324.459 66.4199 324.355C66.4199 324.252 74.9217 324.171 85.4013 324.171C95.8809 324.171 104.368 324.252 104.368 324.355Z" fill="#263238"/>
<path d="M301.723 147.153C301.373 146.727 301.087 146.252 300.874 145.743C300.373 144.791 299.657 143.374 298.749 141.537C296.934 137.847 294.321 132.511 291.177 125.832C284.83 112.474 276.1 93.8325 266.358 72.77H268.1C266.772 75.8622 265.355 79.1168 264.026 82.4673C261.628 88.3713 259.436 94.2753 257.502 99.9579C256.499 102.807 255.62 105.633 254.72 108.393C253.82 111.153 253.03 113.884 252.277 116.511C249.222 127.168 246.964 136.902 245.318 145.131C243.672 153.36 242.624 160.068 241.901 164.71C241.539 167.035 241.296 168.843 241.082 170.061C241.022 170.692 240.886 171.314 240.676 171.913C240.589 171.284 240.589 170.645 240.676 170.016C240.764 168.784 240.89 166.954 241.133 164.614C241.628 159.935 242.484 153.175 243.96 144.88C245.436 136.585 247.569 126.769 250.55 116.032C251.288 113.345 252.115 110.607 252.949 107.81C253.783 105.013 254.698 102.179 255.694 99.3158C257.62 93.5668 259.812 87.6776 262.218 81.7072C263.561 78.3419 264.993 75.0652 266.329 71.9656C266.378 71.8506 266.45 71.7466 266.54 71.6594C266.63 71.5723 266.737 71.5038 266.853 71.4579C266.97 71.412 267.094 71.3895 267.22 71.3918C267.345 71.394 267.468 71.421 267.583 71.4711C267.798 71.5612 267.97 71.7303 268.063 71.9434C277.76 93.0281 286.277 111.795 292.314 125.264C295.332 132.017 297.738 137.456 299.354 141.219C300.159 143.101 300.771 144.563 301.17 145.559C301.429 146.061 301.615 146.598 301.723 147.153Z" fill="#5285F2"/>
<path d="M289.37 115.36C289.51 115.876 275.621 120.098 258.374 124.791C241.127 129.485 226.979 132.909 226.839 132.363C226.699 131.817 240.588 127.625 257.872 122.932C275.156 118.238 289.229 114.865 289.37 115.36Z" fill="#5285F2"/>
<path d="M279.702 56.6669C279.976 56.4592 280.276 56.288 280.595 56.1577L281.724 55.5968C282.181 55.3902 282.735 55.1909 283.355 54.9474C284.899 54.3793 286.492 53.9568 288.115 53.6854C290.344 53.3501 292.609 53.3252 294.845 53.6116C297.65 54.0072 300.371 54.8546 302.904 56.1208C305.895 57.6608 308.658 59.6052 311.118 61.8994C313.94 64.5262 316.449 67.4708 318.594 70.6742C319.184 71.5346 319.709 72.4374 320.166 73.3753C320.638 74.3125 321.133 75.2572 321.605 76.2239L322.875 79.2497C323.317 80.2682 323.613 81.3457 323.996 82.4158C325.449 86.9409 326.356 91.6235 326.697 96.364C327.044 101.493 326.861 106.645 326.151 111.736C325.386 117.173 324.22 122.546 322.661 127.81C322.292 129.175 321.827 130.519 321.413 131.891C321 133.264 320.439 134.622 319.937 136.002C319.34 137.338 318.786 138.703 318.129 140.039L317.103 142.024L316.594 143.02L316.019 143.987C312.913 149.297 309.198 154.226 304.949 158.673C300.532 163.303 295.651 167.465 290.38 171.094C284.965 174.92 279.116 178.093 272.956 180.548C266.541 183.106 259.677 184.348 252.772 184.201C249.263 184.092 245.796 183.411 242.506 182.186C239.234 180.958 236.246 179.077 233.724 176.658C232.479 175.478 231.345 174.186 230.337 172.799C229.334 171.434 228.436 169.996 227.65 168.496C226.103 165.555 224.867 162.461 223.96 159.264C220.645 147.124 219.98 134.414 222.012 121.995C222.932 116.237 224.357 110.572 226.27 105.065C226.514 104.401 226.75 103.737 227.008 103.072C227.267 102.408 227.481 101.751 227.746 101.109C228.283 99.8252 228.814 98.5484 229.34 97.2791L231.097 93.5891C231.658 92.3566 232.351 91.2053 232.964 90.0245C235.41 85.5194 238.205 81.2135 241.326 77.1464L242.433 75.6704L243.591 74.2682C244.373 73.3457 245.111 72.4085 245.901 71.5303L248.27 68.9473C249.008 68.0764 249.894 67.3163 250.683 66.5119C252.263 64.8956 253.975 63.4934 255.569 62.0839L258.063 60.106L259.288 59.1392L260.543 58.2536L263.008 56.5267L265.48 54.9769L266.683 54.2389L267.908 53.5526L270.299 52.2316C271.886 51.405 273.458 50.667 274.956 49.9438C276.454 49.2205 277.952 48.6449 279.384 48.0766L283.51 46.549L287.303 45.3386C292.129 43.9143 295.938 43.0656 298.535 42.5711C299.834 42.335 300.83 42.1579 301.487 42.0545C301.82 41.9684 302.163 41.9311 302.506 41.9438C302.192 42.0833 301.862 42.1848 301.524 42.2464C300.867 42.4162 299.886 42.6523 298.572 42.9475C296.011 43.5674 292.24 44.5268 287.502 46.0545L283.768 47.3386L279.702 48.8958C278.299 49.4862 276.868 50.1504 275.355 50.8146C273.842 51.4788 272.351 52.2906 270.794 53.1467L268.454 54.4898L267.251 55.1762L266.071 55.9142L263.65 57.4714L261.252 59.2352L260.026 60.1208L258.831 61.0802L256.396 63.0506C254.838 64.4824 253.17 65.8772 251.635 67.4786C250.861 68.2757 250.019 69.0284 249.274 69.8919C248.528 70.7554 247.739 71.5893 246.964 72.4601C246.189 73.331 245.488 74.2682 244.713 75.176L243.576 76.5708L242.499 78.0468C239.451 82.0727 236.725 86.3318 234.344 90.7847C233.746 91.9507 233.075 93.0872 232.529 94.2976L230.824 97.9433L229.281 101.722C229.008 102.349 228.772 102.999 228.543 103.655L227.857 105.618C226.017 111.032 224.652 116.595 223.776 122.246C222.848 128.188 222.527 134.209 222.817 140.216C223.095 146.473 224.085 152.678 225.769 158.71C226.642 161.776 227.829 164.744 229.311 167.566C230.056 168.984 230.907 170.343 231.857 171.633C232.803 172.93 233.865 174.138 235.03 175.241C237.367 177.474 240.127 179.216 243.148 180.363C246.249 181.507 249.513 182.142 252.816 182.245C259.461 182.375 266.064 181.178 272.24 178.725C278.274 176.335 284.006 173.243 289.318 169.515C294.49 165.97 299.285 161.905 303.628 157.382C307.783 153.047 311.421 148.245 314.469 143.072L315.03 142.127L315.531 141.161L316.535 139.234C317.177 137.943 317.716 136.614 318.306 135.323C318.786 133.98 319.31 132.674 319.745 131.33C320.181 129.987 320.631 128.651 321 127.301C322.566 122.126 323.747 116.842 324.535 111.493C325.268 106.51 325.483 101.465 325.177 96.4378C324.886 91.808 324.044 87.2296 322.668 82.7995C322.306 81.7589 322.026 80.6962 321.605 79.6999C321.185 78.7036 320.793 77.7073 320.395 76.7479L319.022 73.9435C318.596 73.0372 318.103 72.1639 317.546 71.331C315.495 68.1774 313.088 65.2702 310.373 62.6669C308.016 60.4038 305.362 58.4722 302.484 56.9252C300.062 55.6607 297.453 54.7912 294.757 54.3496C292.587 54.0159 290.382 53.9812 288.203 54.2463C286.606 54.463 285.03 54.8186 283.495 55.309C282.875 55.523 282.321 55.6854 281.849 55.8625L280.69 56.3348C280.376 56.4858 280.044 56.5973 279.702 56.6669Z" fill="#5285F2"/>
<path d="M296.255 105.346C295.724 105.346 294.831 96.4897 294.27 85.4197C293.709 74.3497 293.672 65.4199 294.203 65.4199C294.735 65.4199 295.62 74.2759 296.189 85.3459C296.757 96.4159 296.779 105.316 296.255 105.346Z" fill="#5285F2"/>
<path d="M308.225 80.5781C308.424 81.0652 302.624 83.8991 295.133 86.5485C287.642 89.198 281.354 90.674 281.207 90.1721C281.059 89.6703 287.052 87.3899 294.491 84.7404C301.93 82.091 308.026 80.0837 308.225 80.5781Z" fill="#5285F2"/>
</svg>
