<svg width="369" height="369" viewBox="0 0 369 369" fill="none" xmlns="http://www.w3.org/2000/svg">
<path d="M115.084 30.694H112.132L111.652 31.9043H109.814L112.766 25.0557H114.604L117.475 31.9043H115.571L115.084 30.694ZM114.56 29.3287L113.652 26.8859L112.7 29.3287H114.56Z" fill="#E0E0E0"/>
<path d="M35.4245 296.905C34.2983 296.919 33.1834 296.68 32.1617 296.206C31.1399 295.733 30.2374 295.036 29.5205 294.167L31.5574 291.141C32.4529 292.213 33.727 292.897 35.1145 293.053C36.2068 293.053 36.8857 292.381 36.8857 291.097V283.392H31.0851V279.739H41.3285V291.193C41.3285 294.824 39.1145 296.905 35.4245 296.905Z" fill="#E0E0E0"/>
<path d="M116.678 232.012L113.593 227.415L112.065 229.112V232.012H108.966V220.131H112.065V225.09L116.493 220.108H120.087L115.659 225.023L120.331 231.99L116.678 232.012Z" fill="#E0E0E0"/>
<path d="M35.7421 226.315L41.3288 233.74V226.315H44.3177V238.647H41.5133L35.9192 231.267V238.647H32.9082V226.315H35.7421Z" fill="#E0E0E0"/>
<path d="M294.647 200.832L296.463 204.832L298.278 200.832H300.234V207.688H298.654V203.341L297.068 207.031H295.894L294.3 203.341V207.688H292.691V200.832H294.647Z" fill="#E0E0E0"/>
<path d="M239.29 23.6162L241.105 27.6162L242.921 23.6162H244.876V30.4648H243.297V26.1254L241.703 29.8154H240.537L238.943 26.1254V30.4648H237.349V23.6162H239.29Z" fill="#E0E0E0"/>
<path d="M349.237 232.573V242.359H354.573V245.164H345.953V232.573H349.237Z" fill="#E0E0E0"/>
<path d="M300.536 25.0918V30.4202H303.444V31.9404H298.75V25.0918H300.536Z" fill="#E0E0E0"/>
<path d="M172.87 57.0107V62.3391H175.77V63.8668H171.076V57.0107H172.87Z" fill="#E0E0E0"/>
<path d="M338.041 122.035C336.506 122.035 335.495 122.596 335.495 123.711C335.495 127.755 348.373 125.452 348.373 134.249C348.373 139.238 343.945 141.784 338.528 141.784C334.442 141.772 330.477 140.398 327.259 137.88L329.738 132.891C332.248 135.054 336.056 136.581 338.594 136.581C340.476 136.581 341.665 135.843 341.665 134.589C341.665 130.441 328.786 132.95 328.786 124.294C328.786 119.726 332.661 116.825 338.558 116.825C342.009 116.832 345.393 117.789 348.336 119.593L345.93 124.655C343.347 123.187 340.063 122.035 338.041 122.035Z" fill="#E0E0E0"/>
<path d="M264.942 242.241C263.407 242.241 262.396 242.802 262.396 243.916C262.396 247.968 275.274 245.665 275.274 254.455C275.274 259.444 270.846 261.997 265.437 261.997C261.348 261.983 257.38 260.607 254.16 258.086L256.64 253.097C259.149 255.259 262.957 256.787 265.496 256.787C267.378 256.787 268.566 256.086 268.566 254.794C268.566 250.647 255.688 253.156 255.688 244.499C255.688 239.931 259.562 237.038 265.459 237.038C268.923 237.035 272.32 237.99 275.274 239.798L272.868 244.861C270.263 243.392 266.987 242.241 264.942 242.241Z" fill="#E0E0E0"/>
<path d="M193.984 92.907C193.984 99.1357 189.423 103.372 182.655 103.372H173.858V82.4717H182.862C189.482 82.4717 193.984 86.7078 193.984 92.907ZM188.412 92.966C188.412 89.3572 186.058 86.9144 182.744 86.9144H179.334V98.9586H183.024C186.176 98.9586 188.412 96.5453 188.412 92.9882V92.966Z" fill="#E0E0E0"/>
<path d="M302.108 165.91L300.255 162.36H297.783V165.881H294.462V153.194H300.174C303.547 153.194 305.473 154.825 305.473 157.622C305.532 158.451 305.349 159.279 304.947 160.006C304.545 160.733 303.941 161.328 303.207 161.718L305.849 165.873L302.108 165.91ZM297.783 159.74H300.196C301.539 159.74 302.322 159.054 302.322 157.763C302.322 156.471 301.539 155.844 300.196 155.844H297.783V159.74Z" fill="#E0E0E0"/>
<path d="M314.728 233.156V237.437H308.772V253.023H303.606V237.437H297.702V233.156H314.728Z" fill="#E0E0E0"/>
<path d="M266.95 192.345C266.952 193.162 266.675 193.955 266.165 194.594C265.655 195.233 264.943 195.678 264.146 195.858C265.104 196.022 265.971 196.528 266.585 197.283C267.198 198.037 267.517 198.989 267.481 199.961C267.481 202.736 265.046 204.47 261.231 204.47H253.216V188.234H260.928C264.611 188.242 266.95 189.843 266.95 192.345ZM262.596 193.083C262.596 192.109 261.858 191.533 260.699 191.555H257.452V194.707H260.699C261.88 194.707 262.596 194.094 262.596 193.083ZM263.105 199.43C263.105 198.411 262.175 197.762 260.699 197.784H257.452V201.186H260.699C262.175 201.186 263.105 200.537 263.105 199.43Z" fill="#E0E0E0"/>
<path d="M337.547 42.3464C337.549 43.1645 337.272 43.9588 336.762 44.5986C336.252 45.2384 335.54 45.6857 334.742 45.8667C335.7 46.0304 336.565 46.5356 337.179 47.2888C337.792 48.0419 338.112 48.9919 338.078 49.9626C338.078 52.7449 335.65 54.4792 331.827 54.4792H323.812V38.2432H331.525C335.207 38.2505 337.547 39.852 337.547 42.3464ZM333.192 43.0844C333.192 42.1103 332.454 41.5273 331.296 41.5568H328.056V44.7007H331.296C332.477 44.708 333.192 44.1103 333.192 43.0918V43.0844ZM333.702 49.4239C333.702 48.4054 332.779 47.756 331.296 47.7855H328.056V51.1877H331.296C332.779 51.1951 333.702 50.5456 333.702 49.446V49.4239Z" fill="#E0E0E0"/>
<path d="M146.796 197.592C145.625 197.659 144.524 198.17 143.719 199.023C142.914 199.875 142.465 201.003 142.465 202.175C142.465 203.347 142.914 204.475 143.719 205.328C144.524 206.18 145.625 206.692 146.796 206.758C148.332 206.665 149.774 205.986 150.825 204.861L153.305 207.518C151.543 209.371 149.122 210.453 146.567 210.529C141.681 210.529 138.043 206.965 138.043 202.197C138.043 197.43 141.777 193.998 146.729 193.998C149.196 194.023 151.552 195.023 153.283 196.78L150.825 199.732C150.344 199.109 149.736 198.596 149.042 198.227C148.347 197.858 147.581 197.641 146.796 197.592Z" fill="#E0E0E0"/>
<path d="M328.262 282.691C327.092 282.758 325.991 283.269 325.186 284.122C324.381 284.974 323.932 286.102 323.932 287.274C323.932 288.447 324.381 289.575 325.186 290.427C325.991 291.279 327.092 291.791 328.262 291.857C329.799 291.764 331.241 291.085 332.292 289.96L334.772 292.625C333.009 294.476 330.588 295.558 328.034 295.636C326.919 295.677 325.807 295.491 324.767 295.089C323.726 294.686 322.778 294.077 321.981 293.297C321.183 292.516 320.553 291.582 320.128 290.551C319.703 289.519 319.493 288.412 319.51 287.296C319.51 282.625 323.237 279.104 328.196 279.104C330.661 279.127 333.017 280.125 334.749 281.879L332.292 284.831C331.812 284.207 331.204 283.693 330.509 283.324C329.814 282.955 329.048 282.739 328.262 282.691Z" fill="#E0E0E0"/>
<path d="M280.949 65.1586H270.374L268.632 69.4833H262.071L272.603 45.0186H279.163L289.429 69.4833H282.654L280.949 65.1586ZM279.06 60.273L275.71 51.5425L272.322 60.273H279.06Z" fill="#E0E0E0"/>
<path d="M225.142 53.9187V59.0847H220.935V54.0368L214.994 42.9668H219.186L223.001 49.8966L226.736 42.9668H230.994L225.142 53.9187Z" fill="#E0E0E0"/>
<path d="M140.021 80.4426C142.11 80.4426 143.557 79.0257 143.557 76.6788V66.1992H148.272V76.6862C148.272 81.4537 145.077 84.4721 139.999 84.4721C134.922 84.4721 131.623 81.4537 131.623 76.6862V66.1992H136.339V76.6862C136.305 77.1819 136.376 77.6793 136.548 78.1454C136.72 78.6116 136.989 79.036 137.337 79.3909C137.685 79.7457 138.104 80.0229 138.567 80.2042C139.029 80.3854 139.525 80.4667 140.021 80.4426Z" fill="#E0E0E0"/>
<path d="M81.9182 239.681V243.784H72.3242V248.175H81.1802V252.278H72.3242V259.393H67.1582V239.681H81.9182Z" fill="#E0E0E0"/>
<path d="M20.3987 176.286V182.286H26.3027V176.286H30.1403V191.002H26.3027V185.349H20.3987V191.002H16.5537V176.286H20.3987Z" fill="#E0E0E0"/>
<path d="M291.85 97.416V112.051H288.034V97.416H291.85Z" fill="#E0E0E0"/>
<path d="M179.615 30.0738C179.615 35.1807 175.585 39.011 170.183 39.011C164.781 39.011 160.744 35.1807 160.744 30.0738C160.744 24.9668 164.781 21.2178 170.183 21.2178C175.585 21.2178 179.615 25.0185 179.615 30.0738ZM165.423 30.0738C165.395 31.3788 165.886 32.6416 166.788 33.5851C167.69 34.5287 168.93 35.076 170.235 35.1069C170.871 35.087 171.498 34.9412 172.078 34.6781C172.657 34.415 173.18 34.0398 173.614 33.574C174.048 33.1082 174.386 32.561 174.608 31.9641C174.83 31.3672 174.931 30.7323 174.906 30.0959C174.936 29.4587 174.838 28.8221 174.618 28.2234C174.398 27.6247 174.06 27.076 173.625 26.6098C173.19 26.1435 172.665 25.7691 172.083 25.5085C171.501 25.2479 170.873 25.1063 170.235 25.0923C169.589 25.0989 168.95 25.2342 168.357 25.4904C167.763 25.7466 167.227 26.1185 166.779 26.5844C166.331 27.0502 165.98 27.6007 165.747 28.2036C165.515 28.8066 165.404 29.4499 165.423 30.0959V30.0738Z" fill="#E0E0E0"/>
<path d="M331.555 180.714L335.916 193.334L340.293 180.714H344.979L338.152 198.168H333.422L326.654 180.714H331.555Z" fill="#E0E0E0"/>
<path d="M244.817 93.7266L247.231 100.701L249.651 93.7266H252.234L248.463 103.365H245.85L242.116 93.7266H244.817Z" fill="#E0E0E0"/>
<path d="M31.8818 55.4532C31.8818 58.5011 29.9704 60.2797 26.6642 60.2797H24.3542V63.8664H20.9668V50.9219H26.6642C29.9704 50.9219 31.8818 52.5676 31.8818 55.4532ZM28.6641 55.5639C28.6641 54.2872 27.8671 53.6008 26.4944 53.6008H24.3542V57.5639H26.4944C27.8671 57.5639 28.6641 56.8775 28.6641 55.5639Z" fill="#E0E0E0"/>
<path d="M338.801 78.4346L341.488 84.3386L344.167 78.4346H347.052V88.5599H344.72V82.1541L342.366 87.5563H340.632L338.285 82.1541V88.5599H335.931V78.4493L338.801 78.4346Z" fill="#E0E0E0"/>
<path d="M53.3876 117.113V122.213H40.4726V126.781H52.1256V131.844H40.4726V136.456H53.7566V141.548H34.0889V117.113H53.3876Z" fill="#E0E0E0"/>
<path d="M85.6087 34.6121V38.7966L72.6716 53.9403H85.7932V59.1063H64.1182V54.9219L77.0332 39.7412H64.5757V34.5752L85.6087 34.6121Z" fill="#E0E0E0"/>
<path d="M352.255 331.657C352.255 331.767 276.779 331.849 183.703 331.849C90.6263 331.849 15.1289 331.767 15.1289 331.657C15.1289 331.546 90.5894 331.465 183.703 331.465C276.816 331.465 352.255 331.553 352.255 331.657Z" fill="#263238"/>
<path d="M136.892 57.9779C136.837 57.7974 136.748 57.6294 136.628 57.4838C136.508 57.3381 136.36 57.2175 136.194 57.1291C136.027 57.0406 135.844 56.9859 135.657 56.9682C135.469 56.9505 135.279 56.9701 135.099 57.0259L128.634 59.0407L39.9707 82.5607L71.5423 205.607L82.5312 211.386L172.774 186.294C173.123 186.197 173.448 186.032 173.732 185.808C174.016 185.583 174.252 185.304 174.427 184.987C174.602 184.67 174.711 184.322 174.749 183.962C174.787 183.602 174.753 183.238 174.648 182.892L136.892 57.9779Z" fill="#5285F2"/>
<path d="M126.863 53.0996L135.697 58.2804L173.519 184.301L82.3834 210.323L72.0293 204.7L126.863 53.0996Z" fill="#F5F5F5"/>
<path d="M161.128 179.061L71.5421 205.629L35.321 83.3942C35.0942 82.6221 35.1789 81.7919 35.5569 81.0815C35.9349 80.371 36.5761 79.8369 37.3432 79.5935L125.97 51.7709C126.187 51.7031 126.415 51.6794 126.641 51.7012C126.868 51.723 127.087 51.7898 127.287 51.8978C127.488 52.0058 127.664 52.1527 127.807 52.3299C127.949 52.5071 128.055 52.711 128.117 52.9296L163.135 175.438C163.343 176.184 163.249 176.983 162.874 177.661C162.498 178.339 161.871 178.842 161.128 179.061Z" fill="#5285F2"/>
<path d="M83.0027 200.434C82.9068 200.434 74.5674 173.128 64.3904 139.313C54.2134 105.497 46.0363 78.1029 46.1396 78.0586C46.243 78.0144 54.575 105.365 64.7594 139.187C74.9438 173.01 83.1061 200.404 83.0027 200.434Z" fill="#263238"/>
<path d="M79.8445 203.592C79.7412 203.629 71.4092 176.286 61.2322 142.471C51.0552 108.656 42.8781 81.2685 42.9814 81.2169C43.0848 81.1652 51.4168 108.523 61.5938 142.345C71.7708 176.168 79.9479 203.562 79.8445 203.592Z" fill="#263238"/>
<path d="M75.926 111.439C76.5238 113.328 75.5423 115.055 73.4833 115.697L70.8486 116.546L68.8486 110.199L71.5792 109.335C73.5571 108.701 75.3356 109.557 75.926 111.439ZM74.236 111.992C74.1808 111.75 74.0756 111.523 73.9272 111.324C73.7788 111.125 73.5905 110.96 73.3743 110.838C73.1582 110.717 72.919 110.642 72.6722 110.618C72.4253 110.594 72.1762 110.622 71.9409 110.701L70.9003 111.025L72.0516 114.715L73.1733 114.361C73.4082 114.289 73.625 114.167 73.8092 114.005C73.9934 113.842 74.1407 113.642 74.2413 113.417C74.3419 113.193 74.3934 112.95 74.3925 112.704C74.3916 112.458 74.3383 112.216 74.236 111.992Z" fill="white"/>
<path d="M77.409 107.482L79.409 113.829L77.7558 114.353L75.7559 108.006L77.409 107.482Z" fill="white"/>
<path d="M82.0882 107.504C81.6324 107.67 81.2582 108.005 81.0436 108.44C80.8289 108.875 80.7904 109.376 80.936 109.838C81.0816 110.301 81.4001 110.689 81.8251 110.923C82.2501 111.156 82.7489 111.216 83.2173 111.091C83.8054 110.862 84.2851 110.419 84.5605 109.851L85.852 110.589C85.3919 111.529 84.5807 112.25 83.5937 112.597C83.1611 112.751 82.7015 112.817 82.2429 112.789C81.7843 112.761 81.3361 112.64 80.9255 112.434C80.515 112.228 80.1505 111.94 79.8543 111.589C79.5581 111.238 79.3363 110.83 79.2023 110.39C79.0683 109.951 79.0249 109.489 79.0747 109.032C79.1246 108.575 79.2666 108.133 79.4923 107.733C79.718 107.333 80.0225 106.983 80.3875 106.703C80.7526 106.424 81.1704 106.222 81.6158 106.109C82.584 105.814 83.6297 105.915 84.5236 106.39L83.9258 107.866C83.6634 107.677 83.3634 107.547 83.0464 107.485C82.7293 107.423 82.4025 107.429 82.0882 107.504Z" fill="white"/>
<path d="M89.8004 103.578L90.2284 104.943L88.3318 105.549L89.9037 110.523L88.2432 111.047L86.6713 106.065L84.7894 106.663L84.3613 105.298L89.8004 103.578Z" fill="white"/>
<path d="M92.1322 102.848L94.1322 109.194L92.4717 109.718L90.4717 103.372L92.1322 102.848Z" fill="white"/>
<path d="M100.818 103.593C101.082 104.268 101.137 105.007 100.975 105.714C100.813 106.421 100.442 107.062 99.9105 107.555C99.3788 108.048 98.711 108.369 97.9941 108.477C97.2772 108.584 96.5445 108.474 95.8914 108.159C95.2383 107.845 94.6951 107.341 94.3325 106.713C93.9699 106.085 93.8048 105.363 93.8586 104.64C93.9124 103.917 94.1828 103.227 94.6343 102.66C95.0859 102.093 95.6978 101.675 96.3903 101.46C96.8206 101.303 97.2782 101.233 97.736 101.255C98.1938 101.277 98.6425 101.391 99.0554 101.59C99.4684 101.789 99.8372 102.069 100.14 102.413C100.443 102.757 100.673 103.158 100.818 103.593ZM95.6523 105.224C95.7912 105.702 96.1138 106.106 96.5495 106.346C96.9852 106.587 97.4985 106.645 97.977 106.508C98.4206 106.325 98.7792 105.981 98.9821 105.546C99.1849 105.111 99.2172 104.616 99.0726 104.158C98.9281 103.7 98.6171 103.313 98.2011 103.073C97.7851 102.833 97.2944 102.758 96.8257 102.863C96.5939 102.941 96.3798 103.064 96.1956 103.225C96.0115 103.386 95.861 103.582 95.7526 103.801C95.6443 104.021 95.5803 104.259 95.5644 104.504C95.5485 104.748 95.5808 104.993 95.6597 105.224H95.6523Z" fill="white"/>
<path d="M102.103 99.7036L106.184 102.656L104.981 98.8328L106.523 98.3457L108.523 104.693L107.047 105.15L102.973 102.257L104.169 106.058L102.627 106.545L100.619 100.198L102.103 99.7036Z" fill="white"/>
<path d="M113.652 101.844L110.914 102.708L110.818 103.977L109.121 104.508L109.859 97.3053L111.564 96.7666L116.221 102.279L114.457 102.833L113.652 101.844ZM112.767 100.737L111.18 98.7444L111.01 101.291L112.767 100.737Z" fill="white"/>
<path d="M120.582 100.856L119.106 99.3798L117.911 99.7561L118.464 101.513L116.804 102.037L114.804 95.6898L117.652 94.7894C119.342 94.258 120.553 94.7894 121.003 96.1842C121.162 96.5895 121.201 97.0323 121.115 97.4591C121.028 97.886 120.82 98.2787 120.516 98.5901L122.494 100.243L120.582 100.856ZM117.453 98.4573L118.656 98.0809C118.799 98.0561 118.934 97.9997 119.053 97.9158C119.171 97.832 119.269 97.7228 119.34 97.5962C119.411 97.4696 119.452 97.3289 119.461 97.1842C119.471 97.0395 119.448 96.8945 119.394 96.7599C119.36 96.6196 119.294 96.4889 119.202 96.3775C119.11 96.2661 118.994 96.177 118.863 96.1166C118.732 96.0563 118.588 96.0264 118.444 96.0292C118.3 96.032 118.158 96.0673 118.029 96.1326L116.826 96.5089L117.453 98.4573Z" fill="white"/>
<path d="M125.962 96.929L126.604 98.9585L124.944 99.4825L124.324 97.4973L120.634 93.8737L122.287 93.3497L124.648 95.5637L125.261 92.3755L126.914 91.8516L125.962 96.929Z" fill="white"/>
<path d="M97.0257 130.936L89.8154 133.209L89.5793 136.523L85.0996 137.94L87.011 118.996L91.4833 117.586L103.741 132.102L99.0995 133.578L97.0257 130.936ZM94.6862 127.984L90.5313 122.759L90.0737 129.401L94.6862 127.984Z" fill="white"/>
<path d="M108.487 121.032L109.343 123.741L103.033 125.733L102.177 123.017L108.487 121.032Z" fill="white"/>
<path d="M122.56 107.793L123.461 110.649L117.911 123.749L126.863 120.929L127.962 124.427L113.202 129.084L112.309 126.258L117.852 113.129L109.357 115.808L108.258 112.302L122.56 107.793Z" fill="white"/>
<path d="M165.814 182.286L165.607 182.367L164.98 182.581L162.574 183.319L153.718 186.094L124.397 195.098L95.0395 203.998L86.1171 206.64L83.6891 207.378L83.0544 207.555C82.983 207.58 82.9085 207.595 82.833 207.6C82.8983 207.564 82.9677 207.537 83.0396 207.518L83.667 207.304L86.0728 206.566L94.9288 203.791L124.257 194.78L153.607 185.888L162.515 183.231L164.943 182.493L165.578 182.323C165.654 182.3 165.734 182.288 165.814 182.286Z" fill="#263238"/>
<path d="M115.579 195.356L101.992 199.526C105.187 205.378 107.457 211.689 108.723 218.234C110.656 215.255 111.712 211.793 111.771 208.242C114.068 210.995 116.572 213.568 119.261 215.939C119.45 208.899 118.196 201.895 115.579 195.356Z" fill="#455A64"/>
<path d="M164.153 180.604C164.153 180.604 164.087 180.64 163.947 180.692L163.327 180.899L160.921 181.637L152.065 184.404L122.744 193.415L93.3939 202.315L84.4863 204.972L82.0582 205.673L81.4236 205.843L81.2021 205.895C81.267 205.857 81.3364 205.827 81.4088 205.806L82.0287 205.6L84.442 204.825L93.298 202.057L122.619 193.046L151.976 184.146L160.884 181.548L163.312 180.847L163.947 180.677L164.153 180.604Z" fill="#263238"/>
<path d="M166.907 177.12C166.861 177.02 166.824 176.916 166.796 176.81L166.523 175.895L165.512 172.382C164.641 169.312 163.386 164.899 161.822 159.452C158.722 148.53 154.405 133.445 149.541 116.818C144.678 100.191 140.221 85.1728 136.914 74.302C135.283 68.8777 133.962 64.4866 133.032 61.4239C132.59 59.9479 132.235 58.7376 131.992 57.9184C131.881 57.5347 131.793 57.2321 131.734 57.0107C131.698 56.9072 131.671 56.8011 131.652 56.6934C131.698 56.7916 131.738 56.8927 131.77 56.9959C131.837 57.2173 131.94 57.5125 132.066 57.8963C132.324 58.7155 132.7 59.8815 133.18 61.3797C134.125 64.4276 135.49 68.8113 137.18 74.2209C140.523 85.0695 145.062 100.088 149.933 116.722C154.803 133.357 159.069 148.456 162.102 159.386C163.578 164.847 164.818 169.268 165.659 172.353L166.604 175.888C166.7 176.279 166.781 176.581 166.833 176.81C166.884 177.039 166.907 177.12 166.907 177.12Z" fill="#263238"/>
<path d="M127.91 80.2868C127.91 80.2868 127.91 80.1983 127.822 80.0359L127.578 79.2979C127.362 78.6288 127.052 77.6694 126.648 76.4197C125.851 73.9105 124.693 70.2574 123.224 65.6449L123.364 65.7187L56.0145 86.796L56.14 86.5524C57.7119 91.5856 59.2469 96.5081 60.7156 101.239L60.4794 101.113L108.486 86.2277L122.693 81.8588L126.538 80.6853L127.541 80.3828L127.888 80.2868L127.571 80.4049L126.597 80.7149L122.833 81.9178L108.693 86.3458L60.5901 101.482L60.4056 101.534L60.3466 101.357C58.8706 96.6261 57.3355 91.7037 55.771 86.6779L55.7119 86.4934L55.8964 86.4344L123.298 65.5047L123.401 65.4678V65.5711C124.826 70.2279 125.947 73.9105 126.73 76.4492C127.099 77.6891 127.394 78.6632 127.593 79.3127C127.689 79.63 127.755 79.8662 127.807 80.0507C127.849 80.1261 127.883 80.2051 127.91 80.2868Z" fill="white"/>
<path d="M306.719 125.919C322.399 119.53 329.93 101.64 323.541 85.9602C317.152 70.2808 299.262 62.7496 283.582 69.1386C267.903 75.5277 260.372 93.4177 266.761 109.097C273.15 124.776 291.04 132.308 306.719 125.919Z" fill="white"/>
<path d="M270.108 127.843C270.071 127.843 270.108 127.511 269.908 126.95C269.653 126.156 269.158 125.46 268.491 124.958C268.044 124.6 267.522 124.348 266.964 124.22C266.329 124.09 265.669 124.149 265.067 124.39C264.363 124.635 263.749 125.089 263.308 125.69C262.867 126.292 262.618 127.013 262.595 127.759C262.572 128.505 262.775 129.24 263.178 129.867C263.581 130.495 264.165 130.986 264.853 131.275C265.441 131.546 266.094 131.643 266.735 131.556C267.298 131.467 267.835 131.255 268.307 130.936C269.002 130.477 269.539 129.815 269.842 129.039C270.049 128.485 270.063 128.146 270.093 128.153C270.103 128.234 270.103 128.316 270.093 128.397C270.09 128.494 270.076 128.591 270.049 128.685C270.029 128.819 269.994 128.95 269.945 129.076C269.708 129.77 269.288 130.388 268.729 130.864C268.171 131.341 267.495 131.659 266.772 131.784C266.083 131.896 265.377 131.801 264.742 131.511C264.034 131.194 263.43 130.682 263.001 130.035C262.517 129.36 262.259 128.549 262.263 127.718C262.303 126.887 262.608 126.09 263.134 125.445C263.607 124.841 264.238 124.378 264.956 124.109C265.609 123.861 266.32 123.81 267.001 123.962C267.602 124.109 268.16 124.394 268.632 124.795C269.312 125.334 269.804 126.076 270.034 126.914C270.067 127.045 270.091 127.178 270.108 127.312C270.121 127.41 270.121 127.509 270.108 127.607C270.116 127.686 270.116 127.765 270.108 127.843Z" fill="#263238"/>
<path d="M289.974 128.02L290.476 128.065L291.952 128.227L293.022 128.345C293.421 128.345 293.856 128.345 294.329 128.345H295.849C296.13 128.358 296.411 128.346 296.69 128.308L297.583 128.234C300.553 128.012 303.472 127.34 306.24 126.242C309.916 124.813 313.283 122.691 316.159 119.991L317.362 118.84C317.738 118.434 318.1 117.991 318.476 117.563L319.044 116.913C319.238 116.696 319.418 116.467 319.583 116.227L320.609 114.751C320.778 114.508 320.956 114.271 321.125 114.013L321.575 113.223C321.871 112.692 322.181 112.161 322.483 111.622C322.786 111.083 323 110.485 323.266 109.917C323.398 109.629 323.524 109.334 323.657 109.046C323.716 108.899 323.789 108.759 323.841 108.611L323.996 108.153C324.447 106.925 324.811 105.668 325.088 104.39C325.221 103.74 325.398 103.098 325.502 102.427C325.605 101.755 325.657 101.083 325.738 100.404C325.775 100.065 325.834 99.7254 325.849 99.3786C325.863 99.0317 325.849 98.6922 325.849 98.3454C325.849 97.6517 325.885 96.9506 325.849 96.2495C325.776 94.8254 325.608 93.4078 325.347 92.006L325.147 90.9359C325.147 90.7587 325.088 90.5816 325.044 90.3971L324.896 89.8731C324.69 89.1351 324.491 88.4636 324.284 87.7551C324.077 87.0466 323.745 86.375 323.48 85.6739C323.332 85.3344 323.214 84.9359 323.044 84.6407L322.528 83.637C321.837 82.2746 321.056 80.9604 320.188 79.7035C319.716 79.091 319.236 78.4858 318.756 77.8733L318.395 77.4083L317.989 76.9877L317.177 76.1316L316.365 75.2755L315.472 74.5375L314.587 73.7995L314.136 73.4084C313.981 73.2903 313.812 73.1796 313.649 73.0615L311.686 71.6667L309.583 70.4637C303.734 67.325 297.019 66.1847 290.461 67.2165L288.078 67.6593L285.76 68.3235L285.185 68.4933L284.631 68.7147L283.524 69.1575L282.425 69.5929L281.369 70.1316L280.329 70.6704L279.805 70.9434L279.318 71.2534L277.355 72.508C276.122 73.4137 274.951 74.3999 273.849 75.46L273.059 76.2275C272.786 76.4858 272.558 76.7884 272.321 77.0688C271.842 77.6371 271.332 78.1832 270.845 78.7662L269.569 80.5596L269.251 81.0098C269.155 81.1647 269.067 81.3197 268.978 81.4821C268.794 81.792 268.617 82.1094 268.439 82.4193C267.731 83.6583 267.104 84.9428 266.565 86.2643C266.314 86.9211 266.115 87.5927 265.886 88.2495C265.783 88.5743 265.672 88.9064 265.561 89.2311C265.451 89.5558 265.406 89.9027 265.325 90.2348C265.178 90.9063 265.03 91.5632 264.882 92.2274C264.735 92.8916 264.713 93.5558 264.624 94.2126C264.468 95.5103 264.399 96.817 264.417 98.124V98.6037C264.417 98.766 264.417 98.921 264.454 99.0834C264.454 99.4007 264.506 99.7181 264.528 100.028C264.595 100.655 264.609 101.283 264.705 101.895C264.801 102.508 264.927 103.113 265.037 103.711C265.096 104.006 265.148 104.308 265.2 104.604L265.443 105.467C265.613 106.043 265.775 106.611 265.938 107.172C266.011 107.452 266.108 107.726 266.225 107.991C266.329 108.264 266.432 108.53 266.543 108.795C266.757 109.327 266.949 109.858 267.178 110.367C267.406 110.877 267.679 111.364 267.916 111.843C269.739 115.342 272.22 118.456 275.222 121.017C275.546 121.297 275.864 121.585 276.188 121.851L277.192 122.589L278.159 123.282C278.321 123.393 278.476 123.511 278.639 123.607L279.126 123.888L280.978 124.958C281.576 125.275 282.181 125.511 282.735 125.777L283.546 126.138C283.798 126.263 284.06 126.366 284.329 126.448L285.768 126.936C286.218 127.083 286.631 127.238 287.008 127.341L288.063 127.585L289.495 127.917L289.982 128.035C289.982 128.035 289.812 128.035 289.487 127.947L288.056 127.637L286.993 127.408C286.609 127.312 286.196 127.157 285.746 127.017L284.27 126.544C284 126.464 283.739 126.36 283.487 126.234L282.668 125.873C282.107 125.614 281.502 125.386 280.897 125.068L279.045 123.984L278.55 123.703C278.388 123.607 278.24 123.489 278.078 123.378L277.104 122.692L276.085 121.954L275.111 121.113C272.078 118.552 269.572 115.426 267.731 111.91C267.473 111.423 267.222 110.928 266.993 110.434C266.764 109.939 266.565 109.386 266.351 108.855C266.248 108.581 266.137 108.316 266.026 108.043C265.907 107.776 265.811 107.499 265.738 107.216C265.576 106.648 265.406 106.08 265.244 105.504C265.155 105.216 265.067 104.928 264.993 104.633C264.919 104.338 264.882 104.035 264.823 103.733C264.713 103.128 264.602 102.522 264.484 101.91C264.366 101.297 264.366 100.655 264.307 100.028C264.307 99.7107 264.248 99.3933 264.226 99.0686C264.226 98.9136 264.189 98.7513 264.189 98.5889V98.1535C264.164 96.8368 264.23 95.52 264.388 94.2126C264.476 93.5558 264.521 92.8768 264.646 92.2126L265.089 90.2052C265.17 89.8658 265.222 89.5263 265.325 89.1942L265.657 88.1979C265.879 87.5411 266.078 86.8621 266.336 86.1979C266.875 84.8653 267.504 83.5708 268.218 82.3234L268.757 81.3714C268.853 81.209 268.934 81.0467 269.037 80.8917L269.369 80.4415C269.797 79.8462 270.225 79.241 270.653 78.626C271.111 78.043 271.628 77.4895 272.129 76.9139C272.38 76.6334 272.609 76.3308 272.867 76.0725L273.694 75.2829C274.807 74.2231 275.988 73.237 277.229 72.3309L279.207 71.0689L279.701 70.7516L280.225 70.4785L281.281 69.9324L282.343 69.3936L283.458 68.9435L284.572 68.5007L285.133 68.2793L285.709 68.1095L288.048 67.4306L290.454 66.9878C297.072 65.9444 303.85 67.0952 309.753 70.2645L311.878 71.4822L313.856 72.8844C314.018 73.0025 314.188 73.1132 314.35 73.2386L314.801 73.6371L315.708 74.4194L316.616 75.2091L317.435 76.0725L318.254 76.9286C318.387 77.0762 318.528 77.2164 318.653 77.364L319.022 77.829L320.498 79.674C321.369 80.9443 322.156 82.2707 322.852 83.6444L323.369 84.6555C323.546 84.995 323.664 85.3935 323.804 85.7034C324.077 86.4414 324.38 87.0983 324.616 87.8067L325.236 89.9396L325.384 90.4709C325.428 90.648 325.457 90.8325 325.494 91.0097C325.561 91.3713 325.627 91.7477 325.686 92.0871C325.951 93.5009 326.118 94.931 326.188 96.3675C326.188 97.1055 326.188 97.7845 326.188 98.4856C326.188 98.8325 326.188 99.1793 326.188 99.5262C326.188 99.873 326.114 100.22 326.077 100.559L325.834 102.604C325.73 103.275 325.553 103.925 325.42 104.581C325.136 105.867 324.764 107.132 324.306 108.367L324.151 108.825C324.099 108.973 324.026 109.12 323.959 109.268L323.568 110.146C323.302 110.722 323.074 111.305 322.778 111.858L321.767 113.415L321.31 114.212C321.14 114.463 320.963 114.707 320.793 114.95L319.753 116.426C319.589 116.669 319.407 116.899 319.207 117.113L318.638 117.77C318.255 118.198 317.9 118.64 317.509 119.054L316.299 120.205C313.39 122.91 309.984 125.025 306.269 126.434C303.489 127.532 300.557 128.199 297.576 128.412L296.683 128.478C296.403 128.503 296.121 128.503 295.841 128.478H294.314C293.841 128.478 293.399 128.478 293.008 128.441L291.93 128.308L290.454 128.116L289.974 128.02Z" fill="#263238"/>
<path d="M287.819 90.774H292.144C292.144 90.2825 292.242 89.796 292.433 89.3429C292.623 88.8899 292.902 88.4794 293.253 88.1357C293.605 87.7919 294.021 87.5219 294.478 87.3413C294.935 87.1607 295.424 87.0732 295.915 87.084C296.64 87.0577 297.354 87.2564 297.961 87.6529C298.567 88.0494 299.036 88.6241 299.303 89.298C299.531 89.8642 299.622 90.4763 299.568 91.0843C299.514 91.6923 299.317 92.2789 298.993 92.7961C298.255 94.0065 296.653 95.1061 293.738 94.5895V104.338H298.011V98.6337C299.767 98.1183 301.306 97.0404 302.39 95.5658C303.473 94.0911 304.043 92.3013 304.011 90.4714C304.011 84.1468 298.343 82.6855 295.893 82.6855C294.041 82.7298 287.724 83.1726 287.819 90.774Z" fill="#263238"/>
<path d="M298.055 106.39H293.716V110.441H298.055V106.39Z" fill="#263238"/>
<path d="M186.116 105.666C181.798 102.368 181.289 95.5411 184.19 90.9507C187.09 86.3604 192.603 83.9028 198.02 83.5117C201.955 83.263 205.892 83.9484 209.512 85.5119C213.131 87.0753 216.33 89.4726 218.846 92.5079C221.525 95.8068 223.562 99.9765 227.436 101.718C230.839 103.253 234.816 102.456 238.469 103.29C243.362 104.368 247.289 108.257 249.451 112.773C251.613 117.29 252.211 122.367 252.359 127.393C252.491 131.991 252.41 136.987 255.274 140.603C258.137 144.22 262.853 145.223 266.477 147.858C273.288 152.825 274.676 163.754 269.318 170.256C267.613 172.337 265.259 174.168 264.846 176.824C264.469 179.245 265.857 181.562 266.388 183.954C267.761 190.123 262.226 196.817 255.908 196.625C252.72 196.522 249.429 194.987 246.462 196.153C243.495 197.319 242.167 200.625 240.13 203.053C238.062 205.399 235.25 206.962 232.167 207.48C229.083 207.999 225.914 207.442 223.193 205.902C220.979 204.551 218.927 202.47 216.315 202.418C213.702 202.367 211.481 204.389 208.89 204.632C205.503 204.979 202.558 202.249 200.817 199.319C199.075 196.389 197.983 193.016 195.651 190.536C192.595 187.289 187.99 186.153 183.917 184.33C179.402 182.317 175.373 179.357 172.102 175.652C168.831 171.947 166.394 167.582 164.956 162.853C163.518 158.124 163.112 153.141 163.767 148.242C164.422 143.343 166.121 138.641 168.751 134.456" fill="#263238"/>
<path d="M229.171 169.651C230.291 168.642 231.638 167.919 233.097 167.54L232.817 167.503C233.082 167.459 233.351 167.437 233.621 167.437C234.115 167.338 234.624 167.342 235.116 167.447C235.608 167.552 236.074 167.757 236.484 168.049C238.049 168.775 239.286 170.06 239.953 171.651C240.456 173.053 240.564 174.566 240.265 176.025C239.965 177.485 239.27 178.833 238.256 179.924C236.521 181.835 233.717 182.935 231.274 182.138C229.06 181.4 227.51 179.149 227.06 176.817C226.78 175.541 226.827 174.216 227.196 172.963C227.565 171.71 228.244 170.571 229.171 169.651Z" fill="#455A64"/>
<path d="M236.293 138.559C236.248 125.578 228.632 109.209 215.666 109.777L174.839 117.548C172.939 117.634 171.141 118.43 169.8 119.779C168.459 121.128 167.674 122.932 167.6 124.832L161.969 234.27L208.175 234.027C208.736 226.197 210.802 204.153 210.802 204.226C210.802 204.3 228.787 202.514 233.488 181.171C235.835 170.574 236.337 152.972 236.293 138.559Z" fill="#FFBF9D"/>
<path d="M226.603 156.226C226.568 156.947 226.253 157.625 225.725 158.116C225.197 158.607 224.497 158.872 223.776 158.854C223.423 158.862 223.072 158.799 222.744 158.668C222.415 158.538 222.116 158.344 221.865 158.096C221.613 157.848 221.413 157.553 221.278 157.226C221.142 156.9 221.073 156.55 221.075 156.197C221.11 155.476 221.425 154.797 221.953 154.305C222.481 153.812 223.18 153.546 223.902 153.562C224.255 153.555 224.607 153.619 224.935 153.75C225.263 153.881 225.562 154.077 225.814 154.325C226.066 154.573 226.265 154.869 226.401 155.196C226.536 155.522 226.605 155.873 226.603 156.226Z" fill="#263238"/>
<path d="M231.961 146.006C231.599 146.345 229.599 144.67 226.617 144.53C223.636 144.39 221.378 145.718 221.075 145.334C220.928 145.164 221.319 144.537 222.308 143.902C223.637 143.093 225.182 142.712 226.736 142.81C228.292 142.877 229.785 143.444 230.994 144.426C231.872 145.187 232.138 145.858 231.961 146.006Z" fill="#263238"/>
<path d="M199.85 154.389C199.815 155.11 199.5 155.788 198.972 156.279C198.444 156.77 197.744 157.035 197.023 157.017C196.67 157.025 196.318 156.961 195.989 156.831C195.66 156.7 195.361 156.505 195.109 156.256C194.857 156.008 194.658 155.711 194.522 155.384C194.387 155.057 194.319 154.706 194.322 154.353C194.359 153.633 194.674 152.956 195.202 152.465C195.73 151.974 196.428 151.709 197.149 151.725C197.502 151.718 197.854 151.782 198.182 151.913C198.511 152.044 198.809 152.24 199.061 152.488C199.313 152.736 199.512 153.032 199.648 153.359C199.783 153.686 199.852 154.036 199.85 154.389Z" fill="#263238"/>
<path d="M202.699 144.818C202.33 145.157 200.33 143.482 197.356 143.342C194.382 143.202 192.116 144.53 191.814 144.146C191.666 143.976 192.05 143.349 193.046 142.715C194.374 141.903 195.921 141.522 197.474 141.622C199.023 141.707 200.504 142.284 201.703 143.268C202.603 143.999 202.876 144.648 202.699 144.818Z" fill="#263238"/>
<path d="M212.175 167.526C212.175 167.356 214.035 167.142 217.053 166.943C217.791 166.943 218.529 166.795 218.706 166.286C218.883 165.777 218.647 164.913 218.337 164.006L216.433 158.102C213.806 149.681 211.953 142.773 212.293 142.67C212.632 142.567 215.038 149.312 217.666 157.725C218.293 159.806 218.898 161.784 219.466 163.674C219.702 164.552 220.138 165.563 219.688 166.677C219.562 166.938 219.378 167.167 219.15 167.346C218.923 167.525 218.657 167.649 218.374 167.71C217.945 167.803 217.506 167.837 217.068 167.814C214.02 167.784 212.175 167.688 212.175 167.526Z" fill="#263238"/>
<path d="M210.987 203.96C210.987 203.96 197.703 204.079 183.888 194.588C183.888 194.588 188.699 211.126 210.389 210.396L210.987 203.96Z" fill="#FF9A6C"/>
<path d="M211.311 174.559C210.7 173.538 209.85 172.682 208.835 172.064C207.819 171.445 206.668 171.083 205.481 171.009C204.704 170.97 203.929 171.122 203.224 171.451C202.519 171.78 201.905 172.277 201.437 172.898C200.962 173.603 200.691 174.425 200.653 175.274C200.615 176.123 200.812 176.966 201.223 177.71C201.716 178.483 202.43 179.089 203.272 179.449C204.115 179.81 205.047 179.909 205.946 179.732C207.651 179.43 209.105 178.359 210.485 177.289C210.893 177.014 211.238 176.654 211.496 176.234C211.626 176.002 211.695 175.74 211.695 175.474C211.695 175.208 211.626 174.946 211.496 174.714" fill="#FF9A6C"/>
<path d="M203.297 169.053C203.784 169.053 203.599 172.278 206.249 174.736C208.898 177.193 212.33 177.038 212.33 177.496C212.33 177.702 211.525 178.079 210.071 178.027C208.179 177.937 206.377 177.188 204.979 175.909C203.654 174.671 202.86 172.968 202.765 171.156C202.669 169.799 203.083 169.001 203.297 169.053Z" fill="#263238"/>
<path d="M204.743 132.655C204.396 133.445 201.451 132.884 197.938 133.098C194.425 133.312 191.547 134.094 191.127 133.342C190.942 132.98 191.473 132.249 192.662 131.533C194.236 130.662 195.988 130.162 197.785 130.071C199.582 129.98 201.377 130.301 203.031 131.009C204.285 131.6 204.89 132.279 204.743 132.655Z" fill="#263238"/>
<path d="M231.525 135.711C230.964 136.353 228.957 135.534 226.492 135.349C224.027 135.165 221.916 135.534 221.481 134.796C221.289 134.441 221.658 133.785 222.603 133.202C223.876 132.505 225.328 132.203 226.774 132.335C228.22 132.466 229.593 133.025 230.721 133.94C231.532 134.678 231.776 135.393 231.525 135.711Z" fill="#263238"/>
<path d="M251.208 133.85C250.47 130.544 248.92 127.312 246.256 125.216C244.78 124.072 243.053 123.297 241.717 122.013C238.832 119.23 238.492 114.802 236.883 111.135C235.821 108.772 234.212 106.697 232.188 105.082C230.164 103.466 227.784 102.356 225.245 101.843C221.024 101.031 216.522 101.924 212.463 100.515C209.459 99.4668 206.95 97.2381 203.895 96.3746C197.939 94.692 191.932 98.5369 187.157 102.478C186.758 106.81 189.961 110.013 193.061 113.09C194.615 114.621 196.483 115.796 198.536 116.535C200.588 117.274 202.777 117.559 204.95 117.371C208.308 117.061 212.079 115.71 214.787 117.725C217.636 119.843 217.363 124.367 219.828 126.95C223.356 130.596 229.695 128.02 234.418 129.902C238.057 131.341 240.079 135.127 242.3 138.352C244.522 141.577 247.997 144.773 251.835 143.99C251.872 140.581 251.924 137.164 251.208 133.85Z" fill="#263238"/>
<path d="M207.378 111.526C204.736 110.508 199.334 108.264 198.086 105.777C195.378 100.382 190.109 96.4047 184.382 96.1833C181.413 96.1543 178.515 97.0868 176.121 98.8414C173.727 100.596 171.964 103.078 171.098 105.917C164.205 105.364 157.076 109.098 153.216 115.32C152.728 116.101 152.294 116.915 151.917 117.755C150.676 119.562 149.845 121.619 149.481 123.781C149.118 125.943 149.231 128.158 149.814 130.271C150.552 132.803 151.895 135.674 150.434 137.866C148.972 140.057 145.688 139.88 143.054 140.53C140.797 141.16 138.834 142.562 137.507 144.492C136.179 146.423 135.572 148.758 135.792 151.09C135.998 152.751 136.633 154.448 136.146 156.05C135.659 157.651 134.087 158.795 132.847 160.02C131.309 161.56 130.202 163.477 129.637 165.579C129.071 167.68 129.066 169.894 129.624 171.998C130.181 174.102 131.28 176.023 132.812 177.569C134.344 179.115 136.254 180.233 138.353 180.81C140.257 181.326 142.353 181.43 143.939 182.61C145.747 183.954 146.382 186.337 147.578 188.256C148.762 190.08 150.472 191.5 152.482 192.329C154.492 193.158 156.707 193.357 158.832 192.898C159.682 192.688 160.499 192.363 161.26 191.931C162.397 193.843 164.315 195.238 167.791 195.54L170.987 150.146C171.188 150.723 171.525 151.243 171.972 151.661C172.418 152.079 172.959 152.382 173.548 152.544C180.677 154.825 183.061 139.932 181.791 135.725C184.633 133.622 187.503 131.489 189.769 128.692C192.035 125.895 194.522 117.962 194.418 114.279C197.046 114.678 208.522 111.969 207.378 111.526Z" fill="#263238"/>
<path d="M172.692 154.02C172.862 149.393 167.312 147.91 163.098 149.865C160.788 150.936 158.891 153.341 158.67 158.249C158.057 171.334 171.319 169.253 171.364 168.876C171.378 168.648 172.463 159.408 172.692 154.02Z" fill="#FFBF9D"/>
<path d="M167.592 163.732C167.533 163.688 167.356 163.88 166.958 164.035C166.405 164.242 165.794 164.226 165.253 163.991C163.895 163.422 162.832 161.171 162.877 158.825C162.901 157.701 163.173 156.598 163.674 155.592C163.814 155.188 164.051 154.825 164.363 154.533C164.676 154.241 165.055 154.03 165.467 153.917C165.733 153.862 166.009 153.901 166.249 154.026C166.49 154.151 166.68 154.355 166.788 154.603C166.943 154.98 166.847 155.238 166.914 155.267C166.98 155.297 167.209 155.061 167.128 154.529C167.068 154.2 166.899 153.901 166.648 153.681C166.301 153.394 165.856 153.254 165.408 153.29C164.865 153.369 164.351 153.588 163.917 153.924C163.482 154.26 163.142 154.702 162.928 155.208C162.318 156.315 161.988 157.554 161.969 158.817C161.925 161.459 163.164 163.983 165.032 164.625C165.377 164.745 165.745 164.785 166.107 164.743C166.47 164.701 166.819 164.577 167.128 164.382C167.526 164.042 167.637 163.754 167.592 163.732Z" fill="#FF9A6C"/>
<path d="M189.71 106.419C189.792 106.567 188.36 106.677 186.913 108.367C185.467 110.057 184.699 113.393 185.157 117.304L185.201 117.637L184.877 117.688C182.958 118.025 181.143 118.799 179.573 119.951C178.003 121.103 176.719 122.602 175.821 124.33C175.329 125.31 175.004 126.365 174.862 127.452C174.791 128.614 174.825 129.78 174.965 130.935C175.116 132.181 175.173 133.437 175.135 134.692C175.109 136.062 174.626 137.384 173.762 138.448C171.925 140.773 169.209 141.754 166.862 142.736C164.553 143.522 162.389 144.681 160.456 146.168C157.253 148.804 155.17 152.557 154.626 156.669C154.286 159.448 154.631 162.268 155.63 164.883C156.368 166.736 156.995 167.651 156.914 167.702C156.718 167.512 156.549 167.296 156.412 167.06C155.983 166.412 155.61 165.728 155.298 165.016C154.134 162.372 153.678 159.47 153.977 156.596C154.445 152.283 156.56 148.317 159.881 145.526C161.874 143.953 164.12 142.73 166.523 141.909C168.869 140.928 171.43 139.939 173.032 137.887C174.655 136.035 174.235 133.393 174.065 131.024C173.923 129.799 173.893 128.564 173.976 127.334C174.142 126.146 174.503 124.994 175.046 123.924C176.012 122.086 177.394 120.5 179.084 119.292C180.773 118.085 182.721 117.29 184.773 116.972L184.485 117.356C184.065 113.268 184.987 109.792 186.626 108.072C187.233 107.408 187.993 106.902 188.84 106.596C189.121 106.501 189.414 106.442 189.71 106.419Z" fill="#455A64"/>
<path d="M162.286 168.183C163.406 167.175 164.753 166.451 166.212 166.072L165.924 166.028C166.193 165.991 166.464 165.969 166.736 165.962C167.23 165.864 167.739 165.869 168.232 165.975C168.724 166.082 169.19 166.288 169.599 166.581C171.163 167.302 172.399 168.585 173.06 170.176C173.566 171.578 173.676 173.092 173.378 174.553C173.08 176.014 172.385 177.364 171.37 178.456C169.629 180.36 166.832 181.467 164.389 180.67C162.175 179.932 160.625 177.718 160.175 175.349C159.892 174.073 159.937 172.747 160.306 171.494C160.675 170.24 161.356 169.101 162.286 168.183Z" fill="#455A64"/>
<path d="M115.408 227.547C115.408 227.547 59.0398 282.247 59.549 299.908C59.5192 300.201 59.4598 300.49 59.3719 300.771C57.3202 312.373 65.7482 323.243 77.4381 324.719L99.2239 327.428L145.762 267.406L133.164 233.872L115.408 227.547Z" fill="#5285F2"/>
<path d="M95.9395 254.485C95.9395 254.485 105.032 239.105 115.415 227.548C125.245 216.618 138.33 213.526 141.245 213.363C152.02 212.854 197.451 215.924 226.595 217.053C237.421 217.489 248.115 223.776 255.192 231.983C271.037 250.359 298.823 283.112 304.402 293.2C312.314 307.488 306.764 340.019 301.214 344.358C295.664 348.698 125.378 341.31 125.378 341.31L95.9395 254.485Z" fill="#5285F2"/>
<path d="M287.421 293.236C287.304 293.252 287.185 293.252 287.067 293.236L286.049 293.199L285.311 293.162C285.045 293.162 284.75 293.162 284.44 293.162C283.732 293.163 283.025 293.2 282.322 293.273L281.097 293.398C280.669 293.443 280.233 293.546 279.776 293.62C278.861 293.753 277.916 294.026 276.905 294.277C272.558 295.519 268.549 297.729 265.178 300.742C264.447 301.397 263.75 302.089 263.089 302.815C262.787 303.162 262.47 303.48 262.196 303.812C261.923 304.144 261.68 304.476 261.458 304.786C261.023 305.34 260.616 305.916 260.241 306.513C260.064 306.778 259.894 307.015 259.754 307.251L259.399 307.885C259.193 308.232 259.03 308.527 258.89 308.764C258.75 309 258.698 309.066 258.684 309.059C258.716 308.944 258.761 308.832 258.816 308.727C258.942 308.483 259.09 308.181 259.267 307.812L259.599 307.155C259.732 306.919 259.894 306.675 260.056 306.417C260.419 305.802 260.815 305.208 261.244 304.638C261.481 304.314 261.732 303.981 261.982 303.642C262.233 303.302 262.565 302.97 262.868 302.616C263.528 301.873 264.225 301.164 264.957 300.491C268.348 297.415 272.412 295.176 276.824 293.952C277.796 293.689 278.781 293.478 279.776 293.317C280.233 293.251 280.676 293.155 281.111 293.118L282.351 293.015C283.063 292.959 283.778 292.942 284.491 292.963C284.809 292.963 285.097 292.963 285.37 292.963L286.108 293.029L287.126 293.14C287.228 293.158 287.328 293.191 287.421 293.236Z" fill="#263238"/>
<path d="M136.95 290.919C136.886 290.755 136.842 290.584 136.817 290.41L136.5 288.934C136.212 287.649 135.762 285.797 135.09 283.531C133.309 277.652 131.212 271.872 128.81 266.218C126.035 259.576 123.186 253.672 120.965 249.547C120.419 248.499 119.902 247.561 119.437 246.749C118.972 245.938 118.589 245.222 118.249 244.661L117.511 243.347C117.413 243.199 117.332 243.041 117.268 242.875C117.384 243.01 117.488 243.156 117.578 243.31L118.404 244.587C118.766 245.133 119.142 245.834 119.651 246.639C120.161 247.443 120.67 248.373 121.231 249.414C124.163 254.817 126.807 260.372 129.149 266.056C131.562 271.721 133.629 277.528 135.341 283.443C135.969 285.723 136.389 287.59 136.633 288.889C136.736 289.517 136.817 290.011 136.876 290.365C136.921 290.547 136.946 290.732 136.95 290.919Z" fill="#263238"/>
<path d="M249.443 243.325C249.45 243.387 249.45 243.448 249.443 243.51V244.048C249.443 244.558 249.443 245.251 249.443 246.13C249.443 247.945 249.333 250.558 249.192 253.79C248.927 260.255 248.366 269.177 247.377 279.007C246.388 288.838 245.163 297.686 244.122 304.099C243.613 307.295 243.17 309.871 242.838 311.649C242.676 312.52 242.543 313.199 242.447 313.701L242.336 314.232C242.331 314.294 242.313 314.354 242.285 314.409C242.281 314.348 242.281 314.286 242.285 314.225C242.285 314.077 242.329 313.9 242.359 313.686C242.432 313.184 242.543 312.498 242.676 311.627C242.956 309.804 243.355 307.199 243.842 304.055C244.794 297.664 245.99 288.808 246.978 278.963C247.967 269.118 248.565 260.233 248.912 253.775C249.067 250.572 249.192 247.967 249.281 246.13C249.325 245.251 249.355 244.55 249.377 244.048C249.377 243.827 249.377 243.65 249.414 243.51C249.416 243.447 249.426 243.385 249.443 243.325Z" fill="#263238"/>
<path d="M218.05 211.68C217.415 211.314 216.7 211.111 215.968 211.09L165.312 205.54C163.585 205.348 161.622 205.223 160.308 206.359C158.633 207.798 158.899 210.462 159.652 212.543C160.404 214.625 161.533 216.735 161.128 218.905L215.496 222.315C215.157 220.352 216.714 218.625 217.865 217.031C219.016 215.436 219.673 212.824 218.05 211.68Z" fill="#5285F2"/>
<path d="M220.47 221.266C220.279 221.338 220.081 221.392 219.88 221.429L218.153 221.805C217.415 221.968 216.478 222.159 215.4 222.329C214.323 222.499 213.105 222.735 211.71 222.883L209.577 223.156C208.839 223.244 208.05 223.296 207.245 223.37C205.644 223.539 203.917 223.599 202.079 223.687C198.141 223.805 194.2 223.712 190.271 223.407C186.345 223.062 182.44 222.503 178.574 221.731C176.803 221.348 175.113 220.993 173.556 220.565C172.773 220.359 172.013 220.182 171.297 219.968L169.231 219.355C167.91 218.979 166.744 218.543 165.711 218.196C164.678 217.85 163.799 217.51 163.091 217.222L161.452 216.565C161.26 216.495 161.072 216.411 160.892 216.314C161.093 216.358 161.29 216.417 161.482 216.492L163.143 217.082C163.881 217.348 164.744 217.665 165.785 217.99C166.825 218.314 167.999 218.728 169.312 219.089L171.371 219.687C172.109 219.886 172.847 220.056 173.629 220.263C175.187 220.676 176.877 221.001 178.648 221.385C186.355 222.917 194.21 223.571 202.065 223.333C203.873 223.259 205.592 223.207 207.194 223.052C207.998 222.986 208.773 222.942 209.511 222.861L211.651 222.617C213.009 222.484 214.234 222.27 215.341 222.115C216.448 221.96 217.341 221.798 218.094 221.658L219.828 221.348C220.039 221.3 220.254 221.273 220.47 221.266Z" fill="#263238"/>
<g opacity="0.3">
<path d="M96.6258 274.963C91.7738 275.817 87.2506 277.99 83.5522 281.245C79.8537 284.499 77.1229 288.709 75.6592 293.413C78.1905 292.579 80.6038 290.402 82.4488 288.469C87.2532 283.428 93.1793 280.055 100.102 279.317C104.869 278.801 109.43 280.055 113.888 281.804C115.902 282.602 118.153 283.044 119.954 284.262L122.338 284.808C116.736 276.749 106.316 273.399 96.6258 274.963Z" fill="black"/>
</g>
<g opacity="0.3">
<path d="M164.707 217.71C171.903 224.234 181.327 228.869 191.017 229.57C200.707 230.271 209.991 227.171 218.05 221.739C198.367 224.824 180.456 223.776 164.707 217.71Z" fill="black"/>
</g>
<g opacity="0.3">
<path d="M288.329 287.628C286.742 286.624 284.728 286.646 282.861 286.89C271.156 288.277 259.828 296.248 258.669 309.104C263.599 299.569 273.739 292.58 284.433 293.503C286.233 293.657 288.373 293.871 289.525 292.477C290.676 291.082 289.908 288.639 288.329 287.628Z" fill="black"/>
</g>
<path d="M64.0284 349.073L160.013 348.586C160.013 348.586 159.378 350.439 163.356 350.439L195.09 350.217C195.09 350.217 197.437 350.439 197.474 348.586C197.474 348.586 271.886 349.841 290.27 350.358C291.642 350.394 294.078 349.561 292.934 347.811L286.521 340.129L180.352 329.797L105.076 337.708L79.2459 328.38H78.3899C78.0417 328.379 77.6984 328.461 77.3888 328.62C77.0793 328.78 76.8126 329.011 76.6113 329.295L63.3273 347.745C63.2399 347.873 63.189 348.022 63.1801 348.176C63.1712 348.33 63.2047 348.484 63.2768 348.621C63.349 348.758 63.4571 348.872 63.5896 348.952C63.7221 349.032 63.8738 349.074 64.0284 349.073Z" fill="#455A64"/>
<path opacity="0.2" d="M104.611 346.852L275.606 348.173L235.392 335.715L185.26 337.125L135.098 335.125L104.611 346.852Z" fill="black"/>
<path d="M179.4 343.472L180.353 322.432C180.353 322.432 180.544 310.86 166.604 307C152.663 303.14 135.29 308.055 119.062 308.934C102.833 309.812 103.025 308.579 103.025 308.579L89.8516 328.919L141.593 336.461C141.593 336.461 171.57 338.21 172.139 338.387C172.707 338.564 179.4 343.472 179.4 343.472Z" fill="white"/>
<path d="M179.23 344.217L180.352 324.446C180.352 324.446 180.16 312.911 194.094 309.022C208.027 305.133 225.4 310.07 241.628 310.948C252.986 311.561 256.506 311.457 257.599 311.339C257.751 311.323 257.904 311.348 258.043 311.411C258.182 311.475 258.301 311.575 258.388 311.701L270.846 330.933L219.112 338.476C219.112 338.476 189.134 340.232 188.559 340.402C187.983 340.571 179.23 344.217 179.23 344.217Z" fill="white"/>
<path d="M67.3203 347.509L89.8515 328.919C89.8515 328.919 136.53 321.03 152.36 323.834C168.19 326.639 177.223 332.078 179.4 343.65L164.198 347.509C157.917 344.324 151.002 342.589 143.962 342.432C132.508 342.255 103.866 347.517 103.866 347.517L67.3203 347.509Z" fill="#E0E0E0"/>
<path d="M195.526 347.509L179.481 343.473C179.481 343.473 180.625 325.089 206.684 322.019C206.684 322.019 214.064 319.628 240.197 324.536C266.329 329.443 269.03 329.273 269.03 329.273L290.772 348.557C290.772 348.557 277.79 349.613 267.097 347.509C256.403 345.406 237.695 338.211 217.459 340.321C197.223 342.432 195.526 347.509 195.526 347.509Z" fill="#E0E0E0"/>
<path d="M89.851 328.919L102.604 309.236L79.984 327.288L65.6963 347.509H67.3199L89.851 328.919Z" fill="#E0E0E0"/>
<path d="M268.942 329.274L258.551 311.812C258.551 311.812 279.252 329.805 279.429 330.314C279.606 330.823 290.705 348.558 290.705 348.558L268.942 329.274Z" fill="#E0E0E0"/>
<path d="M163.356 347.51H195.437L179.401 343.473L178.559 343.65" fill="#263238"/>
<path d="M179.401 343.472C179.29 343.472 179.401 338.874 179.637 333.221C179.873 327.568 180.161 322.978 180.264 322.985C180.367 322.993 180.264 327.576 180.02 333.236C179.777 338.897 179.504 343.48 179.401 343.472Z" fill="#263238"/>
<path d="M112.331 325.672C112.189 325.72 112.043 325.752 111.895 325.768L110.618 325.989L105.88 326.727L89.8806 329.148L89.9691 329.111L86.8916 331.48L71.9545 342.867L67.4011 346.292L66.1465 347.207C66.0044 347.319 65.8539 347.42 65.6963 347.509C65.8172 347.374 65.9534 347.252 66.1022 347.148L67.3051 346.174L71.7848 342.646L86.6555 331.133L89.7329 328.771H89.7772H89.8215L105.851 326.521L110.596 325.886L111.88 325.738C112.027 325.7 112.178 325.677 112.331 325.672Z" fill="#263238"/>
<path d="M177.29 332.432C177.29 332.432 177.238 332.387 177.149 332.284L176.758 331.812C176.419 331.406 175.902 330.808 175.186 330.092C173.154 328.076 170.824 326.383 168.279 325.074C164.495 323.149 160.425 321.846 156.227 321.214C151.079 320.465 145.88 320.119 140.677 320.181C131.219 320.147 121.772 320.863 112.427 322.321C108.84 322.882 105.955 323.435 103.962 323.834L101.667 324.299L101.069 324.417C101 324.427 100.931 324.427 100.862 324.417L101.062 324.351L101.652 324.203C102.169 324.077 102.936 323.886 103.932 323.664C105.91 323.221 108.796 322.624 112.382 322.033C121.734 320.49 131.199 319.735 140.677 319.775C145.901 319.711 151.121 320.068 156.286 320.845C160.515 321.497 164.609 322.838 168.404 324.815C170.965 326.156 173.292 327.9 175.297 329.981C175.838 330.544 176.346 331.138 176.817 331.76L177.179 332.255C177.224 332.308 177.261 332.368 177.29 332.432Z" fill="#263238"/>
<path d="M177.29 329.886C177.29 329.886 177.238 329.842 177.157 329.746L176.795 329.318C176.64 329.118 176.441 328.89 176.198 328.624C175.954 328.358 175.681 328.041 175.349 327.709C173.48 325.827 171.353 324.222 169.032 322.941C165.57 321.056 161.835 319.724 157.962 318.993C153.218 318.126 148.407 317.684 143.585 317.672C134.821 317.493 126.054 317.955 117.357 319.052C114.014 319.48 111.327 319.901 109.468 320.211L107.335 320.565L106.774 320.654H106.582L106.767 320.602L107.32 320.476C107.8 320.373 108.516 320.218 109.445 320.048C111.29 319.694 113.984 319.229 117.32 318.772C126.025 317.593 134.81 317.1 143.593 317.296C148.436 317.309 153.268 317.763 158.028 318.654C161.925 319.407 165.677 320.778 169.142 322.713C171.475 324.018 173.595 325.67 175.43 327.613C175.755 327.96 176.035 328.27 176.264 328.558C176.493 328.845 176.692 329.074 176.832 329.296L177.164 329.753C177.212 329.792 177.254 329.837 177.29 329.886Z" fill="#263238"/>
<path d="M177.29 327.295C177.29 327.295 177.238 327.258 177.157 327.162L176.803 326.734C176.65 326.532 176.451 326.304 176.205 326.048C175.959 325.792 175.679 325.489 175.364 325.14C173.521 323.269 171.418 321.674 169.12 320.402C165.706 318.52 162.018 317.185 158.19 316.446C153.495 315.578 148.73 315.136 143.954 315.125C135.273 314.929 126.588 315.363 117.969 316.424C114.656 316.83 111.992 317.236 110.147 317.539L108.029 317.885L107.475 317.967C107.412 317.98 107.347 317.98 107.283 317.967L107.468 317.915L108.014 317.797C108.501 317.701 109.209 317.546 110.125 317.376C111.955 317.029 114.619 316.579 117.933 316.136C126.562 314.997 135.267 314.526 143.969 314.727C148.765 314.748 153.548 315.215 158.257 316.122C162.115 316.883 165.828 318.256 169.253 320.188C171.558 321.492 173.655 323.134 175.474 325.059C175.799 325.398 176.065 325.708 176.294 325.989C176.522 326.269 176.714 326.505 176.862 326.727L177.187 327.177C177.225 327.212 177.26 327.252 177.29 327.295Z" fill="#263238"/>
<path d="M177.289 324.719C177.289 324.719 177.237 324.682 177.156 324.586L176.809 324.166C176.507 323.797 176.071 323.258 175.415 322.601C170.948 317.994 165.22 314.808 158.95 313.443C154.743 312.505 149.983 312.461 145.009 312.528C135.046 312.587 126.035 313.015 119.548 313.701C116.301 314.026 113.644 314.373 111.88 314.646L109.799 314.956L109.253 315.029C109.192 315.041 109.129 315.041 109.068 315.029C109.129 315.01 109.19 314.995 109.253 314.985L109.784 314.867C110.257 314.778 110.95 314.638 111.851 314.491C113.651 314.173 116.279 313.753 119.518 313.421C127.988 312.571 136.496 312.154 145.009 312.173C149.976 312.114 154.78 312.173 159.031 313.133C162.799 313.945 166.384 315.447 169.607 317.561C171.779 318.96 173.763 320.631 175.511 322.535C175.986 323.052 176.435 323.594 176.854 324.158L177.178 324.601C177.219 324.637 177.256 324.677 177.289 324.719Z" fill="#263238"/>
<path d="M177.289 322.158C177.289 322.158 177.245 322.159 177.164 322.026L176.817 321.605C176.522 321.236 176.079 320.69 175.474 320.011C173.792 318.089 171.878 316.384 169.777 314.933C168.327 313.942 166.776 313.108 165.149 312.446C163.268 311.708 161.317 311.162 159.326 310.815C154.751 310.051 150.109 309.764 145.474 309.959C135.592 310.255 126.677 311.207 120.212 311.708C116.98 311.967 114.367 312.159 112.552 312.262L110.471 312.365H109.925L110.463 312.314L112.545 312.136L120.19 311.457C126.648 310.889 135.563 309.893 145.467 309.598C150.131 309.393 154.804 309.683 159.408 310.461C161.428 310.822 163.406 311.389 165.312 312.151C166.955 312.832 168.519 313.691 169.976 314.712C172.08 316.191 173.981 317.94 175.629 319.915C176.219 320.609 176.647 321.17 176.92 321.561L177.238 322.004C177.259 322.054 177.277 322.105 177.289 322.158Z" fill="#263238"/>
<path d="M181.924 331.731C181.924 331.731 181.961 331.664 182.042 331.553L182.411 331.074C182.894 330.458 183.414 329.871 183.968 329.317C186.011 327.281 188.368 325.586 190.95 324.299C194.781 322.391 198.9 321.124 203.141 320.55C208.317 319.868 213.539 319.607 218.757 319.768C228.238 319.901 237.69 320.83 247.015 322.542C250.587 323.207 253.458 323.856 255.436 324.336C256.425 324.572 257.185 324.779 257.702 324.911L258.285 325.074C258.354 325.087 258.421 325.11 258.484 325.14C258.416 325.152 258.346 325.152 258.277 325.14L257.68 325.015L255.399 324.506C253.414 324.077 250.543 323.465 246.964 322.845C237.647 321.211 228.215 320.32 218.757 320.181C213.558 320.016 208.354 320.263 203.193 320.919C198.983 321.474 194.889 322.699 191.068 324.55C188.497 325.811 186.137 327.461 184.071 329.443C183.333 330.144 182.817 330.727 182.47 331.133L182.071 331.598L181.924 331.731Z" fill="#263238"/>
<path d="M181.969 329.148L182.079 328.986L182.419 328.535C182.567 328.336 182.766 328.1 183.002 327.797C183.238 327.495 183.519 327.207 183.851 326.875C185.724 324.964 187.876 323.349 190.234 322.085C193.731 320.211 197.506 318.911 201.415 318.233C206.191 317.43 211.03 317.064 215.872 317.141C224.658 317.116 233.433 317.778 242.116 319.119C245.444 319.635 248.123 320.152 249.968 320.543C250.891 320.727 251.599 320.897 252.086 321.008L252.632 321.141C252.696 321.154 252.757 321.174 252.817 321.2C252.753 321.209 252.688 321.209 252.625 321.2L252.071 321.104L249.939 320.713C248.086 320.366 245.407 319.893 242.071 319.406C233.395 318.15 224.639 317.528 215.872 317.547C211.054 317.469 206.237 317.822 201.481 318.602C197.601 319.259 193.848 320.521 190.36 322.344C188.011 323.578 185.853 325.147 183.954 327C183.614 327.325 183.327 327.628 183.091 327.893C182.854 328.159 182.633 328.388 182.478 328.58L182.109 329L181.969 329.148Z" fill="#263238"/>
<path d="M182.021 326.594C182.021 326.594 182.021 326.535 182.124 326.432L182.463 325.989C182.641 325.733 182.834 325.486 183.039 325.251C183.304 324.93 183.585 324.622 183.88 324.329C185.733 322.437 187.86 320.835 190.19 319.576C193.649 317.703 197.387 316.4 201.26 315.716C205.987 314.894 210.78 314.513 215.577 314.58C224.282 314.539 232.977 315.171 241.584 316.469C244.883 316.971 247.54 317.473 249.363 317.849C250.278 318.033 250.987 318.203 251.466 318.307L252.005 318.439C252.07 318.448 252.132 318.468 252.19 318.498C252.126 318.508 252.061 318.508 251.998 318.498L251.452 318.41L249.333 318.019C247.503 317.687 244.839 317.229 241.54 316.764C232.94 315.544 224.263 314.95 215.577 314.986C210.804 314.922 206.034 315.29 201.327 316.085C197.486 316.753 193.773 318.018 190.323 319.834C188.002 321.066 185.87 322.625 183.991 324.461C183.659 324.779 183.371 325.081 183.135 325.347C182.899 325.613 182.685 325.834 182.53 326.019L182.161 326.447C182.072 326.55 182.028 326.602 182.021 326.594Z" fill="#263238"/>
<path d="M182.064 322.159C182.603 321.393 183.224 320.687 183.917 320.056C185.814 318.336 187.997 316.96 190.367 315.99C191.985 315.296 193.638 314.687 195.319 314.167C197.235 313.519 199.192 313.004 201.179 312.624C205.4 311.835 210.131 311.886 215.031 312.056C224.876 312.366 233.717 313.584 240.123 314.329L247.695 315.244L249.754 315.488L250.285 315.561L250.47 315.598H250.285H249.746L247.68 315.421C245.887 315.259 243.289 314.986 240.093 314.632C233.688 313.945 224.854 312.779 215.038 312.469C210.131 312.314 205.444 312.24 201.26 313.001C199.286 313.364 197.338 313.857 195.43 314.477C193.622 315.037 191.961 315.621 190.485 316.248C188.13 317.19 185.948 318.517 184.028 320.174C183.728 320.435 183.443 320.711 183.171 321.001C182.96 321.2 182.76 321.412 182.574 321.635L182.212 322.041C182.116 322.122 182.072 322.167 182.064 322.159Z" fill="#263238"/>
<path d="M214.123 328.852V341.339L218.263 337.597L222.315 341.147L222.551 328.985C222.551 328.985 215.894 328.631 214.123 328.852Z" fill="#5285F2"/>
<path d="M260.934 336.107L260.72 336.07L260.108 335.93L257.768 335.369C255.731 334.882 252.779 334.21 249.111 333.487C245.443 332.764 241.06 332.011 236.174 331.199L228.521 329.937C225.794 329.454 223.038 329.158 220.27 329.052C217.5 328.935 214.726 328.974 211.96 329.17C209.386 329.328 206.831 329.709 204.322 330.306C200.074 331.356 196.089 333.273 192.617 335.937C191.29 336.961 190.028 338.068 188.839 339.251C187.776 340.291 186.913 341.236 186.212 342.011L184.625 343.819L184.212 344.291C184.116 344.395 184.064 344.446 184.057 344.439L184.182 344.262L184.566 343.775C184.905 343.339 185.422 342.712 186.101 341.915C186.78 341.118 187.636 340.159 188.684 339.103C189.862 337.894 191.119 336.765 192.448 335.723C195.935 332.996 199.959 331.034 204.256 329.967C206.782 329.35 209.358 328.958 211.953 328.793C214.733 328.592 217.522 328.55 220.307 328.668C223.09 328.774 225.862 329.075 228.602 329.568L236.255 330.852C241.134 331.672 245.525 332.461 249.185 333.221C252.846 333.982 255.827 334.697 257.827 335.221C258.838 335.48 259.62 335.701 260.152 335.856L260.75 336.033C260.815 336.048 260.877 336.073 260.934 336.107Z" fill="#263238"/>
<path d="M173.917 344.645C173.917 344.645 173.851 344.586 173.733 344.461L173.223 343.9C172.995 343.656 172.729 343.339 172.389 342.992C172.05 342.645 171.651 342.254 171.194 341.811C168.583 339.369 165.633 337.318 162.434 335.723C157.68 333.379 152.574 331.828 147.319 331.132C140.876 330.344 134.357 330.391 127.925 331.273C121.069 332.121 114.641 333.487 108.737 334.697C102.833 335.907 97.5709 336.955 93.0765 337.605C89.5328 338.133 85.963 338.468 82.3829 338.608C81.1135 338.645 80.1246 338.66 79.4309 338.645C80.0951 338.645 81.0766 338.601 82.346 338.542C85.9149 338.345 89.4717 337.968 93.0027 337.413C97.4823 336.741 102.774 335.671 108.634 334.461C114.493 333.25 120.958 331.848 127.822 331C134.286 330.116 140.838 330.078 147.312 330.889C152.602 331.608 157.736 333.196 162.508 335.59C165.722 337.18 168.684 339.237 171.297 341.693L172.478 342.904C172.81 343.265 173.061 343.59 173.282 343.841L173.769 344.424C173.83 344.49 173.879 344.564 173.917 344.645Z" fill="#263238"/>
<path d="M173.917 347.236C173.917 347.236 173.851 347.177 173.733 347.052L173.223 346.491C172.995 346.248 172.729 345.93 172.389 345.583L171.194 344.403C168.581 341.963 165.631 339.912 162.434 338.314C157.68 335.97 152.574 334.42 147.319 333.724C140.876 332.935 134.357 332.982 127.925 333.864C121.069 334.713 114.641 336.078 108.737 337.288C102.833 338.499 97.5709 339.554 93.0765 340.196C89.5329 340.726 85.9631 341.064 82.3829 341.207C81.1135 341.207 80.1246 341.251 79.4309 341.207C80.0951 341.207 81.0766 341.163 82.346 341.104C85.9149 340.91 89.4717 340.535 93.0027 339.982C97.4824 339.303 102.774 338.24 108.634 336.993C114.493 335.746 120.958 334.388 127.822 333.532C134.286 332.648 140.838 332.611 147.312 333.421C152.601 334.144 157.735 335.732 162.508 338.122C165.711 339.753 168.656 341.85 171.245 344.343L172.426 345.554C172.758 345.915 173.009 346.24 173.231 346.491L173.718 347.081C173.873 347.163 173.924 347.229 173.917 347.236Z" fill="#263238"/>
<path d="M166.33 345.037C166.187 344.948 166.051 344.846 165.924 344.734C165.659 344.535 165.297 344.203 164.78 343.834C163.363 342.76 161.86 341.805 160.286 340.978C157.951 339.751 155.492 338.777 152.95 338.07C149.837 337.208 146.645 336.662 143.423 336.439C137.551 336.146 131.664 336.441 125.851 337.317L120.552 338.055L119.076 338.255C118.909 338.273 118.741 338.273 118.574 338.255C118.735 338.201 118.901 338.162 119.069 338.137L120.5 337.871C121.74 337.642 123.541 337.332 125.784 337C131.612 336.048 137.525 335.717 143.423 336.011C146.67 336.233 149.886 336.795 153.017 337.686C155.579 338.415 158.054 339.422 160.397 340.69C161.96 341.537 163.442 342.525 164.825 343.642C165.327 344.033 165.673 344.38 165.924 344.602C166.079 344.727 166.216 344.874 166.33 345.037Z" fill="#263238"/>
<path d="M137.917 292.809L163.983 287.178C163.983 287.178 173.754 285.207 175.644 286.248C177.533 287.288 188.418 295.997 189.356 296.808C190.293 297.62 200.699 310.092 200.699 310.092C200.699 310.092 200.462 314.041 194.75 312.454C191.798 311.642 179.311 300.72 179.311 300.72L176.382 298.417C176.382 298.417 180.935 305.473 180.846 307.79C180.758 310.107 177.858 314.734 176.861 315.369C175.865 316.004 170.876 315.133 170.876 315.133C170.876 315.133 167.334 318.956 164.551 315.945C164.551 315.945 159.806 320.882 155.954 318.019L153.887 313.967L151.917 312.439C151.917 312.439 151.614 315.229 149.703 315.539C147.791 315.849 126.353 311.229 126.353 311.229L133.733 291.059L137.917 292.809Z" fill="#FFBF9D"/>
<path d="M165.629 299.945C165.847 300.047 166.049 300.182 166.227 300.344C166.596 300.632 167.12 301.082 167.703 301.621C169.316 303.088 170.757 304.735 171.998 306.528C172.341 307.058 172.623 307.625 172.839 308.218C173.078 308.776 173.152 309.391 173.053 309.99C172.917 310.969 172.654 311.926 172.271 312.838C172.034 313.458 171.73 314.049 171.363 314.602C171.237 314.811 171.069 314.992 170.869 315.133C170.869 315.133 171.017 314.919 171.238 314.521C171.551 313.95 171.813 313.352 172.02 312.735C172.356 311.837 172.586 310.903 172.707 309.953C172.732 309.685 172.732 309.416 172.707 309.148C172.657 308.874 172.583 308.605 172.485 308.344C172.269 307.781 171.994 307.241 171.666 306.735C170.442 304.978 169.056 303.34 167.526 301.842C166.375 300.654 165.592 299.99 165.629 299.945Z" fill="#FF9A6C"/>
<path d="M152.176 302.262C152.427 302.131 152.699 302.044 152.98 302.004C153.739 301.838 154.52 301.806 155.29 301.908C157.851 302.284 160.161 303.655 161.718 305.723C162.526 306.877 163.137 308.156 163.526 309.509C163.852 310.597 164.099 311.707 164.264 312.83C164.412 313.782 164.493 314.564 164.537 315.103C164.571 315.382 164.571 315.665 164.537 315.944C164.471 315.944 164.338 314.764 163.976 312.874C163.763 311.772 163.487 310.683 163.15 309.612C162.758 308.295 162.157 307.049 161.371 305.922C160.546 304.842 159.512 303.938 158.331 303.265C157.365 302.709 156.308 302.329 155.209 302.144C154.198 302.032 153.175 302.071 152.176 302.262Z" fill="#FF9A6C"/>
<path d="M167.614 292.284C167.614 292.284 167.762 292.21 168.057 292.144C168.239 292.107 168.425 292.095 168.611 292.107C168.859 292.103 169.107 292.13 169.349 292.188C170.722 292.542 171.989 293.226 173.039 294.181C174.106 295.08 175.062 296.103 175.887 297.229C176.266 297.668 176.57 298.167 176.788 298.705C176.379 298.299 175.997 297.868 175.644 297.413C174.765 296.352 173.799 295.364 172.758 294.461C171.751 293.547 170.561 292.858 169.267 292.439C168.723 292.332 168.169 292.28 167.614 292.284Z" fill="#FF9A6C"/>
<path d="M133.342 288.329L120.294 283.244L96.2718 284.477L84.3015 300.624L79.4971 323.878C79.4971 323.878 123.489 314.218 124.884 314.085C126.279 313.952 128.522 311.694 128.522 311.694L133.216 312.676L139.231 292.528L133.342 288.329Z" fill="#5285F2"/>
<path d="M141.201 291.45L141.024 291.406L140.522 291.221L138.582 290.483L131.489 287.745L120.988 283.642L114.796 281.199C112.609 280.274 110.36 279.502 108.065 278.889C105.771 278.296 103.39 278.114 101.032 278.351C98.8395 278.578 96.6874 279.1 94.6336 279.9C91.1517 281.295 87.8942 283.195 84.9658 285.539C82.4345 287.502 80.5378 289.229 79.1725 290.446L77.6375 291.827L77.2316 292.173C77.1356 292.255 77.084 292.291 77.084 292.284C77.117 292.235 77.1567 292.19 77.2021 292.151L77.5858 291.767L79.0618 290.336C80.3681 289.111 82.2647 287.325 84.7813 285.325C87.71 282.931 90.9813 280.991 94.486 279.568C96.5694 278.748 98.7538 278.211 100.98 277.974C103.38 277.733 105.803 277.915 108.139 278.513C110.453 279.13 112.719 279.912 114.921 280.852L121.106 283.317L131.578 287.494L138.626 290.343L140.537 291.14L141.024 291.354L141.201 291.45Z" fill="#263238"/>
<path d="M248.292 326.823C247.768 325.945 247.554 324.697 248.831 323.199L252.344 321.635C252.745 320.547 253.326 319.534 254.064 318.638C254.964 317.819 256.278 316.771 256.278 316.771C256.278 316.771 258.218 314.085 260.086 312.963C261.953 311.841 266.514 310.646 268.086 309.273C269.657 307.901 274.587 303.591 278.026 305.236C281.465 306.882 283.93 312.661 286.617 313.878C289.303 315.096 290.307 319.133 291.325 320.779C292.344 322.424 293.495 323.62 293.642 324.889C293.79 326.159 296.705 328.705 297.229 332.136C297.753 335.568 297.458 336.771 295.886 338.04C294.314 339.31 291.251 341.856 288.189 342.306C286.469 342.557 284.115 342.712 282.381 342.801C281.692 342.836 281.008 342.666 280.416 342.311C279.825 341.956 279.352 341.433 279.06 340.808L278.846 340.358C278.846 340.358 271.001 344.321 267.266 343.797C263.532 343.273 265.052 340.063 265.052 340.063C265.052 340.063 261.237 343.753 258.846 343.051C256.455 342.35 255.156 342.454 254.964 340.358C254.772 338.262 256.528 335.871 256.528 335.871C256.528 335.871 252.942 335.952 252.647 333.561C252.544 331.86 252.877 330.161 253.613 328.624L250.735 328.299C250.242 328.256 249.766 328.1 249.342 327.844C248.919 327.588 248.56 327.239 248.292 326.823Z" fill="#FFBF9D"/>
<path d="M268.373 310.809C268.284 311.103 268.165 311.387 268.019 311.657C267.869 311.986 267.696 312.304 267.502 312.61C267.266 313.024 267.007 313.426 266.728 313.812C266.001 314.823 265.199 315.778 264.329 316.669C263.355 317.672 262.233 318.728 261.038 319.812C259.842 320.897 258.735 321.945 257.761 322.942C256.905 323.821 256.113 324.76 255.392 325.753C254.167 327.465 253.694 328.705 253.613 328.654C253.696 328.358 253.807 328.071 253.945 327.798C254.076 327.459 254.237 327.133 254.425 326.823C254.648 326.401 254.894 325.992 255.163 325.598C255.867 324.57 256.651 323.6 257.51 322.698C258.469 321.68 259.591 320.617 260.779 319.532C261.967 318.447 263.097 317.407 264.078 316.425C264.948 315.555 265.76 314.628 266.506 313.65C267.768 311.975 268.299 310.765 268.373 310.809Z" fill="#FF9A6C"/>
<path d="M278.108 314.048C278.089 314.152 278.057 314.254 278.012 314.35C277.938 314.55 277.828 314.83 277.665 315.192C277.211 316.206 276.696 317.192 276.123 318.144C274.231 321.329 271.721 324.104 268.743 326.306C267.023 327.62 265.311 328.756 263.783 329.812C262.256 330.867 260.898 331.856 259.82 332.764C258.964 333.456 258.146 334.195 257.37 334.978C257.108 335.29 256.825 335.583 256.521 335.856C256.736 335.506 256.983 335.177 257.259 334.874C257.998 334.035 258.795 333.248 259.643 332.52C260.713 331.597 262.056 330.579 263.577 329.502C265.097 328.424 266.802 327.288 268.507 325.981C270.113 324.774 271.596 323.412 272.935 321.915C274.019 320.683 275.006 319.367 275.887 317.981C276.625 316.793 277.163 315.767 277.525 315.088C277.693 314.727 277.888 314.38 278.108 314.048Z" fill="#FF9A6C"/>
<path d="M279.311 314.979C279.377 315.06 278.816 315.68 278.041 316.359C277.266 317.038 276.565 317.525 276.521 317.443C276.477 317.362 277.016 316.75 277.79 316.071C278.221 315.61 278.737 315.239 279.311 314.979Z" fill="#FF9A6C"/>
<path d="M283.96 323.981C283.897 324.31 283.796 324.629 283.658 324.933C283.323 325.782 282.892 326.589 282.374 327.339C280.612 329.785 278.375 331.85 275.798 333.413C272.846 335.302 270.093 336.852 268.167 338.077C267.2 338.682 266.425 339.192 265.894 339.553C265.629 339.753 265.347 339.931 265.053 340.085C265.274 339.841 265.521 339.624 265.791 339.435C266.3 339.037 267.053 338.498 268.005 337.856C269.901 336.564 272.647 334.978 275.577 333.096C278.113 331.555 280.338 329.552 282.137 327.192C282.831 326.173 283.441 325.099 283.96 323.981Z" fill="#FF9A6C"/>
<path d="M291.599 328.845C291.527 329.067 291.425 329.278 291.296 329.473C291.089 329.864 290.75 330.41 290.307 331.067C289.128 332.772 287.77 334.345 286.255 335.761C285.419 336.534 284.54 337.258 283.621 337.93C282.86 338.471 282.066 338.964 281.244 339.406C280.898 339.598 280.573 339.746 280.285 339.879C279.997 340.011 279.746 340.115 279.547 340.189C279.338 340.291 279.114 340.358 278.883 340.388C278.883 340.329 279.768 339.96 281.097 339.163C281.889 338.698 282.655 338.19 283.392 337.642C284.219 337.015 285.104 336.292 285.982 335.48C287.472 334.073 288.84 332.543 290.071 330.905C291.023 329.65 291.51 328.816 291.599 328.845Z" fill="#FF9A6C"/>
<path d="M255.429 320.395C254.384 320.971 253.295 321.464 252.174 321.871C251.089 322.377 249.973 322.811 248.831 323.17C248.772 323.052 250.196 322.285 252.026 321.517C253.857 320.75 255.384 320.292 255.429 320.395Z" fill="#FF9A6C"/>
<path d="M257.562 306.69C258.842 306.65 260.124 306.689 261.399 306.808C258.841 306.975 256.275 306.975 253.717 306.808C254.995 306.689 256.279 306.65 257.562 306.69Z" fill="#5285F2"/>
</svg>
