<svg width="24" height="25" viewBox="0 0 24 25" fill="none" xmlns="http://www.w3.org/2000/svg">
<path d="M23.7987 12.5013C23.7987 19.1213 18.5084 24.5013 11.9987 24.5013C5.48906 24.5013 0.19873 19.1213 0.19873 12.5013C0.19873 5.88127 5.48906 0.50127 11.9987 0.50127C12.1856 0.50127 12.3724 0.50127 12.5592 0.51127C13.3754 0.55127 14.0047 1.25127 13.9654 2.08127C13.9261 2.91127 13.2574 3.53127 12.4216 3.51127C12.2839 3.51127 12.1364 3.50127 11.9987 3.50127C7.1214 3.50127 3.14873 7.54127 3.14873 12.5013C3.14873 17.4613 7.1214 21.5013 11.9987 21.5013C16.8761 21.5013 20.8487 17.4613 20.8487 12.5013C20.8487 12.3613 20.8487 12.2113 20.8389 12.0713C20.7996 11.2413 21.4289 10.5413 22.2451 10.5013C23.0809 10.4713 23.7496 11.1013 23.7889 11.9313C23.7889 12.1213 23.7987 12.3113 23.7987 12.5013ZM10.9269 8.65127C11.7136 8.42127 12.1659 7.60127 11.9496 6.80127C11.7332 6.00127 10.9072 5.54127 10.1304 5.76127C7.1804 6.61127 5.12523 9.38127 5.12523 12.5013C5.12523 16.3613 8.2129 19.5013 12.0086 19.5013C15.0766 19.5013 17.8004 17.4113 18.6362 14.4113C18.8624 13.6113 18.4002 12.7813 17.6136 12.5613C16.8269 12.3313 16.0107 12.8013 15.7944 13.6013C15.3224 15.3113 13.7589 16.5113 12.0086 16.5113C9.8354 16.5113 8.07523 14.7213 8.07523 12.5113C8.07523 10.7313 9.25523 9.14127 10.9367 8.66127L10.9269 8.65127ZM10.9564 11.4413C10.3762 12.0313 10.3762 12.9813 10.9564 13.5613C11.2416 13.8513 11.6251 14.0013 11.9987 14.0013C12.3724 14.0013 12.7559 13.8513 13.0411 13.5613L18.0167 8.50127H20.3571C20.7504 8.50127 21.1241 8.34127 21.3994 8.06127L23.3661 6.06127C23.7889 5.63127 23.9167 4.99127 23.6906 4.43127C23.4644 3.87127 22.9236 3.50127 22.3237 3.50127H20.8487V2.00127C20.8487 1.39127 20.4849 0.85127 19.9342 0.61127C19.3836 0.38127 18.7444 0.51127 18.3314 0.94127L16.3647 2.94127C16.0894 3.22127 15.9321 3.60127 15.9321 4.00127V6.38127L10.9564 11.4413Z" fill="#FD3129"/>
</svg>
