<svg width="24" height="24" viewBox="0 0 24 24" fill="none" xmlns="http://www.w3.org/2000/svg">
<path d="M11.9756 23.9511C18.5895 23.9511 23.9511 18.5895 23.9511 11.9756C23.9511 5.36164 18.5895 0 11.9756 0C5.36164 0 0 5.36164 0 11.9756C0 18.5895 5.36164 23.9511 11.9756 23.9511Z" fill="#71717A"/>
<path d="M16.9956 19.0378H14.3667V6.03556H13.1956C11.0489 6.03556 9.92444 7.10889 9.92444 8.71111C9.92444 10.5289 10.7 11.3711 12.3044 12.4444L13.6267 13.3356L9.82667 19.0356H7L10.42 13.9467C8.45333 12.5422 7.34667 11.1711 7.34667 8.85778C7.34667 5.96667 9.36222 4 13.1778 4H16.9778V19.0333H16.9956V19.0378Z" fill="white"/>
</svg>
